<svg width="24" height="24" viewBox="0 0 24 24" fill="none" xmlns="http://www.w3.org/2000/svg">
<path opacity="0.12" d="M2.57395 4.72906C2.39247 4.18231 2.30174 3.90893 2.36778 3.74054C2.42514 3.59429 2.54789 3.48351 2.69923 3.4414C2.87349 3.39291 3.13616 3.51111 3.66151 3.74751L20.3788 11.2703C20.8931 11.5017 21.1503 11.6174 21.2298 11.7782C21.2988 11.9179 21.2988 12.0817 21.2298 12.2214C21.1503 12.3822 20.8931 12.4979 20.3788 12.7293L3.66733 20.2495C3.1404 20.4866 2.87693 20.6052 2.7025 20.5565C2.55102 20.5142 2.42825 20.4031 2.37109 20.2566C2.30527 20.0879 2.39699 19.8139 2.58042 19.266L4.91534 12.2913C4.94675 12.1975 4.96246 12.1506 4.96873 12.1025C4.9743 12.0599 4.97436 12.0168 4.9689 11.9742C4.96275 11.9262 4.94716 11.8792 4.91599 11.7853L2.57395 4.72906Z" fill="#075985"/>
<path d="M10.5 11.9998H5M4.91534 12.2913L2.58042 19.266C2.39699 19.8139 2.30527 20.0879 2.37109 20.2566C2.42825 20.4031 2.55102 20.5142 2.7025 20.5565C2.87693 20.6052 3.1404 20.4866 3.66733 20.2495L20.3788 12.7293C20.8931 12.4979 21.1503 12.3822 21.2298 12.2214C21.2988 12.0817 21.2988 11.9179 21.2298 11.7782C21.1503 11.6174 20.8931 11.5017 20.3788 11.2703L3.66151 3.74751C3.13616 3.51111 2.87349 3.39291 2.69923 3.4414C2.54789 3.48351 2.42514 3.59429 2.36778 3.74054C2.30174 3.90893 2.39247 4.18231 2.57395 4.72906L4.91599 11.7853C4.94716 11.8792 4.96275 11.9262 4.9689 11.9742C4.97436 12.0168 4.9743 12.0599 4.96873 12.1025C4.96246 12.1506 4.94675 12.1975 4.91534 12.2913Z" stroke="#075985" stroke-width="2" stroke-linecap="round" stroke-linejoin="round"/>
</svg>
