<svg width="24" height="25" viewBox="0 0 24 25" fill="none" xmlns="http://www.w3.org/2000/svg">
<g clip-path="url(#clip0_123_260)">
<path d="M20.8428 17.9783C20.5101 18.7469 20.1163 19.4544 19.66 20.1049C19.0381 20.9916 18.5288 21.6054 18.1364 21.9463C17.528 22.5058 16.8762 22.7923 16.1782 22.8086C15.6771 22.8086 15.0728 22.666 14.3693 22.3768C13.6636 22.0889 13.015 21.9463 12.422 21.9463C11.8 21.9463 11.133 22.0889 10.4195 22.3768C9.70493 22.666 9.12928 22.8168 8.68916 22.8317C8.01981 22.8602 7.35264 22.5655 6.68668 21.9463C6.26164 21.5756 5.72999 20.94 5.09309 20.0397C4.40976 19.0782 3.84796 17.9633 3.40784 16.6923C2.93648 15.3193 2.7002 13.9899 2.7002 12.7028C2.7002 11.2284 3.01878 9.95679 3.65689 8.89119C4.1584 8.03525 4.82557 7.36006 5.66059 6.86439C6.49562 6.36873 7.39786 6.11615 8.36949 6.09999C8.90114 6.09999 9.59833 6.26444 10.4647 6.58764C11.3287 6.91192 11.8834 7.07638 12.1266 7.07638C12.3085 7.07638 12.9247 6.88409 13.9694 6.50073C14.9573 6.14521 15.7911 5.998 16.4742 6.05599C18.3251 6.20537 19.7157 6.93501 20.6405 8.24954C18.9851 9.25255 18.1662 10.6574 18.1825 12.4596C18.1975 13.8633 18.7067 15.0314 19.7076 15.9589C20.1611 16.3894 20.6676 16.7221 21.2312 16.9584C21.109 17.3129 20.98 17.6524 20.8428 17.9783ZM16.5978 1.27371C16.5978 2.37396 16.1958 3.40127 15.3946 4.35212C14.4277 5.48251 13.2582 6.1357 11.99 6.03263C11.9738 5.90063 11.9645 5.76171 11.9645 5.61573C11.9645 4.55949 12.4243 3.4291 13.2408 2.50486C13.6485 2.0369 14.167 1.6478 14.7957 1.3374C15.4231 1.03164 16.0166 0.862544 16.5747 0.833588C16.591 0.980674 16.5978 1.12777 16.5978 1.2737V1.27371Z" fill="black"/>
</g>
<defs>
<clipPath id="clip0_123_260">
<rect width="24" height="24" fill="white" transform="translate(0 0.833344)"/>
</clipPath>
</defs>
</svg>
