<svg width="25" height="24" viewBox="0 0 25 24" fill="none" xmlns="http://www.w3.org/2000/svg"><path d="M6.84436 11.2288C6.78221 10.8282 6.74996 10.4179 6.74996 10C6.74996 5.58172 10.3552 2 14.8026 2C19.2499 2 22.8552 5.58172 22.8552 10C22.8552 10.9981 22.6713 11.9535 22.3352 12.8345C22.2654 13.0175 22.2304 13.109 22.2146 13.1804C22.1989 13.2512 22.1928 13.301 22.1911 13.3735C22.1894 13.4466 22.1993 13.5272 22.2192 13.6883L22.6217 16.9585C22.6653 17.3125 22.6871 17.4895 22.6282 17.6182C22.5766 17.731 22.485 17.8205 22.3711 17.8695C22.2411 17.9254 22.0646 17.8995 21.7117 17.8478L18.5265 17.3809C18.3601 17.3565 18.277 17.3443 18.2012 17.3448C18.1263 17.3452 18.0745 17.3507 18.0011 17.3661C17.927 17.3817 17.8323 17.4172 17.643 17.4881C16.7597 17.819 15.8024 18 14.8026 18C14.3844 18 13.9737 17.9683 13.5727 17.9073M8.38158 22C11.3465 22 13.75 19.5376 13.75 16.5C13.75 13.4624 11.3465 11 8.38158 11C5.41668 11 3.01316 13.4624 3.01316 16.5C3.01316 17.1106 3.11028 17.6979 3.28955 18.2467C3.36533 18.4787 3.40322 18.5947 3.41566 18.6739C3.42864 18.7567 3.43091 18.8031 3.42608 18.8867C3.42145 18.9668 3.40141 19.0573 3.36134 19.2383L2.75 22L5.7448 21.591C5.90827 21.5687 5.99 21.5575 6.06137 21.558C6.13652 21.5585 6.17641 21.5626 6.25011 21.5773C6.3201 21.5912 6.42416 21.6279 6.63227 21.7014C7.18059 21.8949 7.76911 22 8.38158 22Z" stroke="currentColor" stroke-width="2" stroke-linecap="round" stroke-linejoin="round"></path></svg>