<svg width="24" height="25" viewBox="0 0 24 25" fill="none" xmlns="http://www.w3.org/2000/svg">
<g clip-path="url(#clip0_56_3169)">
<path d="M23.7663 12.6097C23.7663 11.794 23.7001 10.9739 23.559 10.1714H12.2402V14.7924H18.722C18.453 16.2827 17.5888 17.6011 16.3233 18.4389V21.4372H20.1903C22.4611 19.3472 23.7663 16.2607 23.7663 12.6097Z" fill="#4285F4"/>
<path d="M12.24 24.3341C15.4764 24.3341 18.2058 23.2714 20.1944 21.4371L16.3274 18.4388C15.2516 19.1707 13.8626 19.5852 12.2444 19.5852C9.11376 19.5852 6.45934 17.4732 5.50693 14.6335H1.51648V17.7245C3.55359 21.7767 7.70278 24.3341 12.24 24.3341Z" fill="#34A853"/>
<path d="M5.50277 14.6335C5.00011 13.1431 5.00011 11.5293 5.50277 10.0389V6.948H1.51674C-0.185266 10.3388 -0.185266 14.3336 1.51674 17.7244L5.50277 14.6335Z" fill="#FBBC04"/>
<path d="M12.24 5.08291C13.9508 5.05646 15.6043 5.70022 16.8433 6.88192L20.2694 3.45587C18.1 1.41876 15.2207 0.298786 12.24 0.334061C7.70277 0.334061 3.55359 2.89147 1.51648 6.94806L5.50252 10.039C6.45052 7.19498 9.10935 5.08291 12.24 5.08291Z" fill="#EA4335"/>
</g>
<defs>
<clipPath id="clip0_56_3169">
<rect width="24" height="24" fill="white" transform="translate(0 0.333252)"/>
</clipPath>
</defs>
</svg>
