<svg width="25" height="24" viewBox="0 0 25 24" fill="none" xmlns="http://www.w3.org/2000/svg"><path d="M3.5 11.2982C3.5 10.7239 3.5 10.4367 3.57403 10.1722C3.6396 9.93794 3.74737 9.7176 3.89203 9.52201C4.05534 9.30121 4.28202 9.1249 4.73539 8.77228L11.5177 3.49715C11.869 3.2239 12.0447 3.08727 12.2387 3.03476C12.4098 2.98841 12.5902 2.98841 12.7613 3.03476C12.9553 3.08727 13.131 3.2239 13.4823 3.49715L20.2646 8.77228C20.718 9.1249 20.9447 9.30121 21.108 9.52201C21.2526 9.7176 21.3604 9.93794 21.426 10.1722C21.5 10.4367 21.5 10.7239 21.5 11.2982V18.5331C21.5 19.6532 21.5 20.2133 21.282 20.6411C21.0903 21.0174 20.7843 21.3234 20.408 21.5152C19.9802 21.7331 19.4201 21.7331 18.3 21.7331H6.7C5.57989 21.7331 5.01984 21.7331 4.59202 21.5152C4.21569 21.3234 3.90973 21.0174 3.71799 20.6411C3.5 20.2133 3.5 19.6532 3.5 18.5331V11.2982Z" stroke="currentColor" stroke-width="2" stroke-linecap="round" stroke-linejoin="round"></path></svg>