<svg width="115" height="121" viewBox="0 0 115 121" fill="none" xmlns="http://www.w3.org/2000/svg">
<path d="M33.7978 103.103C33.8164 103.014 33.835 102.925 33.8535 102.837C33.8659 102.779 33.8783 102.725 33.8907 102.668C33.9092 102.579 33.9278 102.49 33.9464 102.401C33.9587 102.344 33.9711 102.287 33.9835 102.233C34.002 102.144 34.0206 102.055 34.0392 101.969C34.0515 101.912 34.0639 101.855 34.0763 101.8C34.0949 101.711 34.1134 101.626 34.132 101.537C34.1444 101.479 34.1567 101.422 34.1691 101.365C34.1877 101.276 34.2063 101.19 34.2248 101.102C34.2372 101.044 34.2496 100.987 34.265 100.933C34.2836 100.844 34.3022 100.755 34.3238 100.669C34.3362 100.612 34.3486 100.558 34.361 100.5C34.3733 100.44 34.3857 100.383 34.3981 100.323C34.4197 100.237 34.4383 100.154 34.46 100.068C34.4754 100.008 34.4878 99.9477 34.5033 99.8876C34.5188 99.8303 34.5311 99.773 34.5466 99.7187C34.5621 99.6585 34.5775 99.6013 34.5899 99.5411C34.6054 99.4839 34.6209 99.4266 34.6363 99.3693C34.6518 99.3092 34.6642 99.252 34.6797 99.1918C34.6951 99.1346 34.7137 99.0773 34.7292 99.02C34.7446 98.9599 34.7601 98.9026 34.7756 98.8425C34.791 98.7853 34.8096 98.728 34.8251 98.6736C34.8405 98.6135 34.8591 98.5562 34.8746 98.4961C34.8901 98.4388 34.9086 98.3844 34.9241 98.3271C34.9427 98.267 34.9612 98.2069 34.9798 98.1468C35.0231 98.0036 35.0664 97.8605 35.1097 97.7173C35.1283 97.6572 35.1438 97.597 35.1623 97.5398C35.1778 97.4854 35.1933 97.4281 35.2087 97.3737C35.2892 97.0817 35.3665 96.7896 35.447 96.4976C35.4594 96.4403 35.4748 96.3859 35.4872 96.3287C35.5367 96.1254 35.5831 95.9192 35.6326 95.716C35.645 95.6587 35.6574 95.6014 35.6698 95.5442C35.7255 95.255 35.7812 94.9658 35.8368 94.6738C35.843 94.6165 35.8492 94.5592 35.8554 94.4991C35.8771 94.3245 35.9018 94.1498 35.9235 93.9752C35.9297 93.9179 35.9359 93.8606 35.942 93.8034C35.9699 93.4569 35.9977 93.1105 36.0256 92.764C36.0287 92.6781 36.0349 92.5894 36.038 92.5035C36.0658 92.2143 36.0937 91.9251 36.1184 91.6359C36.1215 91.5787 36.1246 91.5186 36.1308 91.4613C36.1927 90.7713 36.2422 90.0784 36.3195 89.3912C36.3505 89.1164 36.2855 88.999 35.9668 88.9159C30.4748 87.4844 25.0756 85.8237 19.8991 83.5761C16.8576 82.2562 14.3328 80.3465 12.0803 78.0789C11.2944 77.2886 10.5456 76.4812 10.0289 75.5106C10.0011 75.4534 9.97014 75.399 9.94229 75.3417L9.9361 75.336C9.82162 75.21 9.70714 75.084 9.59575 74.9552C9.25231 74.0619 8.90577 73.1657 8.56232 72.2724C8.60873 72.112 8.72631 71.9403 8.69537 71.7942C8.40762 70.4113 8.09511 69.0341 7.79189 67.6541C7.75785 67.1903 7.72382 66.7264 7.68978 66.2626C7.6836 66.1509 7.6805 66.0393 7.67431 65.9276C7.64956 65.1717 7.6279 64.4187 7.60315 63.6629C7.62481 63.5512 7.66194 63.4424 7.66503 63.3307C7.70835 62.0165 7.71144 60.7023 7.79189 59.391C7.86305 58.2114 7.97754 57.0318 8.13843 55.8607C8.35502 54.2889 8.64277 52.7227 8.8872 51.1537C8.91505 50.9819 8.85317 50.7958 8.8346 50.6183C8.95527 49.9884 9.07904 49.3585 9.19971 48.7315C9.32347 48.2877 9.4658 47.8467 9.56481 47.4001C10.032 45.2871 10.6137 43.2027 11.4893 41.1956C12.5785 38.6961 14.37 36.7119 16.6813 35.1085C18.0303 34.1723 19.3484 33.1874 20.7562 32.3284C22.294 31.3922 23.9307 30.5962 25.5056 29.7115C30.4655 26.9142 35.9544 25.5313 41.5981 24.595C44.6241 24.094 47.6656 23.6244 50.7195 23.318C54.1539 22.9716 57.6101 22.8828 61.0631 23.172C64.8503 23.487 68.6003 24.0052 72.2978 24.8183C74.5317 25.3079 76.6326 26.1354 78.6933 27.0487C80.6952 27.9392 82.7032 28.8182 84.6525 29.8002C88.2974 31.6355 91.8339 33.6626 94.7393 36.437C97.0846 38.676 99.4362 40.9322 101.385 43.4976C102.827 45.3959 103.79 47.5203 104.647 49.682C105.108 50.8473 105.479 52.0441 105.887 53.2266C104.551 53.387 103.214 53.5502 101.874 53.7105C100.671 51.2425 99.5042 48.7601 98.248 46.315C97.8334 45.5075 97.1991 44.7946 96.6638 44.0387C95.6211 42.7102 94.662 41.313 93.5079 40.0733C92.3909 38.8736 91.1811 37.6997 89.8166 36.7577C88.4768 35.8329 86.9174 35.1658 85.4106 34.4701C83.0591 33.3878 80.6642 32.3914 78.3003 31.332C75.5961 30.118 72.8733 28.9842 69.8937 28.4288C66.6882 27.8304 63.4641 27.3465 60.2091 27.1489C58.0154 27.0172 55.8031 27.0831 53.6032 27.1404C52.2016 27.1776 50.7968 27.315 49.4076 27.5011C46.9973 27.8218 44.5901 28.1711 42.1952 28.5834C37.1828 29.4452 32.2786 30.6191 27.8541 33.1015C25.5304 34.4042 23.1448 35.621 20.8459 36.961C18.1448 38.5357 16.2419 40.7833 15.0723 43.5148C14.1936 45.5677 13.3984 47.6606 12.6991 49.7737C11.6224 53.0319 10.9788 56.3818 10.7901 59.7861C10.6818 61.7331 10.7344 63.6886 10.7777 65.6413C10.8365 68.4272 11.7121 71.024 13.0519 73.495C13.4789 74.2823 13.9832 75.0296 14.8279 75.5278C18.0705 77.4461 21.3286 79.3329 24.8621 80.7702C25.4438 81.0079 26.044 81.2083 26.6381 81.4259C26.7402 81.4889 26.8361 81.5691 26.9506 81.6092C31.1678 83.1066 35.4408 84.4494 39.7973 85.5575C42.6872 86.2933 45.6142 86.8688 48.5877 87.2238C51.1681 87.5302 53.7517 87.8108 56.3384 88.077C57.4832 88.1944 58.6373 88.2803 59.7883 88.3204C61.06 88.3634 62.31 88.4235 63.5445 87.868C64.5965 87.3927 65.7352 87.5445 66.7748 88.1314C67.013 88.266 67.3286 88.3376 67.6071 88.3376C68.3404 88.3433 69.0737 88.2975 69.807 88.266C72.4401 88.1515 75.0763 88.0484 77.7094 87.911C79.9093 87.7964 82.0163 87.2811 84.0615 86.5309C86.3883 85.6777 88.4737 84.4122 90.5406 83.1495C91.9855 82.2648 93.2108 81.0737 94.5258 80.0058C94.6279 79.9227 94.6496 79.7567 94.7115 79.6307C95.3117 80.1489 95.9058 80.6729 96.5122 81.1825C96.6669 81.3143 96.8588 81.4087 97.0351 81.5233C95.9955 83.078 94.7238 84.4551 93.2758 85.6978C93.1737 85.7836 93.0468 85.8466 92.9324 85.9211C92.8612 85.9755 92.79 86.027 92.7189 86.0814C92.5394 86.2017 92.3599 86.3219 92.1805 86.4422C92.1093 86.4908 92.0382 86.5395 91.967 86.5882C91.6638 86.7714 91.3636 86.9547 91.0604 87.1408C90.9862 87.1895 90.915 87.2381 90.8407 87.2839C90.8253 87.3068 90.8036 87.3154 90.7758 87.3126C90.7046 87.3612 90.6303 87.4099 90.5592 87.4557C90.5437 87.4786 90.522 87.4872 90.4942 87.4844C90.423 87.533 90.3488 87.5817 90.2776 87.6304C89.6928 87.9883 89.1111 88.3433 88.5263 88.7012C88.4521 88.747 88.3778 88.7957 88.3067 88.8415C88.2262 88.8816 88.1458 88.9217 88.0653 88.9646C87.9911 89.0104 87.9137 89.0562 87.8395 89.102C87.694 89.1708 87.5517 89.2395 87.4063 89.3111C87.1433 89.437 86.8803 89.563 86.6204 89.689C86.4193 89.7663 86.2181 89.8436 86.017 89.9209C85.8747 89.9868 85.7324 90.0555 85.59 90.1213C85.5158 90.1414 85.4384 90.1614 85.3642 90.1815C85.2837 90.2215 85.2033 90.2616 85.1228 90.3017C85.0486 90.3189 84.9712 90.3389 84.897 90.3561C84.8165 90.3962 84.7361 90.4363 84.6556 90.4735C84.5783 90.4907 84.504 90.5107 84.4267 90.5279C84.3462 90.5651 84.2658 90.6052 84.1853 90.6424C84.108 90.6625 84.0306 90.6796 83.9533 90.6997C83.6872 90.7913 83.418 90.8801 83.1519 90.9717C83.0869 90.9889 83.025 91.0061 82.96 91.0204C82.8053 91.0633 82.6506 91.1034 82.4959 91.1463C82.431 91.1607 82.3691 91.1778 82.3041 91.1922C82.2422 91.2065 82.1803 91.2237 82.1215 91.238C82.0566 91.2523 81.9947 91.2666 81.9297 91.2781C81.8678 91.2924 81.8059 91.3067 81.7441 91.321C81.6791 91.3325 81.6141 91.3468 81.5491 91.3582C81.4563 91.3783 81.3666 91.3954 81.2738 91.4155C81.2088 91.4269 81.1438 91.4384 81.0819 91.447C80.9891 91.4642 80.8994 91.4813 80.8066 91.4985C80.7416 91.51 80.6766 91.5186 80.6116 91.53C80.4879 91.55 80.3672 91.5701 80.2434 91.5873C80.1475 91.5987 80.0516 91.613 79.9588 91.6245C79.835 91.6417 79.7112 91.6589 79.5875 91.676C79.4916 91.6875 79.3956 91.6961 79.2997 91.7075C79.145 91.7247 78.9903 91.7419 78.8356 91.7619C78.7088 91.7734 78.5819 91.7848 78.455 91.7963C78.2694 91.8135 78.0837 91.8306 77.8981 91.845C77.7403 91.8564 77.5794 91.8679 77.4216 91.8793C77.2669 91.9051 77.1091 91.9337 76.9544 91.9595C76.9327 91.9967 76.9111 92.0339 76.8894 92.0712C76.8894 92.1284 76.8925 92.1885 76.8956 92.2458C76.9513 92.326 77.0101 92.4033 77.0658 92.4834C77.1215 92.5493 77.1803 92.6152 77.236 92.6839C77.369 92.8728 77.5021 93.0618 77.6351 93.2508C77.6846 93.3223 77.7341 93.3911 77.7836 93.4626C77.8919 93.6802 78.0002 93.895 78.1054 94.1126C78.1797 94.2729 78.257 94.4333 78.3313 94.5936C78.3715 94.711 78.4117 94.8284 78.4488 94.9458C78.4674 95.003 78.486 95.0603 78.5076 95.1147C78.5231 95.172 78.5355 95.2321 78.551 95.2893C78.5664 95.3466 78.585 95.4039 78.6005 95.4611C78.6128 95.5213 78.6252 95.5785 78.6376 95.6386C78.6562 95.7245 78.6716 95.8104 78.6902 95.8935C78.7057 96.0109 78.7211 96.1283 78.7366 96.2456C78.7552 96.4461 78.7706 96.6493 78.7892 96.8498C78.7892 97.053 78.7892 97.2563 78.7892 97.4568C78.7706 97.6572 78.7552 97.8605 78.7366 98.0609C78.7211 98.1783 78.7057 98.2957 78.6902 98.413C78.6747 98.4989 78.6562 98.5848 78.6407 98.6707C78.6221 98.7595 78.6036 98.8483 78.585 98.9342C78.5695 98.9914 78.5571 99.0458 78.5417 99.1031C78.4984 99.2491 78.455 99.398 78.4117 99.544C78.3437 99.7043 78.2725 99.8675 78.2013 100.028C78.1828 100.097 78.1611 100.168 78.1425 100.237C78.0992 100.311 78.0559 100.386 78.0126 100.46C77.5392 101.167 77.0627 101.877 76.5893 102.585C76.5274 102.648 76.4686 102.711 76.4067 102.774C76.2211 102.943 76.0385 103.114 75.8529 103.283C75.7848 103.341 75.7168 103.395 75.6487 103.452C74.9865 103.876 74.3151 104.291 73.6623 104.729C73.4209 104.892 73.1734 105.081 73.0156 105.313C71.6851 107.249 70.4104 109.236 68.7086 110.914C67.7247 111.884 66.5118 112.654 65.3855 113.496C64.5378 114.132 63.6683 114.739 62.8082 115.357C62.737 115.409 62.6689 115.463 62.5978 115.515C62.5452 115.549 62.4926 115.586 62.44 115.621C62.3688 115.672 62.2945 115.727 62.2234 115.778C62.1708 115.812 62.1151 115.847 62.0625 115.881C61.9913 115.93 61.9201 115.979 61.849 116.03C61.8366 116.053 61.8149 116.062 61.7871 116.059C61.7128 116.107 61.6417 116.159 61.5674 116.208C61.555 116.228 61.5334 116.236 61.5086 116.233C61.4344 116.282 61.3601 116.331 61.2859 116.382C61.2704 116.402 61.2518 116.411 61.224 116.408C61.1497 116.457 61.0755 116.503 61.0043 116.551C60.9238 116.591 60.8434 116.631 60.7629 116.671C60.6856 116.717 60.6113 116.766 60.534 116.812C60.3886 116.88 60.2462 116.949 60.1008 117.018C59.8378 117.144 59.5748 117.27 59.3118 117.399C59.1107 117.476 58.9096 117.553 58.7085 117.631C58.5043 117.725 58.2969 117.82 58.0927 117.914C58.0154 117.937 57.9411 117.957 57.8638 117.98C57.7214 118.046 57.5791 118.114 57.4337 118.18C57.3563 118.2 57.2821 118.22 57.2047 118.24C56.9665 118.338 56.7313 118.435 56.4931 118.535C56.4157 118.553 56.3415 118.573 56.2641 118.59C56.1837 118.627 56.1032 118.667 56.0228 118.704C55.9454 118.724 55.8712 118.742 55.7938 118.762C55.4627 118.89 55.1348 119.016 54.8037 119.145C54.7264 119.162 54.6521 119.18 54.5747 119.197C53.7826 119.426 52.9875 119.646 52.1985 119.884C51.8426 119.99 51.4961 120.13 51.1434 120.253C51.0784 120.27 51.0165 120.285 50.9515 120.302C50.2956 120.459 49.6396 120.62 48.9837 120.777C48.9187 120.789 48.8507 120.8 48.7857 120.812C48.665 120.832 48.5412 120.852 48.4206 120.872C48.3246 120.883 48.2287 120.895 48.1328 120.906C47.9472 120.923 47.7615 120.943 47.5759 120.96C47.1365 120.96 46.7002 120.96 46.2609 120.96C46.0752 120.943 45.8896 120.923 45.7039 120.906C45.5771 120.889 45.4502 120.875 45.3234 120.857C45.2305 120.843 45.1408 120.829 45.048 120.814C44.9521 120.8 44.8562 120.783 44.7602 120.769C44.6705 120.751 44.5777 120.737 44.488 120.72C44.423 120.708 44.358 120.697 44.293 120.683C44.2312 120.671 44.1693 120.657 44.1074 120.643C44.0424 120.631 43.9805 120.617 43.9156 120.605C43.7299 120.56 43.5443 120.514 43.3586 120.465C43.2008 120.422 43.043 120.376 42.8852 120.333C42.7119 120.27 42.5387 120.207 42.3654 120.144C42.2881 120.127 42.2107 120.107 42.1364 120.09C42.056 120.05 41.9756 120.013 41.8951 119.973C41.8208 119.953 41.7435 119.935 41.6692 119.915C41.5888 119.875 41.5083 119.838 41.431 119.798C41.2299 119.724 41.0288 119.649 40.8245 119.572C40.7441 119.532 40.6667 119.489 40.5863 119.449C40.1036 119.231 39.6178 119.014 39.1352 118.796C39.0609 118.753 38.9836 118.707 38.9093 118.664C38.671 118.538 38.4359 118.409 38.1976 118.283C38.1265 118.235 38.0522 118.189 37.9811 118.14C37.9532 118.14 37.9316 118.132 37.9161 118.112C37.8449 118.063 37.7738 118.014 37.7026 117.966C36.8888 117.487 36.1865 116.903 35.6543 116.153C35.6017 116.087 35.5491 116.024 35.4965 115.959C35.4717 115.944 35.4625 115.924 35.4656 115.898C35.416 115.833 35.3634 115.764 35.3139 115.698C35.2706 115.621 35.2273 115.546 35.1809 115.469C35.0448 115.226 34.9055 114.985 34.7694 114.742C34.7477 114.673 34.7261 114.601 34.7044 114.533C34.6642 114.458 34.6209 114.384 34.5806 114.309C34.4754 114.017 34.3733 113.728 34.2681 113.436C34.2217 113.293 34.1753 113.15 34.1289 113.007C34.1103 112.946 34.0949 112.889 34.0763 112.829C34.033 112.686 33.9897 112.543 33.9464 112.4C33.9309 112.339 33.9123 112.279 33.8968 112.219C33.8814 112.165 33.8659 112.108 33.8504 112.053C33.835 111.993 33.8195 111.933 33.804 111.873C33.7824 111.79 33.7607 111.704 33.739 111.621C33.7267 111.561 33.7143 111.503 33.7019 111.443C33.6834 111.357 33.6648 111.272 33.6462 111.186C33.6369 111.125 33.6246 111.065 33.6153 111.005C33.5998 110.919 33.5843 110.836 33.572 110.75C33.5534 110.633 33.5348 110.516 33.5163 110.398C33.5008 110.284 33.4853 110.169 33.4699 110.055C33.4544 109.909 33.4389 109.763 33.4234 109.617C33.408 109.388 33.3894 109.156 33.3739 108.927C33.3739 108.288 33.3739 107.652 33.377 107.014C33.3925 106.668 33.4111 106.324 33.4265 105.978C33.442 105.771 33.4575 105.568 33.473 105.362C33.4884 105.19 33.5039 105.018 33.5194 104.847C33.5317 104.729 33.5472 104.612 33.5596 104.494C33.5751 104.38 33.5936 104.265 33.6091 104.151C33.6277 104.033 33.6462 103.916 33.6679 103.799C33.6834 103.716 33.6988 103.63 33.7174 103.547C33.7298 103.487 33.7421 103.426 33.7545 103.366C33.7731 103.28 33.7886 103.197 33.8071 103.111L33.7978 103.103ZM44.1012 116.729C44.621 116.815 45.1346 116.946 45.6575 116.981C46.7683 117.052 47.8574 116.898 48.9497 116.674C50.1316 116.434 51.3538 116.377 52.5419 116.168C54.6923 115.784 56.7282 115.077 58.6744 114.149C60.2029 113.419 61.6417 112.569 62.9567 111.544C63.6993 110.965 64.4326 110.372 65.1659 109.78C65.6919 109.356 66.2055 108.918 66.7253 108.489C66.8645 108.397 67.0285 108.328 67.1337 108.214C67.7247 107.561 68.3033 106.899 68.8788 106.235C68.9995 106.098 69.0923 105.937 69.216 105.76C68.4549 105.68 67.7525 105.648 67.0718 105.522C63.922 104.941 61.719 103.323 60.7289 100.437C60.6299 100.151 60.4504 100.108 60.1905 100.062C59.1757 99.8933 58.1639 99.7215 57.1552 99.5325C55.3421 99.189 53.5227 96.97 54.878 95.2378C54.8872 95.2264 54.8811 95.2092 54.8842 95.1949C56.4126 93.2479 58.6311 93.2594 60.9084 93.4054C60.7846 92.9874 60.6361 92.5894 60.5587 92.1828C60.5123 91.9337 60.404 91.885 60.1627 91.8793C59.6336 91.8679 59.1045 91.8278 58.5754 91.7963C56.1806 91.6531 53.7826 91.5128 51.3878 91.3668C50.0171 91.2838 48.6341 91.2866 47.285 91.0862C44.5313 90.6797 41.7992 90.1586 39.0547 89.689C38.9124 89.6632 38.7639 89.6546 38.603 89.6346C38.736 90.7799 38.8598 91.865 38.9866 92.953C39.1166 94.9715 38.8845 96.9614 38.5411 98.9513C38.0151 101.989 37.3622 105.01 37.4117 108.116C37.4365 109.671 37.6717 111.166 38.1512 112.643C38.4452 113.545 38.9588 114.295 39.7849 114.859C41.0937 115.755 42.5356 116.377 44.1136 116.734L44.1012 116.729ZM68.6467 103.621C71.5614 103.406 73.8665 102.195 75.3362 99.7587C75.8776 98.8597 76.1685 97.8662 76.0633 96.8383C75.8065 94.3559 74.3306 92.6953 71.8336 91.8564C70.7755 91.5014 69.674 91.1778 68.4982 91.5186C68.0774 91.6417 67.6411 91.4498 67.4524 91.0948C66.9976 90.233 66.1591 89.878 65.2896 89.5401C64.3459 89.1736 63.5384 89.5687 62.8762 90.0898C62.276 90.5623 62.2388 91.2895 62.4895 91.9795C62.5885 92.2515 62.7432 92.5064 62.8855 92.7612C63.4486 93.7776 62.9103 94.6738 61.685 94.7597C61.0012 94.8083 60.305 94.8169 59.6336 94.9372C58.7796 95.0918 57.9318 95.2979 57.115 95.5699C56.6292 95.7331 56.2951 96.1741 56.3198 96.6579C56.3446 97.1704 56.7035 97.5684 57.2326 97.7774C57.4584 97.869 57.706 97.9406 57.9504 97.9635C58.9281 98.0552 59.9059 98.1353 60.8867 98.1983C61.5055 98.2384 61.9078 98.4875 62.0439 98.9141C62.18 99.3379 62.3007 99.7788 62.5266 100.162C63.8385 102.37 65.9363 103.412 68.6498 103.621H68.6467Z" fill="#4F96E5"/>
<path d="M101.874 53.7019C103.211 53.5416 104.548 53.3784 105.887 53.218C106.042 53.3211 106.194 53.4299 106.355 53.5215C106.416 53.5559 106.506 53.5645 106.584 53.5645C108.162 53.5845 109.21 54.4635 110.235 55.4313C111.71 56.8285 112.691 58.5006 113.403 60.3015C114.037 61.9077 114.477 63.5741 114.483 65.3063C114.489 66.695 114.576 68.0922 114.467 69.4751C114.378 70.6089 114.068 71.7313 113.83 72.8536C113.49 74.4513 112.796 75.9286 111.973 77.3545C111.516 78.1476 111.042 78.955 110.414 79.6307C109.953 80.126 109.275 80.5011 108.616 80.7703C107.193 81.3515 105.76 82.0186 104.254 82.3078C102.004 82.7372 99.7115 82.6857 97.589 81.6206C97.4312 81.5404 97.2208 81.5462 97.0351 81.5118C96.8588 81.4002 96.6669 81.3028 96.5122 81.1711C95.9058 80.6586 95.3086 80.1375 94.7115 79.6193C94.3402 79.0552 93.8234 78.5341 93.6223 77.9214C93.0345 76.1319 92.5301 74.3138 92.0846 72.49C91.8742 71.6253 91.8649 70.7206 91.7659 69.833C91.7721 69.6755 91.769 69.518 91.7813 69.3606C91.9422 67.3392 92.428 65.375 93.019 63.4281C93.0375 63.3909 93.0561 63.3536 93.0747 63.3136C93.0809 63.2849 93.087 63.2563 93.0932 63.2248C93.118 63.2076 93.152 63.1962 93.1613 63.1761C93.9503 61.5756 94.6496 59.9322 95.5407 58.3832C96.8402 56.1299 98.9256 54.6954 101.54 53.9052C101.661 53.868 101.76 53.7706 101.868 53.7019H101.874ZM103.217 79.7338C104.501 79.8655 105.544 79.2585 106.624 78.7918C107.171 78.5542 107.49 78.0903 107.83 77.638C108.394 76.8849 109.046 76.1892 109.603 75.4333C110.34 74.4312 110.934 73.3547 111.175 72.1464C111.398 71.0326 111.673 69.916 111.754 68.7908C111.868 67.2017 111.537 65.6384 111.098 64.1038C110.937 63.5426 110.73 62.9872 110.467 62.4603C110.219 61.9679 109.882 61.5126 109.566 61.0545C108.852 60.0152 108.18 58.9472 107.11 58.1685C106.376 57.633 105.476 57.3725 104.622 57.3066C103.533 57.2236 102.416 57.341 101.37 57.8564C100.47 58.3002 99.6249 58.7783 99.0679 59.5685C98.4337 60.4676 97.8087 61.3809 97.295 62.3429C96.7288 63.408 96.2183 64.5132 95.8315 65.6442C95.5004 66.6234 95.3365 67.6598 95.1787 68.682C95.0704 69.3892 95.0673 70.1136 95.0766 70.8294C95.0827 71.3304 95.1632 71.8315 95.256 72.3268C95.4045 73.1113 95.5035 73.9187 95.7882 74.6631C96.1626 75.6481 96.6174 76.6101 97.3693 77.4375C97.9324 78.056 98.3873 78.6945 99.3093 78.9894C100.587 79.3959 101.874 79.6737 103.211 79.7395L103.217 79.7338Z" fill="#362055"/>
<path d="M17.198 91.9967C17.0742 91.51 16.9474 91.1091 16.8731 90.6968C16.5327 88.8215 17.4238 87.3842 19.2896 86.6168C20.9233 85.944 22.4146 86.0184 23.7699 87.1494C23.9988 87.3412 24.2216 87.5645 24.3639 87.8136C24.5093 88.0742 24.6888 88.1801 24.9858 88.1543C25.3757 88.12 25.7625 88.0914 26.1523 88.0599C30.2211 87.7335 34.3362 90.3848 35.02 94.3331C35.6017 97.6944 34.3362 100.463 31.3999 102.467C28.2903 104.592 24.8435 104.838 21.31 103.487C19.1751 102.671 17.7859 101.133 17.0804 99.0916C16.9814 98.8082 16.8576 98.6879 16.5173 98.6393C15.4993 98.4961 14.4721 98.3529 13.4851 98.0867C12.8941 97.9263 12.2845 97.6257 11.8359 97.2334C9.85567 95.507 10.8241 93.56 12.5475 92.6123C13.8068 91.9194 15.2332 91.7992 16.6844 91.9423C16.836 91.9566 16.9845 91.9709 17.2011 91.9939L17.198 91.9967ZM25.5304 102.155C27.2693 102.081 29.1598 101.233 30.6759 99.6757C33.3801 96.8985 32.8572 92.9444 29.4878 91.029C28.0861 90.233 26.5484 89.7606 24.8466 90.107C24.3918 90.1986 23.9679 90.0269 23.7699 89.6489C23.315 88.7842 22.4703 88.4206 21.5885 88.1171C20.3168 87.6819 18.8843 88.475 18.7357 89.7119C18.6893 90.1042 18.8688 90.5251 18.9895 90.923C19.0544 91.1406 19.2277 91.3296 19.3236 91.5415C19.6825 92.3317 19.2401 93.1448 18.3459 93.2794C17.7147 93.3739 17.0649 93.3539 16.4368 93.4655C15.4591 93.6373 14.4814 93.8263 13.5346 94.1069C13.0178 94.2615 12.6249 94.711 12.662 95.2378C12.7022 95.7961 13.089 96.2199 13.7047 96.406C13.8223 96.4403 13.943 96.4862 14.0667 96.4976C15.0909 96.5892 16.115 96.6923 17.1392 96.7524C17.9406 96.7982 18.3026 97.0702 18.4078 97.8003C18.4201 97.8862 18.4449 97.9693 18.4789 98.0494C19.5557 100.497 22.1826 102.152 25.5273 102.152L25.5304 102.155Z" fill="#5298E6"/>
<path d="M105.94 23.5614C105.12 24.7009 104.019 25.5771 102.806 26.3301C99.2041 28.5662 95.2622 29.1703 91.0635 28.3028C85.7417 27.2005 81.7472 24.4576 79.3771 19.8651C78.8109 18.7685 78.5138 17.5516 78.1147 16.3835C78.0435 16.1744 78.0683 15.9397 78.0466 15.7163C78.1766 15.6619 78.3746 15.639 78.4272 15.5474C78.8171 14.8889 79.1512 14.2017 79.5596 13.5546C79.7144 13.3113 79.7824 12.9219 80.2373 12.9362C80.0578 14.2647 80.1073 15.5789 80.491 16.8759C81.5306 20.3862 83.8388 22.9687 87.2918 24.6523C89.8754 25.9092 92.6322 26.3301 95.5407 25.8892C99.4052 25.3022 102.422 23.5414 104.554 20.4921C104.693 20.452 104.832 20.4119 104.999 20.3632C105.136 20.6352 105.275 20.9101 105.361 21.0819C105.532 20.9874 105.649 20.9216 105.77 20.8557C105.838 20.9731 105.968 21.0876 105.968 21.205C105.968 21.6975 105.918 22.1899 105.906 22.6853C105.9 22.9773 105.928 23.2694 105.94 23.5614Z" fill="#F19745"/>
<path d="M84.0801 3.27017C84.4329 3.0583 84.7701 2.82065 85.1383 2.64027C87.9106 1.286 90.8624 0.567343 94.006 0.68187C97.3662 0.804986 100.389 1.85577 103.041 3.77122C105.504 5.55211 107.23 7.83119 108.276 10.5541C108.344 10.7287 108.375 10.9177 108.421 11.0981C107.793 11.2899 107.162 11.4731 106.54 11.6793C106.46 11.705 106.416 11.8368 106.358 11.9226C106.129 12.2576 105.9 12.5926 105.671 12.9305C105.615 12.8446 105.547 12.7644 105.504 12.6757C105.139 11.8682 104.842 11.0293 104.405 10.2592C103.05 7.86841 100.949 6.15337 98.3904 4.9308C95.9398 3.75977 93.3098 3.27303 90.5406 3.45627C89.0029 3.55935 87.5889 4.01173 86.2646 4.70748C85.5777 5.06824 84.9372 5.49771 84.2751 5.89569C84.3277 5.47767 84.3277 5.04247 84.4545 4.64449C84.5535 4.32668 84.5876 4.07472 84.371 3.79699C84.2472 3.63665 84.1761 3.44482 84.0801 3.26731V3.27017Z" fill="#FEC16C"/>
<path d="M9.19353 48.7257C9.07286 49.3556 8.94909 49.9855 8.82842 50.6126C8.66134 50.7357 8.50664 50.8817 8.32408 50.9791C7.34635 51.4916 6.43359 52.0842 5.69719 52.8745C5.25783 53.344 4.89582 53.8766 4.49977 54.3805C3.73243 55.1306 3.35495 56.0268 3.32401 57.0547C3.28069 57.0919 3.20334 57.1263 3.20025 57.1663C3.06411 58.3059 2.89702 59.4426 2.81967 60.585C2.75779 61.5183 2.8042 62.4603 2.8042 63.3994C2.78254 63.4538 2.73923 63.5083 2.74541 63.5626C2.84752 64.8139 3.08886 66.0421 3.57154 67.2189C3.95211 68.1408 4.44098 68.974 5.31661 69.6182C6.44596 70.4457 7.48249 71.3819 8.55924 72.2724C8.90268 73.1657 9.24922 74.0619 9.59267 74.9552C9.1564 74.8521 8.70156 74.7891 8.28695 74.6374C6.08395 73.8414 4.22749 72.5301 2.45766 71.1243C1.51396 70.377 1.0746 69.3147 0.746622 68.2296C0.332012 66.8639 0.211342 65.4695 0.273224 64.058C0.384612 61.5527 0.526941 59.0474 1.31284 56.6309C1.60059 55.7405 2.00902 54.8558 2.52883 54.0627C3.66127 52.3276 5.07837 50.7872 6.88223 49.6248C7.55365 49.1924 8.4231 49.0178 9.19972 48.7257H9.19353Z" fill="#372256"/>
<path d="M80.2341 12.9333C79.7793 12.919 79.7112 13.3084 79.5565 13.5518C79.1481 14.1989 78.8139 14.886 78.4241 15.5445C78.3684 15.6362 78.1735 15.6591 78.0435 15.7135C77.7155 14.0815 77.8548 12.4666 78.2756 10.8661C78.8294 8.76171 79.9 6.90925 81.4749 5.30588C81.5801 5.19994 81.7007 5.10832 81.8152 5.01097C81.8616 5.2343 81.9421 5.46049 81.9483 5.68381C81.9544 5.95295 81.9792 6.16769 82.3134 6.24499C82.4124 6.2679 82.5361 6.31371 82.5887 6.38529C82.7682 6.62866 82.9074 6.52558 83.1581 6.45114C83.4706 6.35666 83.6036 5.94723 84.0058 6.06748C83.5046 6.61434 82.9786 7.14403 82.5021 7.71093C81.215 9.24845 80.4909 11.0036 80.2372 12.9276L80.2341 12.9333Z" fill="#F8AC58"/>
<path d="M105.94 23.5614C105.928 23.2694 105.9 22.9773 105.906 22.6853C105.918 22.1928 105.968 21.6975 105.968 21.205C105.968 21.0905 105.838 20.9731 105.77 20.8557C105.649 20.9216 105.532 20.9874 105.361 21.0819C105.275 20.9101 105.136 20.6352 104.999 20.3632C104.832 20.4119 104.693 20.452 104.551 20.4921C104.798 20.0283 105.046 19.5644 105.296 19.1006C105.498 19.0891 105.711 19.4327 105.89 19.1006C106.085 18.7456 106.249 18.3733 106.423 18.0069C106.649 17.5259 106.843 17.0305 107.11 16.5696C107.196 16.4178 107.465 16.3548 107.651 16.2546C107.713 16.4178 107.784 16.5781 107.83 16.7442C107.979 17.2596 107.917 17.8866 108.681 18.0584C108.267 20.1056 107.388 21.9552 105.937 23.5614H105.94Z" fill="#F5A350"/>
<path d="M108.681 18.0584C107.917 17.8866 107.979 17.2567 107.83 16.7442C107.781 16.5782 107.71 16.4178 107.651 16.2546C107.465 16.3577 107.196 16.4207 107.11 16.5696C106.843 17.0305 106.649 17.5259 106.423 18.0069C106.249 18.3734 106.085 18.7427 105.89 19.1006C105.708 19.4299 105.494 19.0863 105.296 19.1006C105.816 17.6919 106.061 16.2489 105.959 14.76C106.054 14.7257 106.175 14.7114 106.24 14.6484C106.655 14.2275 106.757 14.2361 107.23 14.5453C107.366 14.6341 107.663 14.5997 107.83 14.5195C107.967 14.4537 108.016 14.2389 108.106 14.0872C108.291 13.7694 108.459 13.4258 108.951 13.4573C109.179 14.9376 109.046 16.4035 108.768 17.8637C108.756 17.9324 108.712 17.9954 108.684 18.0584H108.681Z" fill="#F8AC58"/>
<path d="M108.951 13.4544C108.459 13.4229 108.291 13.7665 108.106 14.0843C108.019 14.2332 107.967 14.4508 107.83 14.5167C107.663 14.5968 107.366 14.6283 107.23 14.5424C106.754 14.2332 106.655 14.2275 106.24 14.6455C106.178 14.7085 106.054 14.72 105.959 14.7572C105.863 14.1502 105.767 13.5403 105.671 12.9333C105.9 12.5984 106.129 12.2605 106.358 11.9255C106.416 11.8396 106.46 11.7108 106.54 11.6821C107.162 11.476 107.793 11.2928 108.421 11.1009C108.598 11.8854 108.771 12.6699 108.947 13.4544H108.951Z" fill="#FCBD6A"/>
<path d="M84.0028 6.07322C83.6005 5.95296 83.4706 6.3624 83.155 6.45688C82.9044 6.53132 82.7651 6.6344 82.5857 6.39103C82.5331 6.31945 82.4124 6.27364 82.3103 6.25073C81.9761 6.17343 81.9514 5.95869 81.9452 5.68955C81.9421 5.46336 81.8585 5.24004 81.8121 5.01671C82.5671 4.43549 83.3252 3.85426 84.0801 3.27304C84.176 3.45056 84.2472 3.64525 84.371 3.80273C84.5844 4.08045 84.5535 4.33241 84.4545 4.65022C84.3307 5.05107 84.3307 5.4834 84.275 5.90143C84.1822 5.95869 84.0925 6.01595 83.9997 6.07608L84.0028 6.07322Z" fill="#FAB460"/>
<path d="M51.1434 120.239C51.4961 120.116 51.8395 119.978 52.1985 119.87C52.9875 119.632 53.7826 119.411 54.5747 119.182C54.3674 119.274 54.1694 119.389 53.9528 119.452C53.0184 119.721 52.0809 119.976 51.1434 120.236V120.239Z" fill="#579BE6"/>
<path d="M86.6204 89.6775C86.8834 89.5516 87.1464 89.4256 87.4063 89.2996C87.1433 89.4256 86.8803 89.5516 86.6204 89.6775Z" fill="#579BE6"/>
<path d="M59.3087 117.387C59.5717 117.261 59.8347 117.135 60.0977 117.006C59.8347 117.132 59.5717 117.258 59.3087 117.387Z" fill="#579BE6"/>
<path d="M83.1488 90.9631C83.4149 90.8715 83.681 90.7827 83.9502 90.6911C83.6841 90.7827 83.418 90.8715 83.1488 90.9631Z" fill="#579BE6"/>
<path d="M56.4931 118.521C56.7313 118.424 56.9665 118.326 57.2048 118.226C56.9665 118.323 56.7313 118.421 56.4931 118.521Z" fill="#579BE6"/>
<path d="M77.895 91.8394C78.0807 91.8222 78.2663 91.8049 78.452 91.7906C78.2663 91.8078 78.0807 91.825 77.895 91.8394Z" fill="#579BE6"/>
<path d="M78.8325 91.7564C78.9872 91.7391 79.1419 91.7219 79.2966 91.7018C79.1419 91.719 78.9872 91.7363 78.8325 91.7564Z" fill="#579BE6"/>
<path d="M57.4306 118.166C57.5729 118.1 57.7153 118.031 57.8607 117.966C57.7184 118.031 57.576 118.1 57.4306 118.166Z" fill="#579BE6"/>
<path d="M80.2404 91.5817C80.3641 91.5616 80.4848 91.5415 80.6086 91.5243C80.4848 91.5444 80.3641 91.5645 80.2404 91.5817Z" fill="#579BE6"/>
<path d="M33.5658 110.739C33.5813 110.825 33.5967 110.908 33.6091 110.994C33.5936 110.908 33.5782 110.825 33.5658 110.739Z" fill="#579BE6"/>
<path d="M33.7081 103.538C33.6927 103.621 33.6772 103.707 33.6586 103.79C33.6741 103.707 33.6896 103.621 33.7081 103.538Z" fill="#579BE6"/>
<path d="M78.684 95.8878C78.6654 95.8019 78.65 95.716 78.6314 95.6329C78.65 95.7188 78.6654 95.8047 78.684 95.8878Z" fill="#579BE6"/>
<path d="M34.5435 99.7129C34.528 99.7702 34.5157 99.8275 34.5002 99.8819C34.5157 99.8246 34.528 99.7673 34.5435 99.7129Z" fill="#579BE6"/>
<path d="M88.3129 88.83C88.3871 88.7842 88.4614 88.7356 88.5325 88.6898C88.4583 88.7356 88.384 88.7842 88.3129 88.83Z" fill="#579BE6"/>
<path d="M34.262 100.93C34.2496 100.987 34.2341 101.044 34.2217 101.099C34.2341 101.041 34.2465 100.984 34.262 100.93Z" fill="#579BE6"/>
<path d="M34.0732 101.797C34.0608 101.855 34.0484 101.912 34.0361 101.966C34.0484 101.909 34.0608 101.852 34.0732 101.797Z" fill="#579BE6"/>
<path d="M33.9804 102.233C33.968 102.29 33.9557 102.347 33.9433 102.401C33.9557 102.344 33.968 102.287 33.9804 102.233Z" fill="#579BE6"/>
<path d="M90.5654 87.4414C90.6365 87.3927 90.7108 87.3441 90.782 87.2982C90.7108 87.3469 90.6365 87.3956 90.5654 87.4414Z" fill="#579BE6"/>
<path d="M90.8469 87.2696C90.9212 87.2209 90.9923 87.1723 91.0666 87.1265C90.9923 87.1751 90.9212 87.2238 90.8469 87.2696Z" fill="#579BE6"/>
<path d="M34.8251 98.6707C34.8096 98.728 34.791 98.7853 34.7756 98.8397C34.791 98.7824 34.8096 98.7251 34.8251 98.6707Z" fill="#579BE6"/>
<path d="M77.2297 92.6753C77.1741 92.6094 77.1153 92.5436 77.0596 92.4749C77.1153 92.5407 77.1741 92.6066 77.2297 92.6753Z" fill="#579BE6"/>
<path d="M84.6494 90.4653C84.7299 90.4251 84.8103 90.3849 84.8908 90.3475C84.8103 90.3877 84.7299 90.428 84.6494 90.4653Z" fill="#579BE6"/>
<path d="M61.8428 116.022C61.914 115.973 61.9852 115.924 62.0563 115.873C61.9852 115.921 61.914 115.97 61.8428 116.022Z" fill="#579BE6"/>
<path d="M61.2797 116.371C61.3539 116.322 61.4282 116.273 61.5024 116.222C61.4282 116.271 61.3539 116.319 61.2797 116.371Z" fill="#579BE6"/>
<path d="M60.9981 116.54C61.0724 116.491 61.1466 116.445 61.2178 116.397C61.1435 116.445 61.0693 116.491 60.9981 116.54Z" fill="#579BE6"/>
<path d="M78.5015 95.1061C78.4829 95.0488 78.4643 94.9916 78.4427 94.9372C78.4613 94.9944 78.4798 95.0517 78.5015 95.1061Z" fill="#579BE6"/>
<path d="M35.8525 94.4991C35.8463 94.5565 35.84 94.6138 35.8337 94.6741C35.84 94.6167 35.8463 94.5593 35.8525 94.4991Z" fill="#579BE6"/>
<path d="M38.9031 118.658C38.9774 118.704 39.0547 118.747 39.129 118.79C39.0547 118.744 38.9774 118.701 38.9031 118.658Z" fill="#579BE6"/>
<path d="M76.8895 92.2404C76.8895 92.183 76.8864 92.1228 76.8832 92.0654C76.8832 92.1228 76.8864 92.183 76.8895 92.2404Z" fill="#579BE6"/>
<path d="M41.4248 119.789C41.5053 119.83 41.5857 119.867 41.6631 119.907C41.5826 119.867 41.5022 119.83 41.4248 119.789Z" fill="#579BE6"/>
<path d="M82.1154 91.2324C82.1772 91.218 82.2391 91.2008 82.2979 91.1864C82.236 91.2008 82.1741 91.218 82.1154 91.2324Z" fill="#579BE6"/>
<path d="M9.93347 75.3331L9.93984 75.336L9.91754 75.339L9.93347 75.3331Z" fill="#579BE6"/>
<path d="M10.026 75.5049V75.5078H10.0104L10.026 75.5049Z" fill="#579BE6"/>
<path d="M26.6412 81.4145C27.0712 81.0652 27.6096 80.9936 28.0737 81.194C30.7532 82.3364 33.6307 82.7773 36.4897 83.2727C38.8226 83.6764 41.1834 83.9655 43.5381 84.2433C45.4162 84.4666 47.3067 84.6212 49.1941 84.7644C50.7752 84.8846 52.3624 84.9791 53.9466 85.0249C56.8303 85.1079 59.7171 85.1738 62.6039 85.1852C64.2531 85.1938 65.9084 85.1194 67.5545 85.0106C69.4295 84.8846 71.2922 84.6098 73.1703 84.5239C76.6233 84.3692 79.9309 83.6019 83.2137 82.6828C85.2002 82.1274 86.7101 81.0193 87.8394 79.4303C88.9471 77.8699 90.061 76.3037 90.6025 74.4885C91.0449 73.0082 91.3358 71.4879 91.6947 69.9847C91.7071 69.9303 91.7411 69.8816 91.7659 69.8301C91.8649 70.7177 91.8711 71.6253 92.0845 72.4871C92.5301 74.311 93.0344 76.1291 93.6223 77.9185C93.8234 78.5313 94.3401 79.0524 94.7114 79.6164C94.6526 79.7424 94.6279 79.9084 94.5258 79.9915C93.2108 81.0566 91.9886 82.2505 90.5406 83.1352C88.4768 84.3979 86.3914 85.6634 84.0615 86.5166C82.0163 87.2668 79.9092 87.7821 77.7093 87.8967C75.0763 88.0341 72.4401 88.1372 69.807 88.2517C69.0737 88.2832 68.3404 88.329 67.6071 88.3233C67.3255 88.3233 67.013 88.2488 66.7748 88.1171C65.7352 87.5302 64.5965 87.3784 63.5445 87.8537C62.31 88.4092 61.06 88.349 59.7883 88.3061C58.6373 88.2689 57.4832 88.183 56.3384 88.0627C53.7517 87.7965 51.1681 87.5159 48.5876 87.2095C45.6142 86.8545 42.6872 86.279 39.7973 85.5431C35.4408 84.4351 31.1678 83.0894 26.9506 81.5948C26.8392 81.5548 26.7433 81.4746 26.6381 81.4116L26.6412 81.4145Z" fill="#C1DEFE"/>
<path d="M44.1012 116.729C44.6674 115.904 45.1377 115.005 45.8184 114.272C47.3778 112.6 49.0549 111.022 51.1062 109.837C53.7641 108.3 56.6045 107.177 59.7048 106.673C61.2518 106.421 62.8051 106.384 64.3088 106.914C65.2525 107.246 66.1096 107.713 66.7284 108.483C66.2086 108.912 65.6949 109.35 65.169 109.774C64.4356 110.367 63.7054 110.959 62.9598 111.538C61.6448 112.563 60.2029 113.413 58.6775 114.143C56.7313 115.074 54.6985 115.781 52.545 116.162C51.3569 116.374 50.1316 116.431 48.9527 116.669C47.8605 116.892 46.7714 117.047 45.6606 116.975C45.1377 116.941 44.6241 116.812 44.1043 116.723L44.1012 116.729Z" fill="#C1DEFE"/>
<path d="M93.0964 63.2248C93.2016 62.4832 93.313 61.7445 93.412 61.003C93.5326 60.0896 93.6564 59.1791 93.7523 58.2629C93.8854 57.0031 94.0401 55.7462 94.1081 54.4836C94.1793 53.1178 94.1577 51.7492 93.9163 50.3864C93.6812 49.055 93.4739 47.7122 93.3996 46.3694C93.3192 44.8977 94.7239 43.8383 96.3112 44.0445C96.4256 44.0588 96.5463 44.033 96.667 44.0273C97.2023 44.7832 97.8365 45.4961 98.2512 46.3035C99.5043 48.7486 100.674 51.231 101.877 53.6991C101.769 53.7678 101.67 53.8651 101.549 53.9023C98.9349 54.6926 96.8495 56.127 95.55 58.3803C94.6558 59.9293 93.9565 61.5728 93.1706 63.1733C93.1613 63.1962 93.1242 63.2076 93.1026 63.2219L93.0964 63.2248Z" fill="#C1DEFE"/>
<path d="M54.878 95.192C52.941 95.0775 51.0041 94.9773 49.0672 94.8456C46.6012 94.6795 44.1724 94.2815 41.7806 93.7089C40.97 93.5142 40.181 93.2393 39.3796 93.0074C39.2496 92.9702 39.1104 92.9645 38.9743 92.9416C38.8505 91.8564 38.7236 90.7684 38.5937 89.6232C38.7577 89.6432 38.9031 89.6518 39.0454 89.6776C41.7868 90.15 44.522 90.6682 47.2757 91.0748C48.6248 91.2752 50.0109 91.2723 51.3785 91.3554C53.7734 91.5014 56.1713 91.6445 58.5661 91.7848C59.0952 91.8163 59.6243 91.8564 60.1534 91.8679C60.3947 91.8736 60.503 91.9223 60.5494 92.1714C60.6268 92.5808 60.7753 92.9759 60.8991 93.3939C58.6218 93.2479 56.4034 93.2393 54.8749 95.1834L54.878 95.192Z" fill="#C1DEFE"/>
<path d="M2.80418 63.3994C2.80418 62.4603 2.75777 61.5212 2.81965 60.585C2.89701 59.4426 3.06409 58.3059 3.20023 57.1663C3.20642 57.1263 3.28068 57.0919 3.32399 57.0547C3.45085 57.3954 3.55605 57.7447 3.71076 58.074C3.81596 58.303 3.99541 58.4576 4.30173 58.2773C5.23924 57.7275 5.83641 56.9631 5.99111 55.9409C6.14582 54.9102 5.61672 54.3719 4.49975 54.3805C4.8958 53.8766 5.25781 53.344 5.69717 52.8745C6.43357 52.0842 7.34633 51.4916 8.32407 50.9791C8.50971 50.8817 8.66132 50.7357 8.8284 50.6126C8.84697 50.7901 8.90885 50.9762 8.881 51.148C8.63657 52.717 8.34882 54.2831 8.13223 55.855C7.97134 57.0261 7.85686 58.2057 7.78569 59.3853C7.70524 60.6966 7.70215 62.0137 7.65883 63.325C7.65574 63.4367 7.61861 63.5483 7.59695 63.6571C6.9936 63.2105 6.3129 63.2649 5.61982 63.3937C5.59507 63.3422 5.58578 63.2735 5.54556 63.2448C4.8927 62.8154 3.88712 62.8068 3.20951 63.2334C3.08884 63.3078 2.94032 63.3422 2.80418 63.3937V63.3994Z" fill="#4E3A6A"/>
<path d="M2.80423 63.3994C2.94037 63.3479 3.09198 63.3135 3.20955 63.2391C3.88716 62.8096 4.89275 62.8182 5.5456 63.2506C5.58892 63.2792 5.5982 63.3479 5.61986 63.3994C5.27023 63.7001 4.78445 63.9406 4.6019 64.3099C4.11922 65.2891 4.08209 66.337 4.68854 67.2933C5.37852 68.3813 6.9658 68.5904 7.78574 67.657C8.08896 69.037 8.40146 70.4142 8.68921 71.7971C8.72016 71.9431 8.60258 72.1149 8.55617 72.2752C7.47942 71.3848 6.44289 70.4485 5.31355 69.6211C4.43482 68.9769 3.94595 68.1437 3.56847 67.2218C3.08579 66.045 2.84445 64.8196 2.74234 63.5655C2.73925 63.514 2.78257 63.4567 2.80113 63.4023L2.80423 63.3994Z" fill="#48306B"/>
<path d="M7.78572 67.6541C6.96578 68.5875 5.37851 68.3785 4.68852 67.2905C4.08208 66.337 4.11921 65.2863 4.60189 64.3071C4.78444 63.9377 5.27331 63.6972 5.61985 63.3966C6.31293 63.2677 6.99363 63.2133 7.59698 63.66C7.62173 64.4159 7.64339 65.1689 7.66814 65.9247C7.67433 66.0364 7.67743 66.1481 7.68362 66.2597C7.71765 66.7236 7.75169 67.1874 7.78572 67.6512V67.6541Z" fill="#371A62"/>
<path d="M103.217 79.7338C101.877 79.6679 100.593 79.3931 99.3155 78.9836C98.3966 78.6916 97.9387 78.0502 97.3755 77.4318C96.6237 76.6072 96.1719 75.6423 95.7944 74.6574C95.5098 73.913 95.4108 73.1056 95.2622 72.3211C95.1694 71.8257 95.089 71.3247 95.0828 70.8236C95.0735 70.1078 95.0735 69.3835 95.1849 68.6763C95.3427 67.6541 95.5036 66.6205 95.8378 65.6384C96.2214 64.5075 96.735 63.4052 97.3013 62.3372C97.8118 61.3752 98.4399 60.4618 99.0742 59.5628C99.6311 58.7697 100.476 58.2944 101.376 57.8506C102.422 57.3353 103.539 57.2179 104.628 57.3009C105.482 57.3668 106.382 57.6273 107.116 58.1627C108.186 58.9444 108.861 60.0123 109.572 61.0488C109.888 61.5098 110.225 61.9621 110.473 62.4546C110.736 62.9814 110.943 63.5369 111.104 64.0981C111.54 65.6327 111.874 67.1989 111.76 68.7851C111.68 69.9103 111.404 71.0269 111.181 72.1407C110.94 73.3489 110.346 74.4255 109.61 75.4276C109.053 76.1835 108.397 76.8792 107.837 77.6322C107.499 78.0846 107.178 78.5513 106.63 78.7861C105.55 79.2528 104.504 79.8598 103.223 79.7281L103.217 79.7338ZM97.9789 73.3031C97.9789 73.432 97.9943 73.5665 97.9696 73.6925C97.7344 74.8006 98.0098 75.7998 98.6936 76.7246C98.839 76.9222 98.9721 77.1598 98.9999 77.3889C99.1237 78.4253 100.231 79.2241 101.457 79.0495C102.007 78.9722 102.564 78.8891 103.121 78.8662C104.696 78.8033 106.24 77.6809 106.695 76.2951C106.856 75.8084 107.141 75.3531 107.385 74.8922C107.577 74.5314 107.911 74.205 107.985 73.8299C108.307 72.2151 108.158 70.669 106.958 69.3376C106.184 68.4787 105.253 67.8975 103.994 67.9204C103.112 67.9376 102.326 68.2267 101.599 68.6848C101.392 68.8165 101.129 68.8709 100.89 68.9597C100.785 68.8767 100.674 68.7965 100.572 68.7077C99.9374 68.1637 98.5946 68.1666 97.9386 68.6877C97.0661 69.3777 96.7722 70.3226 96.6886 71.3018C96.6113 72.1922 97.1527 72.8536 97.9789 73.3031ZM108.4 64.7165C108.378 64.5705 108.366 64.2928 108.298 64.0265C107.886 62.4832 107.032 61.2378 105.343 60.6966C103.746 60.187 102.317 61.212 102.49 62.6808C102.558 63.2735 102.939 63.7144 103.4 64.1038C104.517 65.0486 105.631 65.9963 106.748 66.9412C107.103 67.2447 107.339 67.2332 107.657 66.8925C108.208 66.3027 108.391 65.5984 108.4 64.7136V64.7165Z" fill="#4E3A6A"/>
<path d="M93.0221 63.4256C93.0407 63.3882 93.0592 63.3509 93.0778 63.3107C93.0592 63.348 93.0407 63.3854 93.0221 63.4256Z" fill="#C1DEFE"/>
<path d="M84.0027 6.07321C84.0956 6.01595 84.1853 5.95868 84.2781 5.89856C84.9403 5.50058 85.5807 5.06824 86.2676 4.71035C87.5919 4.0146 89.0059 3.56222 90.5437 3.45914C93.3098 3.27304 95.9429 3.76264 98.3934 4.93367C100.952 6.15338 103.053 7.86841 104.408 10.262C104.845 11.0322 105.142 11.874 105.507 12.6785C105.547 12.7701 105.618 12.8503 105.674 12.9333C105.77 13.5403 105.866 14.1502 105.962 14.7572C106.064 16.246 105.819 17.6891 105.299 19.0977C105.052 19.5616 104.804 20.0254 104.554 20.4892C102.425 23.5385 99.4052 25.2993 95.5407 25.8863C92.6322 26.3272 89.8753 25.9063 87.2918 24.6494C83.8387 22.9687 81.5306 20.3862 80.4909 16.8731C80.1073 15.576 80.0578 14.2619 80.2372 12.9333C80.4909 11.0064 81.2119 9.25418 82.5021 7.71667C82.9786 7.14976 83.5015 6.62008 84.0058 6.07321H84.0027ZM92.4435 18.0584C91.9329 18.2016 91.4224 18.3562 90.9088 18.4879C89.931 18.7398 88.8543 18.7742 88.1581 19.6188C88.087 19.7047 87.9508 19.7419 87.8394 19.7964C86.9762 20.2144 86.543 21.1048 86.7689 21.9867C87.0257 22.9916 87.7342 23.6673 88.746 23.9451C89.9465 24.2715 91.1873 24.5292 92.4311 24.638C94.5846 24.8269 96.6391 24.4204 98.5388 23.4068C101.057 22.0611 102.784 20.1772 103.294 17.4715C103.508 16.3548 103.233 15.3155 102.28 14.5596C101.107 13.6291 99.7177 13.4401 98.2913 13.9412C97.5518 14.2017 96.8897 14.6541 96.1935 15.0206C95.5345 14.7973 94.8507 14.7343 94.1823 14.9118C92.7003 15.3069 92.0103 16.5867 92.4435 18.0613V18.0584ZM96.0821 10.7459C96.0883 10.7316 96.0976 10.7144 96.1038 10.7001C96.3204 10.6772 96.5431 10.68 96.7504 10.6256C97.5828 10.4023 98.0685 9.86404 98.2109 9.09098C98.3563 8.30361 98.0005 7.63077 97.3352 7.2013C95.8501 6.24214 94.17 5.76972 92.3568 5.83557C91.5059 5.86706 90.6551 6.01308 89.8197 6.17056C88.2664 6.4626 86.8277 6.9837 85.7107 8.08888C84.7237 9.06522 84.8846 10.5856 86.0727 11.2298C86.9731 11.7165 87.8611 11.5533 88.6408 10.9835C89.2998 10.5025 90.0362 10.2448 90.8376 10.0788C92.2331 9.79246 93.579 9.78101 94.8816 10.4395C95.2374 10.6199 95.6799 10.6485 96.0821 10.7488V10.7459ZM85.7231 18.1873C86.1841 18.1271 86.6544 18.1071 87.103 18.0011C88.0158 17.7864 88.7522 16.9876 88.7584 16.0628C88.7646 15.0807 88.3407 14.216 87.3908 13.6864C85.4601 12.6127 83.3963 14.2905 83.2509 15.9425C83.158 16.9962 84.21 18.319 85.7231 18.1873Z" fill="#FEE262"/>
<path d="M4.49979 54.3833C5.61677 54.3748 6.14586 54.913 5.99115 55.9438C5.83645 56.9659 5.23929 57.7304 4.30177 58.2801C3.99546 58.4605 3.816 58.3059 3.7108 58.0768C3.55609 57.7476 3.45089 57.3982 3.32404 57.0575C3.35807 56.0297 3.73246 55.1335 4.49979 54.3833Z" fill="#BA95EC"/>
<path d="M55.571 83.5046C50.7009 83.4301 45.7844 83.0465 40.9576 82.1073C37.2199 81.3801 33.4575 80.6242 29.9921 79.0151C29.364 78.7231 28.6895 78.5227 28.0366 78.2822C24.6455 77.0195 21.8205 75.0869 19.7011 72.3067C19.1349 71.5623 18.4387 70.8952 17.9498 70.1136C16.3347 67.5453 15.6261 64.7537 15.8551 61.7818C16.1583 57.8478 16.6379 53.9338 18.0179 50.1774C19.008 47.486 20.323 44.9349 22.0464 42.5613C23.1417 41.0553 24.3546 39.681 25.9295 38.5959C27.3837 37.5966 29.005 36.9553 30.7873 36.626C33.5008 36.1221 36.1988 35.5437 38.9186 35.077C40.3914 34.8251 41.9013 34.7707 43.3834 34.5731C49.1724 33.8087 54.946 34.0348 60.7382 34.5989C64.9616 35.0112 69.0675 35.8587 73.1332 36.9209C74.3461 37.2387 75.5249 37.6854 76.7038 38.1063C77.7248 38.4699 78.718 38.8965 79.736 39.2716C83.1147 40.5228 85.9366 42.4354 88.0622 45.1926C88.7584 46.0974 89.5845 46.942 90.1229 47.9212C90.7572 49.0722 91.178 50.3262 91.6266 51.5574C92.1372 52.9546 92.0691 54.4234 92.1217 55.875C92.1928 57.842 92.394 59.809 91.9794 61.7646C91.8339 62.446 91.6947 63.1332 91.4472 63.786C90.4632 66.3771 89.4917 68.9769 88.4026 71.5308C88.0034 72.4699 87.3568 73.3375 86.7101 74.1621C85.9428 75.1441 85.0764 76.0632 84.2193 76.9823C82.1432 79.2127 79.5565 80.5784 76.3882 81.0795C73.6777 81.5061 71.0199 82.2648 68.3002 82.5941C64.1046 83.1009 59.8997 83.6678 55.5741 83.5132L55.571 83.5046ZM28.8998 39.8557C28.8287 39.8557 28.7575 39.8557 28.6864 39.8557C27.6096 40.4312 26.505 40.9666 25.4716 41.6022C25.0106 41.8856 24.6702 42.3581 24.3299 42.7818C23.9586 43.2371 23.6399 43.7324 23.3181 44.2191C23.2222 44.3651 23.1912 44.5484 23.1417 44.7202C23.0737 44.9578 23.0922 45.3243 22.9344 45.4073C22.5384 45.6192 22.4455 45.9485 22.2785 46.2777C21.1491 48.4709 20.1838 50.7185 19.6423 53.1035C19.3143 54.5523 19.0358 56.0096 18.7636 57.467C18.5563 58.5693 18.3304 59.6745 18.2345 60.7882C18.1262 62.0223 18.0426 63.2763 18.1478 64.5075C18.2592 65.7959 18.6707 67.0557 19.2493 68.2439C19.568 68.8996 19.8836 69.5953 20.388 70.125C21.5297 71.3247 22.7519 72.4614 24.0081 73.5608C24.6702 74.1392 25.419 74.6717 26.2142 75.0726C27.5663 75.754 28.9772 76.3495 30.3912 76.9222C31.6319 77.4232 32.8912 77.8928 34.1753 78.285C35.5924 78.7202 37.0435 79.0667 38.4885 79.4217C39.7199 79.7223 40.9576 80.023 42.2076 80.2377C43.7175 80.4982 45.2429 80.6901 46.7652 80.8733C48.5969 81.0909 50.4317 81.2999 52.2696 81.4517C53.3556 81.5433 54.451 81.5433 55.5432 81.5433C56.7282 81.5433 57.9164 81.5233 59.0983 81.4603C60.7413 81.3715 62.3873 81.2627 64.0241 81.1081C65.4907 80.9707 66.9573 80.8103 68.4085 80.5698C71.4469 80.0716 74.4265 79.3272 77.3226 78.3537C78.7304 77.8785 80.0485 77.1541 81.3573 76.4641C82.0101 76.1205 82.6847 75.6853 83.1117 75.1327C83.9254 74.0819 84.6463 72.9567 85.262 71.7971C86.2088 70.0133 87.1711 68.221 87.6693 66.2683C88.1241 64.4789 88.5882 62.6865 88.9595 60.8799C89.2782 59.3137 89.5412 57.7332 89.6928 56.1499C89.798 55.0505 89.764 53.9195 89.6278 52.8201C89.5164 51.9153 89.1761 51.0306 88.9069 50.1459C88.4799 48.7286 87.6971 47.4917 86.574 46.4524C85.7664 45.708 84.9341 44.9864 84.1141 44.2563C83.0157 43.28 81.7936 42.4554 80.4167 41.8541C79.0924 41.2729 77.7558 40.7089 76.3944 40.2136C74.8442 39.6495 73.2755 39.1256 71.6882 38.6617C70.2866 38.2523 68.8571 37.9001 67.4214 37.6052C65.893 37.2903 64.3428 37.0555 62.7989 36.8207C62.0656 36.709 61.3168 36.6861 60.5742 36.606C59.0952 36.4485 57.6193 36.2023 56.1342 36.1393C53.8105 36.0391 51.4806 36.0534 49.1539 36.0391C48.3927 36.0333 47.6254 36.0677 46.8673 36.1364C45.5864 36.2538 44.3085 36.4055 43.0306 36.5544C41.8765 36.689 40.7162 36.8035 39.5714 36.9868C38.3461 37.1843 37.1271 37.4105 35.9235 37.6968C34.4507 38.0433 32.9964 38.4642 31.5329 38.8536C31.468 38.8994 31.4061 38.9423 31.3411 38.9881H31.3473C30.5304 39.2487 29.7136 39.5092 28.8968 39.7755C28.8875 39.7755 28.8968 39.827 28.8998 39.8557Z" fill="#372256"/>
<path d="M52.7028 101.242C52.6007 103.813 51.4899 106.338 49.0549 108.262C48.3958 108.783 47.5666 109.19 46.7436 109.448C44.9459 110.009 43.1977 109.29 42.3004 107.738C41.5764 106.484 41.4124 105.13 41.5331 103.736C41.7373 101.391 42.6067 99.2863 44.259 97.4854C44.9675 96.7152 45.7968 96.0767 46.9045 95.8563C47.3005 95.7761 47.6656 95.7074 47.9998 95.4497C48.1854 95.3065 48.5412 95.2607 48.795 95.3065C50.2832 95.5728 51.4033 96.3 52.019 97.6257C52.5017 98.665 52.7028 99.7559 52.7059 101.242H52.7028ZM47.2943 106.831C47.3655 106.785 47.449 106.748 47.5109 106.69C48.4298 105.86 48.9713 104.815 49.454 103.739C49.6304 103.203 49.8408 102.676 49.9769 102.135C50.2275 101.124 50.3606 100.102 50.0821 99.0716C49.8439 98.6335 49.6335 98.1811 49.355 97.766C49.2374 97.5885 48.993 97.451 48.7733 97.3709C48.4391 97.2477 48.0802 97.1933 47.6563 97.0903C46.0381 97.9836 44.85 99.3636 44.0733 101.021C43.5133 102.218 43.0585 103.475 43.3493 104.832C43.4483 105.353 43.4762 105.895 43.6587 106.387C43.8846 106.988 44.2528 107.561 45.017 107.69C45.9577 107.85 46.7064 107.512 47.2912 106.831H47.2943Z" fill="#372256"/>
<path d="M71.2984 101.714C70.0391 101.731 69.182 101.219 68.7086 100.234C68.2352 99.2491 68.523 98.3272 69.2315 97.5312C70.1752 96.4718 71.4902 96.2571 72.8454 96.4489C74.2533 96.6493 75.0701 98.1955 74.575 99.5011C74.1264 100.678 72.5236 101.797 71.3015 101.711L71.2984 101.714Z" fill="#C2DFFE"/>
<path d="M100.89 68.9597C101.129 68.8709 101.392 68.8165 101.599 68.6848C102.326 68.2267 103.112 67.9376 103.994 67.9204C105.253 67.8975 106.184 68.4787 106.958 69.3376C108.158 70.669 108.307 72.2151 107.985 73.8299C107.911 74.205 107.577 74.5314 107.385 74.8922C107.137 75.3531 106.856 75.8084 106.695 76.2951C106.24 77.6809 104.696 78.8004 103.121 78.8662C102.564 78.8891 102.01 78.9722 101.457 79.0495C100.231 79.2241 99.1237 78.4253 98.9999 77.3889C98.972 77.1598 98.839 76.9222 98.6936 76.7246C98.0098 75.7998 97.7344 74.8006 97.9696 73.6925C97.9974 73.5665 97.9788 73.432 97.9788 73.3031C100.03 74.2766 102.038 72.4671 101.794 70.9611C101.682 70.2682 101.203 69.624 100.89 68.9597Z" fill="#48306B"/>
<path d="M108.4 64.7165C108.39 65.6012 108.208 66.3056 107.657 66.8954C107.339 67.2361 107.106 67.2447 106.748 66.944C105.631 65.9992 104.517 65.0515 103.4 64.1066C102.939 63.7173 102.561 63.2763 102.49 62.6837C102.317 61.2149 103.746 60.187 105.343 60.6995C107.032 61.2406 107.886 62.4861 108.298 64.0293C108.369 64.2928 108.378 64.5705 108.4 64.7194V64.7165Z" fill="#BA95EC"/>
<path d="M100.89 68.9597C101.203 69.6268 101.682 70.2682 101.794 70.9611C102.038 72.4699 100.03 74.2795 97.9788 73.3031C97.1527 72.8536 96.6143 72.1894 96.6886 71.3018C96.7721 70.3226 97.0661 69.3777 97.9386 68.6877C98.5976 68.1666 99.9374 68.1638 100.572 68.7078C100.674 68.7965 100.785 68.8767 100.89 68.9597Z" fill="#371A62"/>
<path d="M25.5675 101.333C23.9988 101.419 22.6993 99.8389 23.3026 98.3615C23.7791 97.1905 24.63 96.3287 25.9202 95.862C27.3188 95.3552 28.6647 96.4117 28.9958 97.4281C29.4723 98.8883 28.1758 100.649 26.6938 101.096C26.3287 101.205 25.9419 101.256 25.5675 101.333Z" fill="#C2DFFE"/>
<path d="M96.1967 15.0177C96.8928 14.6512 97.555 14.2017 98.2945 13.9383C99.7209 13.4344 101.11 13.6234 102.283 14.5568C103.236 15.3126 103.511 16.352 103.298 17.4686C102.784 20.1743 101.061 22.0611 98.542 23.4039C96.6422 24.4175 94.5877 24.8212 92.4343 24.6351C91.1904 24.5263 89.9497 24.2715 88.7492 23.9422C87.7374 23.6645 87.0258 22.9888 86.772 21.9838C86.5462 21.0991 86.9793 20.2115 87.8426 19.7935C87.954 19.7391 88.0901 19.7019 88.1613 19.616C88.8575 18.7713 89.9342 18.737 90.9119 18.485C91.4256 18.3533 91.9361 18.1987 92.4466 18.0555C92.9664 19.0806 93.9689 19.5845 95.1509 19.4556C96.1967 19.3411 97.2611 18.5079 97.49 17.5459C97.7375 16.5066 97.2518 15.556 96.1967 15.0149V15.0177Z" fill="#FEC23C"/>
<path d="M96.0822 10.7459C95.6799 10.6485 95.2375 10.617 94.8817 10.4367C93.579 9.77814 92.23 9.78959 90.8377 10.0759C90.0363 10.2391 89.2999 10.4997 88.6409 10.9807C87.858 11.5504 86.9731 11.7136 86.0727 11.2269C84.8815 10.5855 84.7237 9.06235 85.7107 8.08601C86.8277 6.98083 88.2696 6.45973 89.8197 6.16769C90.6551 6.01022 91.506 5.86133 92.3569 5.8327C94.17 5.76685 95.8532 6.24213 97.3353 7.19843C98.0036 7.6279 98.3594 8.30075 98.2109 9.08812C98.0686 9.86117 97.5828 10.3994 96.7505 10.6228C96.5432 10.6772 96.3204 10.6743 96.1038 10.6972C96.0976 10.7115 96.0884 10.7287 96.0822 10.743V10.7459Z" fill="#FEF7D2"/>
<path d="M85.7231 18.1873C84.2132 18.3218 83.1581 16.9962 83.2509 15.9425C83.3963 14.2905 85.4601 12.6127 87.3908 13.6864C88.3376 14.2132 88.7615 15.0807 88.7584 16.0628C88.7522 16.9876 88.0158 17.7864 87.1031 18.0011C86.6544 18.1071 86.1841 18.1271 85.7231 18.1873Z" fill="#FEC23C"/>
<path d="M96.1966 15.0177C97.2517 15.5589 97.7375 16.5094 97.49 17.5488C97.261 18.5079 96.1966 19.3411 95.1508 19.4585C93.9689 19.5902 92.9664 19.0834 92.4466 18.0584C92.0134 16.5867 92.7065 15.304 94.1855 14.9089C94.8569 14.7314 95.5376 14.7915 96.1966 15.0177Z" fill="#F78A22"/>
<path d="M31.5267 38.8564C32.9903 38.467 34.4445 38.049 35.9173 37.6997C37.1209 37.4163 38.3431 37.1872 39.5652 36.9896C40.71 36.8064 41.8703 36.6919 43.0244 36.5573C44.3023 36.4084 45.5802 36.2567 46.8611 36.1393C47.6192 36.0706 48.3865 36.0362 49.1477 36.0419C51.4744 36.0563 53.8043 36.0419 56.128 36.1421C57.6131 36.2051 59.0859 36.4542 60.568 36.6088C61.3075 36.6861 62.0563 36.7119 62.7927 36.8236C64.3397 37.0584 65.8868 37.2931 67.4153 37.6081C68.8509 37.903 70.2804 38.2552 71.682 38.6646C73.2693 39.1284 74.8411 39.6524 76.3882 40.2164C77.7496 40.7118 79.0893 41.2758 80.4105 41.857C81.7843 42.4611 83.0065 43.2829 84.108 44.2592C84.931 44.9893 85.7633 45.7108 86.5678 46.4553C87.694 47.4946 88.4737 48.7315 88.9007 50.1487C89.1668 51.0335 89.5072 51.9182 89.6217 52.8229C89.7578 53.9224 89.7918 55.0505 89.6866 56.1528C89.535 57.739 89.272 59.3194 88.9533 60.8827C88.5851 62.6894 88.121 64.4817 87.6631 66.2712C87.1649 68.2239 86.2027 70.0162 85.2559 71.8C84.6402 72.9595 83.9192 74.0876 83.1055 75.1355C82.6785 75.6881 82.004 76.1233 81.3511 76.4669C80.0423 77.1569 78.7242 77.8813 77.3164 78.3566C74.4203 79.3329 71.4407 80.0745 68.4023 80.5727C66.9512 80.8103 65.4845 80.9707 64.0179 81.111C62.3812 81.2656 60.7351 81.3744 59.0921 81.4631C57.9102 81.5261 56.722 81.5462 55.537 81.5462C54.4448 81.5462 53.3495 81.5462 52.2634 81.4545C50.4255 81.2999 48.5907 81.0938 46.759 80.8762C45.2367 80.693 43.7113 80.5011 42.2014 80.2406C40.9514 80.0258 39.7137 79.7252 38.4823 79.4246C37.0373 79.0724 35.5893 78.7231 34.1691 78.2879C32.8851 77.8956 31.6227 77.4261 30.385 76.925C28.971 76.3524 27.5632 75.7569 26.208 75.0754C25.4097 74.6717 24.6609 74.142 24.0019 73.5637C22.7457 72.4642 21.5235 71.3247 20.3818 70.1279C19.8805 69.6011 19.5649 68.9025 19.2431 68.2468C18.6646 67.0586 18.253 65.7988 18.1416 64.5104C18.0364 63.2792 18.1169 62.028 18.2283 60.7911C18.3273 59.6773 18.5532 58.5722 18.7574 57.4698C19.0297 56.0125 19.3081 54.5523 19.6361 53.1064C20.1776 50.7214 21.1429 48.4738 22.2723 46.2806C22.4425 45.9513 22.5322 45.6192 22.9282 45.4102C23.086 45.3243 23.0675 44.9578 23.1355 44.723C23.185 44.5541 23.216 44.368 23.3119 44.222C23.6337 43.7324 23.9524 43.2399 24.3237 42.7847C24.6671 42.3609 25.0075 41.8914 25.4654 41.6051C26.4988 40.9666 27.6034 40.434 28.6802 39.8585C28.7513 39.8585 28.8225 39.8585 28.8937 39.8585L28.8875 39.8614C29.7043 39.5694 30.5181 39.2802 31.3349 38.9881L31.3287 38.991C31.3937 38.9452 31.4556 38.9022 31.5206 38.8564H31.5267ZM46.4218 75.4849C46.9292 76.3953 47.6965 77.051 48.7021 77.4719C49.0734 77.615 49.4292 77.8069 49.816 77.8985C51.985 78.4167 54.1818 78.2249 56.3136 77.8269C59.1045 77.303 60.1596 75.734 60.8403 73.0512L60.896 72.8708L60.9579 72.6074C61.029 71.8544 61.1033 71.1014 61.1745 70.3512C61.1837 70.0019 61.193 69.6555 61.2023 69.3062C61.1435 68.4128 61.1095 67.5167 61.0105 66.6291C60.9826 66.3829 60.8063 66.1137 60.6144 65.9305C60.0853 65.4323 59.5005 65.6642 58.922 65.8847C54.1818 67.7028 49.2869 68.8309 44.1167 68.7221C43.9155 68.7192 43.7113 68.7421 43.5133 68.7765C43.1204 68.8509 42.845 69.0657 42.8326 69.4465C42.8202 69.8072 43.0616 70.0534 43.4391 70.125C43.9743 70.2252 44.5158 70.2911 45.0542 70.3569C45.3698 70.397 45.6854 70.4113 46.0381 70.4428C45.639 71.3705 45.6668 72.2896 45.7411 73.1943C45.7906 73.8156 46.0288 74.4255 46.1804 75.0411L46.4249 75.4877L46.4218 75.4849ZM67.3317 62.0108C67.0564 63.4853 67.0811 64.937 67.3596 66.3886C67.604 67.6627 68.3466 68.6505 69.5688 69.1974C71.4685 70.042 73.5014 70.4772 75.6239 70.168C77.8981 69.8358 79.4328 68.7335 79.9742 66.5375C80.3177 65.1403 80.3919 63.7402 80.3981 62.2943C80.5126 62.2943 80.6209 62.2943 80.7261 62.2943C81.2583 62.2828 81.7905 62.2943 82.3196 62.2571C82.9044 62.2198 83.3004 61.8619 83.3282 61.3981C83.353 60.9658 83.0034 60.5706 82.4557 60.459C82.2298 60.4132 81.9916 60.4132 81.7595 60.4246C81.3078 60.4447 80.8561 60.5306 80.4043 60.5162C78.2013 60.4361 75.9983 60.3158 73.7953 60.2385C71.8893 60.1698 69.9803 60.1211 68.0743 60.1068C67.57 60.104 67.044 60.2042 66.5706 60.3674C66.3385 60.4475 66.1374 60.7682 66.06 61.0144C65.961 61.3437 66.2179 61.5899 66.5335 61.736C66.7686 61.8448 67.0254 61.9106 67.3286 62.0137L67.3317 62.0108ZM37.2199 60.4819C37.8387 60.522 38.4452 60.6193 39.0361 60.5764C39.3208 60.5535 39.6704 60.3158 39.8344 60.081C40.0417 59.7833 39.8685 59.4626 39.6055 59.182C39.1011 58.6437 38.3833 58.681 37.749 58.6294C36.2081 58.5006 34.6611 58.4634 33.114 58.4147C30.3788 58.3259 27.6467 58.2458 24.9115 58.1885C24.466 58.1799 24.0081 58.2658 23.5749 58.3689C23.1758 58.4634 22.8756 58.6981 22.8725 59.1333C22.8725 59.5456 23.1603 59.7546 23.5254 59.8949C23.7234 59.9722 23.9307 60.0238 24.1287 60.0868C24.0761 60.6422 24.0019 61.1719 23.9833 61.7045C23.9648 62.2513 23.9709 62.8039 24.0266 63.3508C24.1195 64.2584 24.2525 65.1546 24.7971 65.962C25.2488 66.6291 25.9202 67.0929 26.6319 67.385C28.4945 68.1466 30.4655 68.576 32.52 68.2525C34.7725 67.8975 36.2762 66.7837 36.8053 64.6106C37.1425 63.2248 37.2168 61.8419 37.223 60.4876L37.2199 60.4819ZM27.1115 43.8097C27.1146 44.9779 27.8386 45.7166 28.8473 45.6536C29.4815 45.6135 30.1406 45.436 30.713 45.1726C31.6598 44.7345 32.619 44.3709 33.6555 44.1962C37.4117 43.5692 41.2082 43.2915 45.0109 43.0653C46.5177 42.9765 48.0338 42.819 49.5035 42.5213C50.6174 42.2951 51.6817 41.8255 52.743 41.4132C53.1576 41.2529 53.1545 40.9551 52.7925 40.7175C52.3717 40.4426 51.9478 40.1678 51.493 39.9444C49.7603 39.0941 47.8543 39.0225 45.9669 39.0397C44.1414 39.0568 42.3128 39.1742 40.4966 39.346C37.9656 39.5865 35.4408 39.8843 32.9253 40.2307C31.4061 40.4398 29.9333 40.8692 28.6461 41.6852C27.7612 42.2464 27.1517 42.9937 27.1084 43.8097H27.1115ZM66.1931 79.3215C66.5489 79.2843 66.9047 79.2471 67.2575 79.2098C68.3992 79.0896 69.5502 79.0294 70.6765 78.8348C73.5014 78.3423 76.2644 77.6408 78.7644 76.2722C79.34 75.9573 79.9155 75.5536 80.3146 75.0668C81.1562 74.0361 80.7075 72.5215 79.2626 72.2123C78.3993 72.0262 77.6227 72.3096 76.843 72.6589C75.6982 73.1743 74.5472 73.7183 73.3343 74.0619C71.7656 74.5056 70.1443 74.7977 68.5291 75.0897C67.7247 75.2358 66.8924 75.2272 66.0724 75.2959C65.4784 75.3474 64.8595 75.336 64.3026 75.4992C63.5322 75.7254 63.0835 76.318 62.9876 77.0481C62.8948 77.7668 63.2166 78.3595 63.8632 78.8033C64.5687 79.2871 65.401 79.1927 66.1931 79.3186V79.3215ZM38.572 51.6462C38.3988 51.2825 38.2812 50.8817 38.0398 50.5639C36.4897 48.511 32.6685 48.0701 30.614 49.7078C30.3293 49.934 30.1035 50.2518 29.9271 50.5639C29.7229 50.9275 29.8188 51.3083 30.122 51.609C30.4191 51.9067 30.8089 51.9382 31.205 51.8294C31.5175 51.7435 31.8238 51.6261 32.1301 51.5202C33.1914 51.1566 34.1846 51.2596 35.1097 51.8752C35.3758 52.0527 35.6512 52.2245 35.9389 52.362C36.2824 52.528 36.6351 52.7084 37.0064 52.7914C37.8789 52.9861 38.4823 52.5108 38.5689 51.6462H38.572ZM72.4927 52.7886C72.4184 52.7972 72.2359 52.7857 72.0812 52.8401C70.531 53.4013 68.9685 53.9396 67.4462 54.5637C67.0966 54.7069 66.8336 55.1278 66.6417 55.4714C66.4035 55.8951 66.6727 56.3045 67.1925 56.3475C67.6195 56.3818 68.0743 56.399 68.4858 56.3045C69.5595 56.0612 70.63 55.7834 71.6789 55.457C72.2637 55.2738 72.833 55.0133 73.3498 54.7012C73.8603 54.3919 73.981 53.9023 73.7953 53.4442C73.6189 53.0148 73.1951 52.7828 72.4958 52.7886H72.4927ZM61.7562 41.0754C61.7562 40.2995 61.094 39.6982 60.2308 39.6925C59.3799 39.6867 58.6837 40.3023 58.6775 41.0639C58.6713 41.8112 59.3768 42.444 60.2215 42.4497C61.0724 42.4583 61.7561 41.8456 61.7592 41.0725L61.7562 41.0754Z" fill="#4E3A6A"/>
<path d="M31.3411 38.9881C30.5243 39.2802 29.7105 39.5694 28.8937 39.8614C28.8937 39.8328 28.8813 39.7841 28.8906 39.7812C29.7074 39.515 30.5243 39.2515 31.3411 38.9881Z" fill="#BA95EC"/>
<path d="M43.3524 104.835C43.0647 103.481 43.5164 102.221 44.0765 101.024C44.85 99.3665 46.0412 97.9864 47.6594 97.0931C48.0833 97.1962 48.4453 97.2506 48.7764 97.3737C48.9961 97.4539 49.2374 97.5913 49.3581 97.7689C49.6366 98.184 49.847 98.6364 50.0852 99.0745C50.0759 99.1747 50.0605 99.272 50.0636 99.3722C50.1162 100.784 49.7603 102.127 49.2684 103.449C49.1632 103.395 49.0611 103.343 48.9559 103.289C48.6526 103.137 48.3494 102.986 48.0462 102.834C47.8265 102.656 47.6038 102.476 47.3841 102.298C47.5914 101.946 47.8698 101.617 47.9905 101.242C48.2628 100.392 47.7059 99.4553 46.855 99.2205C46.0319 98.9914 45.1594 99.4123 44.8283 100.22C44.4725 101.093 44.6396 101.86 45.4224 102.484C45.3451 102.573 45.2832 102.682 45.1842 102.745C44.5004 103.166 44.0703 103.764 43.7423 104.446C43.668 104.6 43.4855 104.709 43.3555 104.838L43.3524 104.835Z" fill="#4E3A6A"/>
<path d="M48.0462 102.834C48.3494 102.986 48.6526 103.137 48.9559 103.289C49.0611 103.341 49.1632 103.395 49.2684 103.449C49.3303 103.547 49.3921 103.644 49.4571 103.741C48.9713 104.818 48.433 105.863 47.514 106.693C47.4521 106.751 47.3717 106.788 47.2974 106.834C46.4032 106.756 45.7906 106.324 45.4843 105.554C45.1532 104.723 45.4286 104.025 46.0722 103.395C46.6291 102.851 47.3191 102.805 48.0493 102.837L48.0462 102.834Z" fill="#371A62"/>
<path d="M48.0462 102.834C47.316 102.805 46.626 102.848 46.069 103.392C45.4255 104.022 45.1501 104.721 45.4812 105.551C45.7875 106.321 46.4032 106.753 47.2943 106.831C46.7095 107.512 45.9577 107.85 45.0201 107.69C44.2559 107.561 43.8877 106.988 43.6618 106.387C43.4762 105.895 43.4483 105.353 43.3524 104.832C43.4855 104.703 43.6649 104.592 43.7392 104.44C44.0672 103.759 44.4972 103.163 45.181 102.739C45.28 102.679 45.3419 102.567 45.4193 102.479C46.1155 102.788 46.7652 102.688 47.384 102.293C47.6037 102.47 47.8265 102.651 48.0462 102.828V102.834Z" fill="#48306B"/>
<path d="M49.454 103.741C49.3921 103.644 49.3302 103.547 49.2653 103.449C49.7572 102.129 50.113 100.784 50.0604 99.3722C50.0574 99.272 50.0759 99.1747 50.0821 99.0744C50.3606 100.105 50.2275 101.127 49.9769 102.138C49.8408 102.682 49.6304 103.209 49.454 103.741Z" fill="#BA95EC"/>
<path d="M67.3318 62.0108C67.0316 61.9077 66.7717 61.839 66.5366 61.7331C66.2241 61.5899 65.9642 61.3408 66.0632 61.0116C66.1374 60.7625 66.3416 60.4447 66.5737 60.3645C67.044 60.1984 67.5731 60.0982 68.0774 60.1039C69.9834 60.1183 71.8925 60.1698 73.7984 60.2356C76.0014 60.313 78.2044 60.4332 80.4074 60.5134C80.8561 60.5306 81.3078 60.4447 81.7627 60.4218C81.9947 60.4103 82.2361 60.4103 82.4588 60.4561C83.0065 60.5649 83.3561 60.9629 83.3314 61.3952C83.3035 61.8591 82.9075 62.2141 82.3227 62.2542C81.7936 62.2885 81.2614 62.2799 80.7292 62.2914C80.624 62.2914 80.5157 62.2914 80.4013 62.2914C80.3951 63.7402 80.3239 65.1374 79.9774 66.5346C79.4359 68.7307 77.9012 69.8358 75.6271 70.1651C73.5045 70.4743 71.4717 70.0391 69.5719 69.1945C68.3497 68.6505 67.6071 67.6627 67.3627 66.3857C67.0842 64.9341 67.0564 63.4825 67.3349 62.0079L67.3318 62.0108Z" fill="#FDE162"/>
<path d="M37.2199 60.4819C37.2168 61.8361 37.1426 63.2191 36.8022 64.6048C36.2731 66.778 34.7694 67.8917 32.5169 68.2468C30.4624 68.5703 28.4915 68.1437 26.6288 67.3792C25.9172 67.0872 25.2457 66.6234 24.794 65.9562C24.2494 65.1488 24.1164 64.2527 24.0236 63.345C23.9679 62.801 23.9617 62.2484 23.9803 61.6987C23.9988 61.1662 24.0731 60.6365 24.1257 60.081C23.9277 60.018 23.7203 59.9665 23.5223 59.8892C23.1572 59.746 22.8664 59.5399 22.8695 59.1276C22.8695 58.6924 23.1727 58.4576 23.5718 58.3631C24.0081 58.2601 24.4629 58.1742 24.9085 58.1828C27.6437 58.24 30.3789 58.3202 33.111 58.4089C34.658 58.4576 36.2082 58.4977 37.7459 58.6237C38.3802 58.6752 39.095 58.6409 39.6024 59.1763C39.8654 59.4569 40.0387 59.7775 39.8314 60.0753C39.6674 60.3101 39.3208 60.5477 39.0331 60.5706C38.4421 60.6164 37.8357 60.5162 37.2168 60.4761L37.2199 60.4819Z" fill="#FDE162"/>
<path d="M27.1115 43.8097C27.1548 42.9937 27.7644 42.2464 28.6493 41.6852C29.9395 40.8692 31.4092 40.4397 32.9284 40.2307C35.4439 39.8843 37.9687 39.5865 40.4997 39.346C42.3159 39.1714 44.1445 39.0568 45.9701 39.0397C47.8575 39.0225 49.7634 39.0941 51.4961 39.9444C51.951 40.1677 52.3749 40.4426 52.7957 40.7175C53.1577 40.9551 53.1608 41.2529 52.7462 41.4132C51.6849 41.8255 50.6205 42.2951 49.5066 42.5213C48.0338 42.819 46.5177 42.9765 45.014 43.0653C41.2082 43.2915 37.4149 43.5692 33.6586 44.1962C32.619 44.3709 31.6598 44.7345 30.7161 45.1726C30.1468 45.436 29.4847 45.6135 28.8504 45.6536C27.8448 45.7166 27.1177 44.9779 27.1146 43.8097H27.1115Z" fill="#BA95EC"/>
<path d="M66.1931 79.3215C65.401 79.1955 64.5687 79.29 63.8632 78.8061C63.2166 78.3623 62.8917 77.7668 62.9876 77.051C63.0835 76.3209 63.5322 75.7282 64.3026 75.502C64.8595 75.3388 65.4784 75.3531 66.0724 75.2987C66.8924 75.2272 67.7278 75.2358 68.5292 75.0926C70.1412 74.8006 71.7656 74.5085 73.3343 74.0647C74.5441 73.7211 75.6951 73.1771 76.843 72.6618C77.6227 72.3096 78.3994 72.029 79.2626 72.2151C80.7076 72.5243 81.1562 74.039 80.3146 75.0697C79.9155 75.5564 79.34 75.9601 78.7645 76.2751C76.2644 77.6437 73.5045 78.3452 70.6765 78.8376C69.5502 79.0323 68.3992 79.0924 67.2575 79.2127C66.9017 79.2499 66.5489 79.2871 66.1931 79.3243V79.3215Z" fill="#48306B"/>
<path d="M46.1774 75.0382C46.0227 74.4226 45.7875 73.8128 45.738 73.1915C45.6637 72.2896 45.6359 71.3676 46.035 70.44C45.6854 70.4113 45.3667 70.3942 45.0511 70.3541C44.5096 70.2854 43.9682 70.2195 43.436 70.1222C43.0585 70.0506 42.8203 69.8043 42.8295 69.4436C42.8419 69.0628 43.1173 68.848 43.5102 68.7736C43.7083 68.7364 43.9125 68.7135 44.1136 68.7192C49.2838 68.828 54.1787 67.6999 58.9189 65.8818C59.4944 65.6614 60.0823 65.4294 60.6114 65.9276C60.8032 66.108 60.9796 66.38 61.0074 66.6262C61.1064 67.5138 61.1405 68.41 61.1992 69.3033C61.0012 69.3462 60.8249 69.3119 60.5928 69.4436C60.0668 69.7471 59.4263 69.8845 58.8353 70.0878C58.8694 69.4035 58.9003 68.7192 58.9375 67.9404C58.2939 68.1638 57.7555 68.3728 57.2017 68.5388C56.8644 68.639 56.8427 68.808 56.8984 69.0886C57.0377 69.7958 57.1398 70.5058 57.2574 71.2159C56.6262 71.3619 55.995 71.5079 55.3638 71.6539C55.2895 70.8294 55.2121 70.0048 55.1348 69.1372C54.6521 69.2403 54.1014 69.3749 53.5413 69.4751C53.2319 69.5295 53.1824 69.6383 53.2474 69.9189C53.4145 70.6662 53.5351 71.422 53.6744 72.175C53.1391 72.3211 52.6038 72.4671 52.0685 72.6131C51.9448 71.6969 51.8241 70.7778 51.7003 69.853C51.0289 69.9532 50.4008 70.0449 49.7665 70.1393C49.9491 71.0355 50.1285 71.9088 50.308 72.7792C50.1409 72.8307 49.9645 72.8708 49.8037 72.9395C49.5561 73.0483 49.3179 73.18 49.0765 73.3003C48.8259 72.2953 48.5753 71.2903 48.3185 70.2567C47.9255 70.2939 47.5295 70.334 47.1551 70.3713C47.4924 71.6568 47.8203 72.9137 48.1483 74.1678C47.4924 74.457 46.8364 74.7462 46.1774 75.0353V75.0382Z" fill="#FCBD6A"/>
<path d="M60.8403 73.0483C60.1596 75.7311 59.1045 77.3001 56.3136 77.8241C54.1818 78.222 51.985 78.4139 49.816 77.8956C49.4324 77.804 49.0734 77.615 48.7021 77.469C48.7424 77.4146 48.7671 77.3345 48.8228 77.3087C49.5716 76.9737 50.3266 76.6502 51.0722 76.3094C51.1496 76.2751 51.1836 76.1577 51.2362 76.0775H53.0648C52.9504 75.7311 52.8637 75.4734 52.7802 75.2186C53.2041 75.0726 53.628 74.9237 54.0488 74.7776C54.1199 75.1413 54.1942 75.5049 54.2901 75.9859C55.0048 75.7826 55.6794 75.6051 56.3384 75.3904C56.4405 75.3589 56.4807 75.1642 56.5488 75.0439C56.9634 74.8836 57.3873 74.7376 57.7895 74.5515C57.9009 74.4999 58.003 74.3339 58.0092 74.2165C58.0278 73.8185 58.2506 73.6839 58.6373 73.8643C58.727 73.9044 58.8725 73.976 58.9189 73.9416C59.4387 73.5751 60.2308 73.6667 60.6144 73.0712C60.6361 73.034 60.7599 73.054 60.8372 73.0483H60.8403Z" fill="#F19745"/>
<path d="M38.5721 51.6462C38.4854 52.5108 37.8852 52.9861 37.0095 52.7914C36.6383 52.7084 36.2855 52.528 35.9421 52.3619C35.6512 52.2216 35.379 52.0499 35.1129 51.8752C34.1877 51.2596 33.1945 51.1566 32.1332 51.5202C31.8269 51.6261 31.5206 51.7435 31.2081 51.8294C30.809 51.9382 30.4222 51.9038 30.1252 51.6089C29.825 51.3083 29.726 50.9275 29.9302 50.5639C30.1066 50.2518 30.3325 49.934 30.6171 49.7078C32.6685 48.0729 36.4928 48.5139 38.043 50.5639C38.2843 50.8846 38.3988 51.2825 38.5752 51.6462H38.5721Z" fill="#FBDF62"/>
<path d="M72.4927 52.7886C73.192 52.7828 73.6159 53.0147 73.7922 53.4442C73.9779 53.8995 73.8603 54.3891 73.3467 54.7011C72.83 55.0132 72.2607 55.2766 71.6759 55.457C70.627 55.7834 69.5595 56.0611 68.4828 56.3045C68.0712 56.399 67.6164 56.3818 67.1894 56.3475C66.6727 56.3045 66.4035 55.8951 66.6387 55.4713C66.8305 55.1249 67.0935 54.7069 67.4431 54.5637C68.9654 53.9395 70.528 53.3984 72.0781 52.8401C72.2328 52.7828 72.4154 52.7971 72.4896 52.7886H72.4927Z" fill="#FBDF62"/>
<path d="M60.8403 73.0483C60.763 73.054 60.6423 73.0369 60.6176 73.0712C60.2339 73.6668 59.4418 73.5751 58.922 73.9416C58.8756 73.9731 58.7302 73.9044 58.6404 73.8643C58.2506 73.6839 58.0309 73.8185 58.0123 74.2165C58.0061 74.3339 57.9009 74.5028 57.7927 74.5515C57.3904 74.7376 56.9665 74.8836 56.5519 75.0439C56.3291 74.4971 56.1033 73.9473 55.8805 73.4005C56.4251 73.1142 56.9046 72.6761 57.6101 72.7792C57.6565 73.054 57.7029 73.326 57.7493 73.6009C57.7927 73.6066 57.836 73.6124 57.8793 73.6181C58.099 73.0197 58.3186 72.4184 58.5414 71.82C58.9096 71.6854 59.4727 71.6425 59.6027 71.3991C59.9492 70.7549 60.8496 70.9324 61.1714 70.3455C61.1002 71.0985 61.026 71.8515 60.9548 72.6017C60.8527 72.6217 60.7475 72.6389 60.5062 72.6818C60.7228 72.782 60.8063 72.8221 60.8929 72.8622L60.8372 73.0426L60.8403 73.0483Z" fill="#F5A350"/>
<path d="M61.7561 41.0754C61.7561 41.8456 61.0693 42.4583 60.2184 42.4526C59.3737 42.444 58.6682 41.8112 58.6744 41.0668C58.6806 40.3052 59.3768 39.6896 60.2277 39.6953C61.0909 39.701 61.7561 40.3023 61.7531 41.0782L61.7561 41.0754Z" fill="#BA95EC"/>
<path d="M51.2362 76.0804C51.1836 76.1606 51.1496 76.278 51.0722 76.3123C50.3266 76.6502 49.5716 76.9737 48.8228 77.3115C48.7671 77.3373 48.7424 77.4175 48.7022 77.4719C47.6966 77.051 46.9292 76.3953 46.4218 75.4848C46.8302 75.3617 47.0437 75.6166 47.2077 75.8771C47.5697 76.4469 47.9317 76.6301 48.4206 76.4097C48.6032 76.3266 48.764 76.1949 48.928 76.0775C49.1415 75.9258 49.3488 75.7654 49.5561 75.608C49.7975 75.6939 49.8501 75.5994 49.7913 75.399C50.1224 75.3073 50.4534 75.2129 50.7845 75.1212C50.8247 75.399 50.8649 75.6795 50.9083 75.9687C51.0073 76.0031 51.1218 76.0432 51.2362 76.0833V76.0804Z" fill="#F5A350"/>
<path d="M49.5561 75.6051C49.3457 75.7626 49.1415 75.9229 48.928 76.0747C48.764 76.192 48.6031 76.3238 48.4206 76.4068C47.9317 76.6272 47.5666 76.444 47.2077 75.8742C47.0437 75.6137 46.8302 75.3617 46.4218 75.482C46.3414 75.3331 46.2578 75.1842 46.1774 75.0353C46.8333 74.7462 47.4893 74.457 48.1483 74.1678C48.4639 74.7748 48.9435 75.2472 49.5592 75.6051H49.5561Z" fill="#FAB460"/>
<path d="M61.1745 70.3483C60.8527 70.9353 59.9523 70.7578 59.6058 71.402C59.4758 71.6454 58.9096 71.6883 58.5445 71.8229C58.6435 71.2445 58.7425 70.6661 58.8384 70.0878C59.4325 69.8845 60.0699 69.7471 60.5959 69.4436C60.8249 69.3119 61.0012 69.3462 61.2023 69.3033C61.193 69.6526 61.1838 69.999 61.1745 70.3483Z" fill="#FAB460"/>
<path d="M60.8929 72.8679C60.8094 72.8278 60.7228 72.7878 60.5062 72.6875C60.7475 72.6446 60.8496 72.6246 60.9548 72.6074C60.9332 72.6961 60.9146 72.782 60.8929 72.8708V72.8679Z" fill="#F19745"/>
<path d="M47.3841 102.298C46.7653 102.693 46.1155 102.791 45.4193 102.484C44.6365 101.86 44.4694 101.093 44.8253 100.22C45.1563 99.4123 46.0289 98.9943 46.8519 99.2205C47.7028 99.4553 48.2597 100.392 47.9874 101.242C47.8668 101.617 47.5883 101.949 47.381 102.298H47.3841Z" fill="#BA95EC"/>
<path d="M52.7833 75.2186C52.545 74.3482 52.3068 73.4806 52.0685 72.6102C52.6038 72.4642 53.1391 72.3182 53.6744 72.1722C53.795 72.8822 53.9188 73.5923 54.0302 74.3024C54.055 74.4598 54.0457 74.6202 54.0519 74.7777C53.628 74.9237 53.2041 75.0726 52.7833 75.2186Z" fill="#FAB460"/>
<path d="M57.2604 71.213C57.378 71.7341 57.4956 72.2581 57.6131 72.7792C56.9077 72.679 56.425 73.1142 55.8835 73.4005C55.7103 72.8164 55.537 72.2323 55.3668 71.6482C55.998 71.5022 56.6292 71.3562 57.2604 71.2101V71.213Z" fill="#F8AC58"/>
<path d="M49.7913 75.3961C49.553 74.6975 49.3117 73.9989 49.0734 73.3003C49.3148 73.18 49.553 73.0483 49.8005 72.9395C49.9583 72.8708 50.1347 72.8307 50.3049 72.7792C50.4658 73.558 50.6267 74.3396 50.7876 75.1184C50.4565 75.21 50.1254 75.3045 49.7944 75.3961H49.7913Z" fill="#FAB460"/>
</svg>
