<svg width="50" height="38" viewBox="0 0 50 38" fill="none" xmlns="http://www.w3.org/2000/svg">
<g clip-path="url(#clip0_56_3118)">
<path fill-rule="evenodd" clip-rule="evenodd" d="M30 10.6666H10H8.26667H3.6H1.86667C1.8318 10.6666 1.79736 10.6676 1.76334 10.6694C1.73135 10.6676 1.69912 10.6666 1.66667 10.6666C0.746193 10.6666 0 11.4128 0 12.3333C0 12.9136 0.296641 13.4248 0.746573 13.7232C0.772407 13.7448 0.7991 13.766 0.826667 13.7866L1.57254 14.346C1.80831 14.5228 1.85469 14.8566 1.69047 15.1014C0.622837 16.6923 0 18.6067 0 20.6666C0 26.1895 4.47715 30.6666 10 30.6666H30C35.5229 30.6666 40 26.1895 40 20.6666C40 15.1438 35.5229 10.6666 30 10.6666Z" fill="#1E293B"/>
<path fill-rule="evenodd" clip-rule="evenodd" d="M13.7134 33.9999C13.2523 33.9999 13.0208 34.5351 13.3669 34.8398C15.1295 36.3918 17.443 37.3333 19.9765 37.3333H39.984C45.5089 37.3333 49.9878 32.8561 49.9878 27.3333C49.9878 25.2734 49.3647 23.359 48.2967 21.7681C48.1325 21.5233 48.1789 21.1895 48.4147 21.0126L49.1605 20.4535C49.1882 20.4327 49.2149 20.4115 49.2408 20.3899C49.691 20.0915 49.9878 19.5803 49.9878 18.9999C49.9878 18.0795 49.2413 17.3333 48.3205 17.3333C48.2881 17.3333 48.2559 17.3342 48.2239 17.336C48.19 17.3342 48.1556 17.3333 48.1208 17.3333H46.3864H43.5864C43.2379 17.3333 42.9833 17.6621 43.0525 18.0037C43.227 18.8642 43.3186 19.7547 43.3186 20.6666C43.3186 28.0304 37.3468 33.9999 29.9803 33.9999H13.7134Z" fill="#94A3B8"/>
<path d="M30 23.9999C31.8409 23.9999 33.3333 22.5075 33.3333 20.6666C33.3333 18.8257 31.8409 17.3333 30 17.3333C28.1591 17.3333 26.6667 18.8257 26.6667 20.6666C26.6667 22.5075 28.1591 23.9999 30 23.9999Z" fill="#FDE047"/>
<path d="M10 23.9999C11.8409 23.9999 13.3333 22.5075 13.3333 20.6666C13.3333 18.8257 11.8409 17.3333 10 17.3333C8.15907 17.3333 6.66667 18.8257 6.66667 20.6666C6.66667 22.5075 8.15907 23.9999 10 23.9999Z" fill="#FDE047"/>
<path d="M20 7.33329C21.8409 7.33329 23.3333 5.84091 23.3333 3.99996C23.3333 2.15901 21.8409 0.666626 20 0.666626C18.1591 0.666626 16.6667 2.15901 16.6667 3.99996C16.6667 5.84091 18.1591 7.33329 20 7.33329Z" fill="#FDE047"/>
<path fill-rule="evenodd" clip-rule="evenodd" d="M14.9717 25.977C14.17 25.5168 13.8953 24.4974 14.3582 23.7003C14.821 22.9032 15.8461 22.63 16.6478 23.0903C16.6641 23.0996 16.6803 23.1093 16.6962 23.1191C17.6713 23.6693 18.7987 23.9834 20 23.9834C21.2013 23.9834 22.3287 23.6693 23.3039 23.1191C23.3197 23.1092 23.3359 23.0996 23.3522 23.0903C24.1539 22.63 25.179 22.9032 25.6418 23.7003C26.1047 24.4974 25.83 25.5168 25.0283 25.977C25.0232 25.98 25.0181 25.9829 25.0129 25.9858L25.0138 25.9873C23.5379 26.833 21.8257 27.3168 20 27.3168C18.1743 27.3168 16.4621 26.833 14.9862 25.9873L14.9871 25.9858C14.9819 25.9829 14.9768 25.98 14.9717 25.977Z" fill="#FDE047"/>
</g>
<defs>
<clipPath id="clip0_56_3118">
<rect width="50" height="36.6667" fill="white" transform="translate(0 0.666626)"/>
</clipPath>
</defs>
</svg>
