<svg width="25" height="23" viewBox="0 0 25 23" fill="none" xmlns="http://www.w3.org/2000/svg">
    <path
      d="M12.5 5C13.3284 5 14 4.32843 14 3.5C14 2.67157 13.3284 2 12.5 2C11.6716 2 11 2.67157 11 3.5C11 4.32843 11.6716 5 12.5 5Z"
      fill="currentColor"
    />
    <path
      opacity="0.12"
      d="M17.3027 7.74609H2.46754C2.31622 7.74609 2.16628 7.80387 2.05072 7.91805C1.82098 8.14779 1.82098 8.52059 2.05072 8.75033L3.20765 9.90726C2.37675 10.9225 1.87876 12.2184 1.87876 13.6325C1.87876 16.8832 4.51453 19.519 7.76522 19.519H17.3013C20.552 19.519 23.1878 16.8832 23.1878 13.6325C23.1878 10.3819 20.552 7.74609 17.3013 7.74609H17.3027Z"
      fill="currentColor"
    />
    <path
      d="M17.3027 7.74609H2.46754C2.31622 7.74609 2.16628 7.80387 2.05072 7.91805C1.82098 8.14779 1.82098 8.52059 2.05072 8.75033L3.20765 9.90726C2.37675 10.9225 1.87876 12.2184 1.87876 13.6325C1.87876 16.8832 4.51453 19.519 7.76522 19.519H17.3013C20.552 19.519 23.1878 16.8832 23.1878 13.6325C23.1878 10.3819 20.552 7.74609 17.3013 7.74609H17.3027Z"
      stroke="currentColor"
      strokeWidth="2"
      strokeLinejoin="round"
    />
    <path
      d="M17.3025 15.3989C18.278 15.3989 19.0688 14.6081 19.0688 13.6326C19.0688 12.657 18.278 11.8662 17.3025 11.8662C16.327 11.8662 15.5361 12.657 15.5361 13.6326C15.5361 14.6081 16.327 15.3989 17.3025 15.3989Z"
      fill="currentColor"
    />
    <path
      d="M7.76489 15.3989C8.74041 15.3989 9.53123 14.6081 9.53123 13.6326C9.53123 12.657 8.74041 11.8662 7.76489 11.8662C6.78936 11.8662 5.99854 12.657 5.99854 13.6326C5.99854 14.6081 6.78936 15.3989 7.76489 15.3989Z"
      fill="currentColor"
    />
    <path
      d="M12.5336 15.5167C12.0686 15.5167 11.6284 15.4108 11.2363 15.2223C10.8443 15.0339 10.4137 15.1315 10.1523 15.4548C9.79463 15.8964 9.94045 16.5567 10.4522 16.8057C11.0809 17.1125 11.788 17.2845 12.5349 17.2845C13.2819 17.2845 13.9876 17.1125 14.6177 16.8057C15.1281 16.5567 15.2739 15.8964 14.9176 15.4548C14.6562 15.1315 14.2078 15.0421 13.8336 15.2223C13.4594 15.4025 13.0013 15.5167 12.5363 15.5167H12.5336Z"
      fill="currentColor"
    />
  </svg>