<svg width="132" height="126" viewBox="0 0 132 126" fill="none" xmlns="http://www.w3.org/2000/svg">
<g clip-path="url(#clip0_1_61)">
<path fill-rule="evenodd" clip-rule="evenodd" d="M73.8 16.0455H42.6H39.896H32.616H29.912C29.8576 16.0455 29.8039 16.0469 29.7508 16.0497C29.7009 16.0469 29.6506 16.0455 29.6 16.0455C28.1641 16.0455 27 17.2055 27 18.6364C27 19.5385 27.4628 20.3331 28.1647 20.797C28.205 20.8307 28.2466 20.8635 28.2896 20.8956L29.4532 21.7652C29.821 22.0401 29.8933 22.559 29.6371 22.9394C27.9716 25.4126 27 28.3887 27 31.5909C27 40.1765 33.9844 47.1364 42.6 47.1364H73.8C82.4157 47.1364 89.4 40.1765 89.4 31.5909C89.4 23.0054 82.4157 16.0455 73.8 16.0455Z" fill="#312E81"/>
<path fill-rule="evenodd" clip-rule="evenodd" d="M48.3929 52.3182C47.6736 52.3182 47.3124 53.1501 47.8523 53.6238C50.602 56.0364 54.2111 57.5 58.1633 57.5H89.375C97.9939 57.5 104.981 50.5401 104.981 41.9545C104.981 38.7524 104.009 35.7764 102.343 33.3032C102.087 32.9227 102.159 32.4037 102.527 32.1288L103.69 31.2596C103.734 31.2274 103.775 31.1944 103.816 31.1608C104.518 30.6968 104.981 29.9023 104.981 29C104.981 27.5691 103.816 26.4091 102.38 26.4091C102.329 26.4091 102.279 26.4105 102.229 26.4133C102.176 26.4105 102.123 26.4091 102.068 26.4091H99.3628H94.9948C94.4512 26.4091 94.0539 26.9203 94.162 27.4514C94.4341 28.789 94.577 30.1733 94.577 31.5909C94.577 43.0383 85.261 52.3182 73.7692 52.3182H48.3929Z" fill="#A5B4FC"/>
<path d="M73.8 36.7727C76.6719 36.7727 79 34.4527 79 31.5909C79 28.7291 76.6719 26.4091 73.8 26.4091C70.9281 26.4091 68.6 28.7291 68.6 31.5909C68.6 34.4527 70.9281 36.7727 73.8 36.7727Z" fill="#FEF08A"/>
<path d="M42.6 36.7727C45.4719 36.7727 47.8 34.4527 47.8 31.5909C47.8 28.7291 45.4719 26.4091 42.6 26.4091C39.7281 26.4091 37.4 28.7291 37.4 31.5909C37.4 34.4527 39.7281 36.7727 42.6 36.7727Z" fill="#FEF08A"/>
<path d="M58.2 10.8636C61.0719 10.8636 63.4 8.54365 63.4 5.68182C63.4 2.81998 61.0719 0.5 58.2 0.5C55.3281 0.5 53 2.81998 53 5.68182C53 8.54365 55.3281 10.8636 58.2 10.8636Z" fill="#FEF08A"/>
<path fill-rule="evenodd" clip-rule="evenodd" d="M50.3558 39.8461C49.1052 39.1306 48.6767 37.546 49.3988 36.3068C50.1208 35.0676 51.72 34.643 52.9706 35.3585C52.996 35.373 53.0212 35.388 53.0461 35.4033C54.5673 36.2586 56.326 36.7469 58.2 36.7469C60.074 36.7469 61.8328 36.2586 63.354 35.4033C63.3788 35.3879 63.404 35.373 63.4294 35.3585C64.68 34.643 66.2792 35.0676 67.0012 36.3068C67.7233 37.546 67.2948 39.1306 66.0442 39.8461C66.0362 39.8506 66.0282 39.8552 66.0202 39.8596L66.0215 39.862C63.7191 41.1767 61.0481 41.9287 58.2 41.9287C55.3519 41.9287 52.6809 41.1767 50.3785 39.862L50.3798 39.8596C50.3718 39.8552 50.3638 39.8506 50.3558 39.8461Z" fill="#FEF08A"/>
</g>
<g clip-path="url(#clip1_1_61)">
<path fill-rule="evenodd" clip-rule="evenodd" d="M112.2 125.5C101.265 125.5 92.4 116.77 92.4 106C92.4 95.2304 101.265 86.5 112.2 86.5C116.279 86.5 120.069 87.7146 123.219 89.7964C123.704 90.1166 124.365 90.0262 124.715 89.5664L125.822 88.112C125.863 88.0582 125.905 88.0062 125.948 87.9559C126.539 87.0785 127.551 86.5 128.7 86.5C130.523 86.5 132 87.9551 132 89.75C132 89.8133 131.998 89.8761 131.995 89.9385C131.998 90.0048 132 90.072 132 90.14V93V102.62V106V109.38V119V121.86C132 121.928 131.998 121.995 131.995 122.061C131.998 122.124 132 122.187 132 122.25C132 124.045 130.523 125.5 128.7 125.5C127.551 125.5 126.539 124.921 125.948 124.044C125.905 123.994 125.863 123.942 125.822 123.888L124.715 122.434C124.365 121.974 123.704 121.883 123.219 122.204C120.069 124.285 116.279 125.5 112.2 125.5ZM112.2 119C104.91 119 99 113.18 99 106C99 98.8204 104.91 93 112.2 93C119.49 93 125.4 98.8204 125.4 106C125.4 113.18 119.49 119 112.2 119Z" fill="#312E81"/>
<path fill-rule="evenodd" clip-rule="evenodd" d="M0.00545937 89.9385C0.00183641 89.8761 0 89.8133 0 89.75C0 87.9551 1.47746 86.5 3.3 86.5C4.44913 86.5 5.46106 87.0785 6.05199 87.9559C6.09477 88.0062 6.13667 88.0582 6.1776 88.112L6.52572 88.5691C6.86602 89.016 7.50219 89.1151 7.98778 88.8265C10.473 87.3497 13.3857 86.5 16.5 86.5C21.3924 86.5 25.7875 88.597 28.8091 91.9283C29.2776 92.4448 30.1224 92.4448 30.5909 91.9283C33.6125 88.597 38.0076 86.5 42.9 86.5C52.0128 86.5 59.4 93.7753 59.4 102.75V124.46C59.4 125.034 58.9272 125.5 58.344 125.5H53.856C53.2728 125.5 52.8 125.034 52.8 124.46V102.75C52.8 97.3653 48.3676 93 42.9 93C37.4324 93 33 97.3653 33 102.75V124.46C33 125.034 32.5272 125.5 31.944 125.5H27.456C26.8728 125.5 26.4 125.034 26.4 124.46V102.75C26.4 97.3653 21.9676 93 16.5 93C11.0324 93 6.6 97.3653 6.6 102.75V124.46C6.6 125.034 6.12722 125.5 5.544 125.5H1.056C0.472787 125.5 0 125.034 0 124.46V102.75C0 102.72 8.15735e-05 102.69 0.000244217 102.661C8.20771e-05 102.647 1.00708e-06 102.634 1.00708e-06 102.62L5.0354e-07 90.14C5.0354e-07 90.072 0.00183943 90.0048 0.00545937 89.9385Z" fill="#312E81"/>
<path d="M66 89.75C66 87.9551 67.4775 86.5 69.3 86.5C71.1225 86.5 72.6 87.9551 72.6 89.75V124.46C72.6 125.034 72.1272 125.5 71.544 125.5H67.056C66.4728 125.5 66 125.034 66 124.46V89.75Z" fill="#312E81"/>
<path d="M79.2 77.2143C79.2 75.1629 80.6775 73.5 82.5 73.5C84.3225 73.5 85.8 75.1629 85.8 77.2143V124.311C85.8 124.968 85.3272 125.5 84.744 125.5H80.256C79.6728 125.5 79.2 124.968 79.2 124.311V77.2143Z" fill="#312E81"/>
<path d="M69.3 80C71.1225 80 72.6 78.5449 72.6 76.75C72.6 74.9551 71.1225 73.5 69.3 73.5C67.4775 73.5 66 74.9551 66 76.75C66 78.5449 67.4775 80 69.3 80Z" fill="#312E81"/>
</g>
<defs>
<clipPath id="clip0_1_61">
<rect width="78" height="57" fill="white" transform="translate(27 0.5)"/>
</clipPath>
<clipPath id="clip1_1_61">
<rect width="132" height="52" fill="white" transform="translate(0 73.5)"/>
</clipPath>
</defs>
</svg>
