<svg width="40" height="40" viewBox="0 0 40 40" fill="none" xmlns="http://www.w3.org/2000/svg">
    <rect width="40" height="40" rx="20" fill="#DBEAFE" />
    <path
      opacity="0.12"
      d="M12.8452 18.9537C12.3491 18.7608 12.101 18.6643 12.0286 18.5253C11.9658 18.4048 11.9657 18.2613 12.0284 18.1407C12.1006 18.0016 12.3486 17.9049 12.8445 17.7113L26.9176 12.2194C27.3652 12.0447 27.5891 11.9574 27.7321 12.0051C27.8563 12.0466 27.9538 12.1441 27.9953 12.2683C28.043 12.4113 27.9557 12.6352 27.781 13.0828L22.2891 27.1559C22.0955 27.6518 21.9988 27.8998 21.8597 27.972C21.7391 28.0347 21.5956 28.0346 21.4751 27.9718C21.3361 27.8994 21.2396 27.6513 21.0467 27.1552L18.8566 21.5235C18.8174 21.4228 18.7978 21.3725 18.7676 21.3301C18.7408 21.2925 18.7079 21.2596 18.6703 21.2328C18.6279 21.2026 18.5776 21.183 18.4769 21.1438L12.8452 18.9537Z"
      fill="#1E3A8A"
    />
    <path
      d="M12.8452 18.9537C12.3491 18.7608 12.101 18.6643 12.0286 18.5253C11.9658 18.4048 11.9657 18.2613 12.0284 18.1407C12.1006 18.0016 12.3486 17.9049 12.8445 17.7113L26.9176 12.2194C27.3652 12.0447 27.5891 11.9574 27.7321 12.0051C27.8563 12.0466 27.9538 12.1441 27.9953 12.2683C28.043 12.4113 27.9557 12.6352 27.781 13.0828L22.2891 27.1559C22.0955 27.6518 21.9988 27.8998 21.8597 27.972C21.7391 28.0347 21.5956 28.0346 21.4751 27.9718C21.3361 27.8994 21.2396 27.6513 21.0467 27.1552L18.8566 21.5235C18.8174 21.4228 18.7978 21.3725 18.7676 21.3301C18.7408 21.2925 18.7079 21.2596 18.6703 21.2328C18.6279 21.2026 18.5776 21.183 18.4769 21.1438L12.8452 18.9537Z"
      stroke="#2563EB"
      strokeWidth="1.66667"
      strokeLinecap="round"
      strokeLinejoin="round"
    />
  </svg>