 <svg width="40" height="40" viewBox="0 0 40 40" fill="none" xmlns="http://www.w3.org/2000/svg">
    <rect width="40" height="40" rx="20" fill="#DBEAFE" />
    <g clipPath="url(#clip0_2230_1284)">
      <path
        opacity="0.12"
        d="M20.8337 23.7498C20.8337 26.2811 18.8307 28.3332 16.36 28.3332C15.8496 28.3332 15.3592 28.2456 14.9022 28.0843C14.7288 28.0231 14.6421 27.9925 14.5837 27.9809C14.5223 27.9687 14.4891 27.9653 14.4265 27.9648C14.367 27.9644 14.2989 27.9737 14.1627 27.9923L11.667 28.3332L12.1764 26.0318C12.2098 25.8809 12.2265 25.8055 12.2304 25.7388C12.2344 25.6691 12.2325 25.6304 12.2217 25.5615C12.2113 25.4954 12.1798 25.3988 12.1166 25.2054C11.9672 24.7481 11.8863 24.2587 11.8863 23.7498C11.8863 21.2185 13.8892 19.1665 16.36 19.1665C18.8307 19.1665 20.8337 21.2185 20.8337 23.7498Z"
        fill="#1E3A8A"
      />
      <path
        d="M15.079 19.3572C15.0272 19.0234 15.0003 18.6814 15.0003 18.3332C15.0003 14.6513 18.0047 11.6665 21.7108 11.6665C25.4169 11.6665 28.4213 14.6513 28.4213 18.3332C28.4213 19.1649 28.268 19.961 27.988 20.6953C27.9298 20.8477 27.9007 20.924 27.8875 20.9835C27.8744 21.0425 27.8694 21.084 27.8679 21.1444C27.8665 21.2053 27.8748 21.2725 27.8913 21.4068L28.2268 24.1319C28.2631 24.4269 28.2813 24.5745 28.2322 24.6817C28.1892 24.7756 28.1128 24.8503 28.0179 24.8911C27.9096 24.9377 27.7625 24.9161 27.4684 24.873L24.814 24.4839C24.6755 24.4636 24.6061 24.4535 24.543 24.4538C24.4806 24.4542 24.4374 24.4588 24.3763 24.4716C24.3145 24.4846 24.2356 24.5142 24.0778 24.5733C23.3417 24.849 22.544 24.9998 21.7108 24.9998C21.3623 24.9998 21.02 24.9734 20.6859 24.9226M16.36 28.3332C18.8307 28.3332 20.8337 26.2811 20.8337 23.7498C20.8337 21.2185 18.8307 19.1665 16.36 19.1665C13.8892 19.1665 11.8863 21.2185 11.8863 23.7498C11.8863 24.2587 11.9672 24.7481 12.1166 25.2054C12.1798 25.3988 12.2113 25.4954 12.2217 25.5615C12.2325 25.6304 12.2344 25.6691 12.2304 25.7388C12.2265 25.8055 12.2098 25.8809 12.1764 26.0318L11.667 28.3332L14.1627 27.9923C14.2989 27.9737 14.367 27.9644 14.4265 27.9648C14.4891 27.9653 14.5223 27.9687 14.5837 27.9809C14.6421 27.9925 14.7288 28.0231 14.9022 28.0843C15.3592 28.2456 15.8496 28.3332 16.36 28.3332Z"
        stroke="#2563EB"
        strokeWidth="1.66667"
        strokeLinecap="round"
        strokeLinejoin="round"
      />
    </g>
    <defs>
      <clipPath id="clip0_2230_1284">
        <rect width="20" height="20" fill="white" transform="translate(10 10)" />
      </clipPath>
    </defs>
  </svg>