<svg width="101" height="67" viewBox="0 0 101 67" fill="none" xmlns="http://www.w3.org/2000/svg">
<path d="M37.8567 44.5707C39.35 45.8865 40.9759 47.006 42.7982 47.8177C43.0585 47.9337 43.1366 48.0425 43.0656 48.3431C42.7509 49.6779 42.6681 51.0458 42.5497 52.409C42.4006 54.1366 42.7509 55.779 43.4538 57.3315C44.0809 58.7136 45.0181 59.8591 46.4902 60.4531C47.0818 60.6921 47.7161 60.7134 48.3338 60.8247C49.2544 60.9903 50.1371 60.801 51.0412 60.6495C53.254 60.2803 55.1946 59.3124 57.0287 58.0865C57.8168 57.5587 58.6238 57.0594 59.3386 56.4251C60.8366 55.0951 61.7691 53.4455 62.188 51.4907C62.3868 50.5677 62.4814 49.6376 62.4743 48.6957C62.4743 48.3573 62.4909 48.0141 62.3891 47.6899C62.3016 47.4106 62.4152 47.3349 62.6495 47.2521C64.3653 46.6486 66.0337 45.9433 67.6501 45.1055C68.6867 44.5683 69.5837 43.8725 70.3197 42.9614C70.5161 42.72 70.6652 42.4502 70.838 42.1922C71.0297 41.8301 71.264 41.4893 71.3823 41.0894C71.5551 40.7959 71.7018 40.493 71.7704 40.1546C71.9574 39.4209 72.1444 38.6896 72.3266 37.956C72.3503 37.8613 72.4213 37.8282 72.4804 37.7761C72.5562 37.3288 72.6248 36.8815 72.6721 36.4295C72.6106 35.9396 72.5822 35.4474 72.5514 34.9551C72.4994 34.8107 72.5112 34.6593 72.4946 34.5102C72.4923 34.4794 72.4852 34.451 72.4757 34.4226C72.4142 33.8759 72.3171 33.3363 72.2154 32.7967C72.0118 31.9661 71.8225 31.133 71.5929 30.3094C71.1243 28.6291 70.4096 27.0648 69.4322 25.6188C69.3257 25.4626 69.2003 25.3135 69.1553 25.1218C69.0299 24.8733 68.9352 24.5987 68.6583 24.4615C68.469 24.5254 68.424 24.3526 68.3507 24.2556C67.6288 23.335 66.8739 22.4428 66.0006 21.6618C64.9877 20.7554 64.0079 19.7756 62.8033 19.1437C60.7798 18.0834 58.6712 17.2243 56.3684 16.9262C54.8112 16.725 53.2587 16.4907 51.6825 16.5522C49.6449 16.6351 47.6403 16.9735 45.6524 17.4184C43.5224 17.8965 41.4658 18.5781 39.5299 19.5862C37.5774 20.6039 35.7954 21.8677 34.4156 23.5953C33.0501 25.3016 31.8265 27.1097 31.1994 29.2444C30.9746 30.0136 30.7947 30.7946 30.6811 31.5898C30.8042 31.6418 30.8444 31.5093 30.9272 31.4714C31.5591 31.1922 32.2123 31.0407 32.9057 31.0951C33.0099 31.1022 33.0856 31.1827 33.185 31.1922C33.2394 31.1567 33.2536 31.1022 33.2631 31.0454C33.3246 30.6478 33.4288 30.2573 33.5684 29.8834C33.8973 29.0054 34.2168 28.125 34.747 27.3346C35.2605 26.5701 35.7528 25.7939 36.3208 25.0673C37.7289 23.4935 39.4329 22.3173 41.3072 21.3778C43.2621 20.398 45.3376 19.7685 47.4699 19.3117C48.7029 19.049 49.9336 18.7769 51.1903 18.6798C51.8695 18.6278 52.5487 18.5994 53.2374 18.6372C54.5083 18.7059 55.7579 18.9118 57.0074 19.12C58.2239 19.3235 59.3528 19.8016 60.4816 20.2749C61.1987 20.5755 61.9158 20.8713 62.5217 21.3754C62.6755 21.5032 62.8151 21.6499 62.9997 21.7375C63.4872 21.9789 63.8872 22.3292 64.2256 22.7504C64.4741 23.0557 64.8031 23.2805 65.0729 23.5645C66.5 25.0626 67.804 26.6553 68.8406 28.454C69.3091 29.2657 69.6547 30.1295 69.8795 31.0383C70.2321 32.4559 70.6037 33.8688 70.7907 35.3196C70.8475 35.7645 70.8498 36.2094 70.7646 36.6543C70.5327 37.885 70.2227 39.0967 69.7375 40.254C69.444 40.9569 69.0015 41.5745 68.566 42.197C68.4406 42.3768 68.3104 42.5472 68.2252 42.7555C68.14 42.9614 67.9507 43.0939 67.7803 43.2312C67.3306 43.5933 66.855 43.908 66.3248 44.1471C65.719 44.4192 65.1486 44.7695 64.5167 44.992C61.9608 46.0404 59.3102 46.7362 56.5791 47.1408C56.0844 47.2142 55.5827 47.245 55.081 47.2828C54.8704 47.2994 54.7804 47.2308 54.7284 47.0438C54.5769 46.5042 54.3426 45.9978 54.0137 45.5434C53.0717 44.2323 51.7938 43.4986 50.1845 43.3235C48.7148 43.1625 47.3918 43.527 46.2251 44.4169C45.5269 44.9494 44.9873 45.6238 44.6276 46.438C44.4714 46.7906 44.4525 46.793 44.0928 46.6486C43.0207 46.225 41.9817 45.7351 40.9878 45.1529C40.318 44.76 39.75 44.2181 39.0992 43.7921C39.0234 43.7424 38.9619 43.669 38.8673 43.6548C38.5241 43.9554 38.1241 44.192 37.8472 44.5683L37.8567 44.5707Z" fill="#4E95E5"/>
<path d="M81.651 0C80.0015 0 78.5886 0.130164 77.2017 0.494624C75.4362 0.958483 74.0565 1.91933 72.9868 3.42451C71.7088 5.21841 70.8852 7.17797 70.4995 9.3245C70.1019 11.5278 70.2415 13.6791 71.2662 15.7286C71.9147 17.0255 72.8874 17.9769 74.1275 18.6963C75.2067 19.3235 76.3734 19.7495 77.5165 20.2323C77.7058 20.3127 77.7603 20.3861 77.7035 20.592C77.4976 21.3517 77.0408 21.967 76.577 22.5776C76.3285 22.9042 76.0326 23.1929 75.8102 23.5408C75.4741 24.0662 75.6658 24.523 76.2811 24.6247C76.9745 24.7383 77.6609 24.6247 78.3496 24.5372C79.5163 24.3904 80.4369 23.7656 81.3149 23.0462C81.7031 22.7291 82.0581 22.3764 82.4817 22.1019C82.7751 21.9126 83.097 21.851 83.4165 21.8913C84.5477 22.038 85.6861 22.1019 86.8221 22.1918C87.9959 22.2841 89.1627 22.4309 90.3389 22.4995C91.3281 22.5563 92.3103 22.4924 93.2901 22.393C93.9054 22.3315 94.5183 22.2273 95.1313 22.1303C96.3927 21.9315 97.4435 21.3493 98.2268 20.334C99.1664 19.1152 100.044 17.8562 100.409 16.3273C100.672 15.2316 100.766 14.1169 100.669 12.9857C100.558 11.6935 100.43 10.4108 100.125 9.14464C99.6586 7.204 98.5747 5.70593 97.0554 4.44925C95.3254 3.01981 93.3066 2.20333 91.2027 1.56434C89.6597 1.09575 88.1 0.672121 86.4978 0.433092C84.8175 0.184597 83.1301 0.0094665 81.651 0Z" fill="#4E95E5"/>
<path d="M10.3231 32.0011C12.1762 32.039 13.9512 31.658 15.6741 31.0095C16.2846 30.7799 16.8503 30.6095 17.5555 30.8225C18.2821 31.0426 19.0891 30.9977 19.863 31.0592C20.8191 31.1349 21.7634 31.3077 22.7124 31.4284C22.8307 31.4426 22.9467 31.4497 23.0674 31.4284C23.6472 31.329 23.8555 30.8675 23.5265 30.3776C23.2094 29.909 22.8686 29.457 22.568 28.9766C22.2556 28.4772 22.0355 27.9376 21.8793 27.3744C21.7231 26.8182 21.9693 26.2242 22.4544 25.9213C23.5999 25.2042 24.2602 24.1203 24.6388 22.8707C25.5547 19.8532 24.6578 17.3422 22.3385 15.3212C20.9303 14.0929 19.366 13.0847 17.5674 12.4859C15.338 11.7452 13.0897 11.7452 10.8154 12.2422C9.17294 12.6019 7.67723 13.3024 6.22886 14.1307C5.30824 14.6585 4.38998 15.1792 3.62793 15.9365C2.12512 17.4345 0.91815 19.1007 0.392759 21.2093C0.0992985 22.3903 -0.0805683 23.5712 0.0353966 24.7829C0.167927 26.1721 0.688583 27.4312 1.65417 28.4181C3.4741 30.2759 5.64193 31.5325 8.28071 31.8497C8.95994 31.9301 9.63916 32.0177 10.3255 32.0011H10.3231Z" fill="#4E95E5"/>
<path d="M37.8566 44.5706C38.1974 44.2914 38.5737 44.05 38.8458 43.6926C38.8695 43.5909 38.931 43.5128 38.9973 43.437C39.4351 42.9306 39.6552 42.3366 39.7286 41.6786C39.7617 41.3828 39.7168 41.0941 39.6505 40.8124C39.4943 40.138 39.447 39.4469 39.2908 38.7724C38.737 36.9643 37.9323 35.2816 36.7679 33.7812C36.6614 33.6439 36.5384 33.5232 36.4177 33.3978C36.1976 33.1943 36.0012 32.9695 35.8071 32.7399C35.1705 31.9755 34.4084 31.398 33.4097 31.1921C33.3316 31.1661 33.2511 31.1708 33.1707 31.1732C33.1399 31.0833 33.0949 31.0288 32.9813 31.0194C32.2359 30.946 31.5424 31.1282 30.8656 31.4098C30.7733 31.4477 30.7378 31.5282 30.681 31.5944C30.6644 31.682 30.61 31.7388 30.5437 31.7909C29.0149 32.9979 28.4161 34.6214 28.3854 36.5194C28.3617 37.8778 28.8279 39.1156 29.2539 40.3652C29.377 40.7272 29.5426 41.0751 29.6988 41.4254C30.5556 43.34 32.1033 44.4547 34.0558 44.9966C35.2391 45.3256 36.4295 45.0889 37.556 44.6014C37.6554 44.5588 37.7454 44.4831 37.8542 44.5706H37.8566Z" fill="#351E53"/>
<path d="M78.7141 38.0009C76.7688 38.0459 75.2754 38.7038 74.2436 40.2208C72.7976 42.346 73.5738 45.1576 75.8884 46.2817C78.4183 47.5124 81.7931 46.3598 82.9551 43.8417C83.6154 42.4123 83.4379 41.0609 82.4676 39.8114C81.4783 38.5358 80.1128 38.0861 78.7141 38.0009Z" fill="#4E95E5"/>
<path d="M72.6009 36.4439C72.5465 36.7942 72.4873 37.1445 72.4376 37.4947C72.4234 37.5894 72.3926 37.6959 72.4778 37.7787C72.9606 37.5634 73.4624 37.3669 73.867 37.0261C74.2883 36.6735 74.577 36.2144 74.7995 35.6984C75.2444 34.669 75.2231 33.578 75.2279 32.5011C75.2373 30.5297 74.6315 28.7169 73.7085 26.9964C72.8849 25.4581 71.5714 24.5966 69.8935 24.2416C69.4557 24.1493 69.0415 24.2274 68.6581 24.4641C68.8072 24.6771 68.9563 24.8901 69.1054 25.1054C69.1338 25.2025 69.2143 25.2238 69.2971 25.2261C69.7704 25.238 70.1988 25.4155 70.6271 25.5882C71.8247 26.0474 72.3429 27.0934 72.8494 28.1489C72.963 28.3856 73.0411 28.6388 73.1523 28.8778C73.389 29.576 73.5996 30.2812 73.7535 31.0031C73.9357 31.9308 73.9475 32.8656 73.8457 33.8028C73.8363 33.8927 73.8268 33.985 73.8316 34.0749C73.8126 34.2643 73.7724 34.4512 73.7416 34.6382C73.6446 35.2441 73.2517 35.6606 72.8281 36.0463C72.6979 36.1647 72.6127 36.2735 72.5985 36.4416L72.6009 36.4439Z" fill="#351E53"/>
<path d="M38.1335 7.99445C37.1679 7.38387 36.1053 7.11407 34.974 7.07857C34.9196 7.07857 34.8533 7.09277 34.8107 7.0691C34.2096 6.73304 33.5919 6.92237 33.0003 7.0549C31.32 7.43593 29.9828 8.34235 29.0314 9.79309C28.7948 10.238 28.5368 10.6711 28.3664 11.1468C28.2789 11.3148 28.2079 11.4876 28.1984 11.6817C28.4209 11.7645 28.3806 11.9775 28.4067 12.1455C28.4516 12.4319 28.5794 12.678 28.712 12.9241C28.7806 13.0496 28.8019 13.1774 28.7924 13.3146C28.8042 13.4211 28.7664 13.5466 28.8989 13.6105C29.022 13.53 28.9865 13.3998 28.9888 13.2886C29.0456 11.2012 30.1106 9.74102 31.8525 8.71628C32.5648 8.29738 33.3505 8.04889 34.1789 7.96132C34.2522 7.95422 34.328 7.94712 34.3918 7.91636C35.0829 7.58976 35.7408 7.83826 36.3798 8.05835C37.4093 8.41571 38.2707 9.0334 38.9523 9.89012C39.0068 9.95875 39.0541 10.0463 39.1606 10.0511C39.286 9.93272 39.3168 9.77416 39.2718 9.62743C39.144 9.1967 39.0328 8.75177 38.6731 8.43701C38.524 8.25005 38.3015 8.15302 38.1287 7.99209L38.1335 7.99445Z" fill="#FEC06B"/>
<path d="M31.9375 18.9633C33.4569 19.5502 34.9928 19.5526 36.5122 19.0153C38.583 18.284 39.9982 16.8759 40.6869 14.772C40.7224 14.6607 40.739 14.5424 40.765 14.4264C40.72 14.0715 40.384 14.0383 40.1568 13.8869C40.0574 13.8206 39.9911 13.9034 39.9462 13.991C39.7213 14.8382 39.3711 15.624 38.8078 16.3032C37.8517 17.4557 36.6234 18.1231 35.1467 18.3456C34.0627 18.5089 33.0238 18.3385 32.0203 17.9125C31.9375 17.877 31.857 17.8297 31.7624 17.8297C31.6156 17.8557 31.6322 17.974 31.7032 18.0213C32.0227 18.2296 31.8783 18.542 31.902 18.8142C31.9067 18.8686 31.8925 18.9207 31.9375 18.9633Z" fill="#F19543"/>
<path d="M37.8661 59.0637C38.6424 59.1229 39.3689 59.3714 40.0647 59.6885C41.8444 60.5026 43.4821 61.5345 44.876 62.9261C45.2878 63.3379 45.773 63.6715 46.1327 64.1401C46.2085 64.2395 46.3339 64.2963 46.4759 64.2324C46.6226 64.1685 46.6392 64.0455 46.6273 63.9129C46.5871 63.5272 46.341 63.2432 46.1043 62.971C44.1708 60.7488 41.8539 59.0921 39.0045 58.2401C38.9193 58.2023 38.8293 58.1904 38.8175 58.3088C38.7773 58.7206 38.4672 58.7963 38.1477 58.8768C38.0365 58.9052 37.8779 58.8768 37.8637 59.059L37.8661 59.0637Z" fill="#FEE262"/>
<path d="M33.5801 62.8406C33.3269 62.8028 33.2275 62.6205 33.1517 62.4075C32.9932 61.9603 32.837 61.513 32.8606 61.0278C32.8819 60.6042 33.0594 60.4077 33.476 60.3226C33.786 60.2587 34.0913 60.2894 34.3989 60.3131C34.3634 59.9889 34.4841 59.6741 34.4557 59.3522C34.0203 59.2623 33.5872 59.2931 33.1588 59.3948C32.3991 59.5747 31.9235 60.1474 31.8738 60.926C31.8406 61.4538 31.9471 61.9579 32.1365 62.443C32.2075 62.6253 32.1649 62.701 31.985 62.727C32.011 62.7957 32.082 62.8004 32.1317 62.8335C32.3565 62.9897 32.3897 63.2359 32.2169 63.4938C32.5317 63.4441 32.695 63.6098 32.8583 63.8607C33.1517 64.315 33.4807 64.7481 33.9091 65.0937C34.0108 65.167 34.1268 65.1812 34.2475 65.1765C34.6214 65.1599 34.9859 65.2925 35.3622 65.2617C35.5184 65.2002 35.4497 65.1292 35.3622 65.0771C34.5622 64.6132 34.1078 63.8441 33.6251 63.1033C33.573 63.0229 33.5659 62.9329 33.5825 62.8406H33.5801Z" fill="#FEE262"/>
<path d="M41.4182 64.3297C41.1389 63.1937 40.3296 62.434 39.5083 61.698C38.6256 60.9076 37.6103 60.3159 36.5098 59.8781C36.4507 59.8544 36.3868 59.8449 36.3276 59.8284C36.1477 59.8331 36.1714 59.9988 36.117 60.1005C36.1075 60.1408 36.1028 60.1834 36.1075 60.226C36.1761 60.4934 36.3016 60.7324 36.4601 60.9549C37.2648 61.369 38.0647 61.7998 38.7368 62.4104C39.3971 63.0091 40.0882 63.5913 40.4574 64.4409C40.5047 64.5569 40.5899 64.6066 40.7153 64.59C40.9117 64.5664 41.1082 64.5309 41.3093 64.5332C41.4466 64.5332 41.4726 64.4433 41.4206 64.3273L41.4182 64.3297Z" fill="#F19643"/>
<path d="M36.4838 60.9193C36.375 60.685 36.2637 60.4507 36.1549 60.2164C36.0247 60.2259 36.0389 60.3395 36.0176 60.4176C35.9584 60.6305 35.9655 60.8483 35.9916 61.066C35.9987 61.1252 36.0294 61.2009 35.9608 61.2388C35.8969 61.2743 35.8425 61.2222 35.788 61.1891C35.7336 61.1559 35.6863 61.1062 35.6224 61.0968C35.5277 61.0826 35.5064 61.1228 35.5537 61.2056C36.3111 62.8433 37.5701 64.003 39.0918 64.9094C39.1841 64.9638 39.2883 64.997 39.3877 65.0396C39.7001 64.9496 39.9959 64.8218 40.2799 64.6656C40.3012 64.6278 40.3012 64.5875 40.287 64.5473C39.9864 64.3438 39.6338 64.2396 39.3261 64.0432C38.5073 63.5226 37.7736 62.9072 37.182 62.131C37.111 62.0387 37.0494 61.9346 36.9406 61.8754C36.6542 61.8162 36.5453 61.7334 36.7134 61.5417C36.7181 61.3027 36.5477 61.1275 36.4814 60.9169L36.4838 60.9193Z" fill="#FEE262"/>
<path d="M35.554 61.2058C35.5658 61.1703 35.554 61.0969 35.625 61.1466C35.6983 61.1987 35.7599 61.2673 35.8332 61.3194C35.9019 61.3691 35.9894 61.3999 36.0628 61.3454C36.1291 61.2981 36.103 61.2105 36.0888 61.1395C36.0249 60.8248 36.0226 60.5147 36.1551 60.2142C36.1575 60.1787 36.1598 60.1456 36.1646 60.1101C36.1882 60.0107 36.2024 59.9113 36.2119 59.8119C36.2214 59.3314 36.2332 59.3125 36.6545 59.2344C37.0355 59.0238 37.4544 59.0758 37.8638 59.064C37.9916 58.9173 38.1833 58.9646 38.3419 58.9102C38.6306 58.8108 38.8862 58.6901 38.8744 58.328C38.872 58.212 38.9548 58.2617 39.0045 58.2428C38.1667 58.044 37.3289 57.9186 36.4841 58.1907C36.4249 58.2736 36.3184 58.2925 36.2545 58.3706C35.9232 58.6262 35.7149 58.9812 35.4924 59.3196C35.2345 59.7101 35.3126 60.1574 35.3386 60.5928C35.3741 60.8106 35.4286 61.0212 35.554 61.2058Z" fill="#FEF7D4"/>
<path d="M28.8681 13.2722C28.8445 12.9977 28.7214 12.78 28.5865 12.5409C28.5037 12.3966 28.4161 12.1433 28.4492 11.9138C28.4753 11.7363 28.3924 11.6416 28.2007 11.6842C27.8173 13.0474 27.8978 14.3822 28.4587 15.6814C28.7616 16.3843 29.1971 16.9973 29.7296 17.544C29.7982 17.615 29.8621 17.6954 29.9615 17.7309C30.023 17.6079 29.9189 17.5463 29.8574 17.4777C29.5426 17.144 29.3817 16.7417 29.2657 16.3015C29.1379 15.8163 29.1119 15.3194 29.022 14.8366C28.9557 14.4768 28.951 14.0887 28.7853 13.7408C28.7072 13.5751 28.7096 13.4048 28.8705 13.2746L28.8681 13.2722Z" fill="#FCBA65"/>
<path d="M33.5803 62.8407C33.4359 62.8738 33.4667 62.9661 33.5188 63.0465C33.8406 63.5246 34.0773 64.0642 34.5364 64.4476C34.6547 64.547 34.7849 64.6417 34.8299 64.8215C34.8606 64.9422 35.0097 64.9919 35.1257 65.0487C35.2298 65.1008 35.3576 65.1079 35.4428 65.1978C35.5967 65.3516 35.8002 65.3422 35.9919 65.3516C36.1291 65.3587 36.1528 65.2688 36.1007 65.1528C35.547 64.0689 34.7565 63.243 33.5779 62.843L33.5803 62.8407Z" fill="#F19643"/>
<path d="M28.868 13.2719C28.7355 13.2625 28.5982 13.4707 28.6597 13.634C28.7733 13.9322 28.894 14.221 28.8041 14.5476C29.1141 14.8789 28.9153 15.312 29.0242 15.6835C29.1331 16.0598 29.2183 16.4409 29.3484 16.8124C29.4739 17.1745 29.746 17.4325 29.9614 17.7283C30.1839 17.9721 30.4394 18.1709 30.7305 18.3271C30.785 18.1922 30.6856 18.0999 30.624 18.0099C30.3116 17.5461 30.1223 17.0278 29.9259 16.5119C29.8715 16.3699 29.7508 16.2515 29.7768 16.0811C29.765 15.9983 29.72 15.9297 29.6774 15.8587C29.3484 15.293 29.1473 14.6848 29.0431 14.0387C29.0195 13.8896 29.0313 13.7263 28.9224 13.6009C28.8254 13.5039 28.8869 13.3808 28.868 13.2719Z" fill="#FBB560"/>
<path d="M40.9261 12.671C40.8882 11.632 40.5687 10.683 40.0007 9.81682C39.7949 9.82392 39.8091 9.98485 39.8185 10.1103C39.8446 10.5197 39.8588 10.9244 39.7665 11.3291C39.8801 11.7504 39.925 12.1882 40.0386 12.6118C40.1617 12.6591 40.1664 12.5574 40.2019 12.4864C40.3179 12.2473 40.4078 12.2355 40.6184 12.3941C40.732 12.4793 40.7699 12.6402 40.9285 12.671H40.9261Z" fill="#F6A754"/>
<path d="M40.9261 12.6708C40.8764 12.5265 40.7676 12.4223 40.6516 12.3348C40.5664 12.2685 40.4789 12.136 40.3511 12.2022C40.2256 12.2685 40.0813 12.349 40.131 12.543C40.1357 12.5643 40.112 12.5927 40.1002 12.6164C40.0458 12.659 40.0268 12.7229 40.0268 12.7844C40.0268 13.1276 39.97 13.4684 39.9416 13.8092C39.9369 13.8731 39.9416 13.937 39.9937 13.9843C40.0363 13.9749 40.041 13.8897 40.1191 13.9441C40.344 14.0908 40.6067 14.1878 40.7605 14.4292C40.9214 13.8542 41.0019 13.2696 40.9238 12.6708H40.9261Z" fill="#F5A24E"/>
<path d="M36.1006 65.151C36.11 65.2622 36.0887 65.3167 35.9491 65.2812C35.7834 65.2362 35.6107 65.2244 35.4427 65.196C34.9291 65.1841 34.425 65.054 33.9091 65.0942C34.2877 65.5178 34.7374 65.8491 35.2628 66.0645C35.5089 66.1663 35.7787 66.1497 35.9704 65.9533C36.1858 65.7308 36.226 65.4468 36.1029 65.1534L36.1006 65.151Z" fill="#FEF7D4"/>
<path d="M40.2635 64.6536C39.9559 64.7459 39.6506 64.843 39.3902 65.0418C39.8636 65.3139 40.3535 65.5316 40.912 65.3613C41.3143 65.2382 41.551 64.727 41.4208 64.3294C41.4066 64.4075 41.4137 64.5116 41.2859 64.4714C41.1108 64.4193 40.9357 64.4619 40.7795 64.5069C40.6114 64.5566 40.5546 64.4856 40.4955 64.3696C40.4268 64.4075 40.4008 64.4738 40.3653 64.5353C40.4268 64.6536 40.2919 64.6063 40.2659 64.6513L40.2635 64.6536Z" fill="#FEF7D4"/>
<path d="M31.9376 18.9641C32.0275 18.7464 31.921 18.5097 32.0062 18.2872C32.0299 18.2257 31.94 18.1358 31.8524 18.0908C31.7719 18.0482 31.6915 17.989 31.7199 17.8731C31.727 17.8447 31.727 17.8115 31.7033 17.7973C31.2962 17.556 30.9342 17.2459 30.5224 17.0116C30.378 17.0116 30.3472 17.0874 30.3993 17.2081C30.4348 17.2909 30.4703 17.3856 30.5366 17.4424C30.8963 17.7405 31.0359 18.1618 31.2039 18.5712C31.2181 18.6044 31.2536 18.6233 31.2726 18.6541C31.4785 18.7866 31.6962 18.8978 31.9352 18.9641H31.9376Z" fill="#F6A551"/>
<path d="M31.327 62.8596C30.9176 62.9519 30.5247 63.0963 30.1271 63.2335C30.0679 63.3211 30.0585 63.8157 30.1224 63.882C30.1721 63.934 30.2336 63.9269 30.2928 63.8914C30.7117 63.7826 31.1329 63.6713 31.5518 63.5625C31.5684 63.2998 31.3388 63.1128 31.327 62.8596Z" fill="#FEE262"/>
<path d="M31.275 18.6532C31.249 18.2746 31.0265 17.9646 30.8585 17.6522C30.778 17.5031 30.565 17.3776 30.4585 17.193C30.4088 17.1055 30.4065 17.0629 30.5153 17.0487C30.4727 16.786 30.2361 16.6605 30.0965 16.4665C30.0018 16.3363 29.945 16.147 29.7438 16.1186C29.7273 16.1494 29.6894 16.1967 29.6965 16.2062C29.8764 16.4192 29.8314 16.7292 30.016 16.9374C30.1651 17.1078 30.1319 17.3492 30.2574 17.5362C30.4301 17.7894 30.5698 18.0616 30.726 18.3267C30.8893 18.4663 31.0715 18.5775 31.2727 18.6532H31.275Z" fill="#F8AC58"/>
<path d="M30.293 63.8918L30.1652 63.8657C30.248 63.648 30.0563 63.4492 30.1273 63.2315C29.6043 63.4705 29.1073 63.7545 28.6458 64.1C28.6363 64.1758 28.5606 64.2539 28.6458 64.3272C29.2091 64.2373 29.7344 64.0054 30.2906 63.8918H30.293Z" fill="#FEF7D4"/>
<path d="M34.4581 59.3502C34.3729 59.6673 34.2428 59.9797 34.4013 60.3111C34.6404 60.356 34.8794 60.401 35.1184 60.4436C35.2131 60.1146 35.2935 59.7857 35.1184 59.4591C34.903 59.3999 34.683 59.3549 34.4581 59.3502Z" fill="#F19643"/>
<path d="M31.3272 62.8597C31.2325 63.0206 31.3319 63.146 31.4029 63.2786C31.4526 63.3732 31.5023 63.4679 31.552 63.5626C31.7745 63.5389 31.9969 63.5152 32.2194 63.4916C32.3093 63.4395 32.4726 63.4561 32.4324 63.2762C32.3851 63.0679 32.3756 62.8336 32.1247 62.7437C32.0821 62.7295 32.0348 62.7319 31.9898 62.7248C31.7697 62.7698 31.5496 62.8147 31.3295 62.8597H31.3272Z" fill="#F19644"/>
<path d="M39.828 11.3004C39.9534 10.9312 39.9179 10.5549 39.8871 10.1762C39.8777 10.0484 39.8351 9.89459 40.0007 9.81886C39.9629 9.76443 39.925 9.70999 39.8871 9.65793C39.7546 9.6035 39.5676 9.6461 39.525 9.43783C39.5156 9.38577 39.4659 9.37157 39.4185 9.39523C39.3475 9.42837 39.2836 9.49463 39.3073 9.56326C39.4091 9.84016 39.2908 10.1194 39.3404 10.3939C39.4398 10.6708 39.6055 10.9193 39.7002 11.1986C39.7191 11.253 39.7428 11.3217 39.828 11.3027V11.3004Z" fill="#F7AF5C"/>
<path d="M35.1185 59.4586C35.1185 59.7876 35.1185 60.1165 35.1185 60.4431C35.1848 60.5047 35.3008 60.4881 35.3386 60.5922C35.4451 60.4526 35.3789 60.294 35.3789 60.1473C35.3765 59.7213 35.4854 59.3663 35.7835 59.035C35.9729 58.8244 36.1267 58.5735 36.3255 58.3629C36.335 58.3108 36.3184 58.2848 36.2616 58.3013C35.7977 58.5143 35.4617 58.8457 35.3386 59.3498C35.3008 59.5036 35.2108 59.4657 35.1138 59.461L35.1185 59.4586Z" fill="#FEE264"/>
<path d="M39.3902 10.3679C39.4399 10.0532 39.402 9.73366 39.428 9.40943C39.4612 9.75732 39.6813 9.69342 39.8895 9.65319C39.873 9.62953 39.8564 9.60349 39.8375 9.57983C39.7641 9.52539 39.7026 9.4615 39.6789 9.3692C39.4328 9.0142 39.1156 8.72547 38.7867 8.45095C38.7322 8.41308 38.6802 8.40835 38.6257 8.45095C38.9452 8.76334 39.0636 9.18223 39.2127 9.58219C39.2718 9.73839 39.1724 9.88512 39.1724 10.0366C39.1985 10.1786 39.2032 10.3324 39.3902 10.3655V10.3679Z" fill="#F6B565"/>
<path d="M71.3846 41.094C71.1527 41.4348 71.0083 41.8229 70.8403 42.1968C71.0154 42.0998 71.0178 41.8868 71.1408 41.7519C71.2308 41.6525 71.2923 41.5247 71.3775 41.4206C71.4721 41.307 71.607 41.2076 71.3822 41.094H71.3846Z" fill="#E8F1FB"/>
<path d="M36.6544 59.2343C36.1882 59.1633 36.1456 59.2082 36.1574 59.781C36.1953 59.8141 36.2332 59.8141 36.271 59.7786C36.271 59.5088 36.4225 59.3431 36.6544 59.2343Z" fill="#FEE36D"/>
<path d="M28.3664 11.1493C28.5912 10.6997 28.8634 10.2737 29.0314 9.79562C28.7238 10.205 28.4824 10.6452 28.3664 11.1493Z" fill="#A5B5C1"/>
<path d="M71.7703 40.1591C71.6402 40.4715 71.5124 40.7839 71.3822 41.0963C71.6993 40.862 71.7372 40.5118 71.7703 40.1591Z" fill="#E8F1FB"/>
<path d="M38.6211 8.45088C38.6755 8.45088 38.7299 8.45088 38.782 8.45088C38.5879 8.26629 38.3844 8.09353 38.1312 7.99176C38.2424 8.20002 38.4862 8.26392 38.6211 8.44852V8.45088Z" fill="#BEB8A9"/>
<path d="M28.6479 64.3271C28.6337 64.2514 28.707 64.1757 28.6479 64.0999C28.6124 64.126 28.5745 64.1544 28.539 64.1804C28.4846 64.223 28.3899 64.2561 28.4538 64.3437C28.513 64.4242 28.584 64.3413 28.6502 64.3271H28.6479Z" fill="#FEE46C"/>
<path d="M36.2734 59.7787C36.2355 59.7787 36.1977 59.7788 36.1598 59.7811C36.1598 59.89 36.1622 60.0012 36.1645 60.1101C36.2355 60.0249 36.2213 59.8923 36.3278 59.8261C36.3089 59.8095 36.2923 59.7929 36.2734 59.7764V59.7787Z" fill="#FEE262"/>
<path d="M36.2638 58.2997C36.2851 58.321 36.3064 58.34 36.3277 58.3613C36.3774 58.3021 36.5194 58.3281 36.4839 58.1932C36.401 58.2098 36.3206 58.2335 36.2638 58.3021V58.2997Z" fill="#FEED9B"/>
<path d="M39.6765 9.3717C39.6552 9.4995 39.731 9.55157 39.8351 9.58233C39.8091 9.49004 39.7475 9.4285 39.6765 9.3717Z" fill="#A4B1BB"/>
<path d="M36.3727 33.4353C37.7169 34.9547 38.5641 36.7391 39.1795 38.649C39.1913 38.6821 39.2079 38.7152 39.2244 38.7484C39.338 39.0821 39.6126 39.2974 39.8398 39.5388C40.5048 40.2417 41.2384 40.8783 42.0715 41.3801C43.2335 42.0806 44.5138 42.4758 45.8297 42.7693C46.4876 42.9184 47.1526 43.0249 47.8318 43.0462C48.8637 43.0769 49.8671 42.8923 50.8682 42.6817C52.3521 42.3669 53.8502 42.1658 55.3624 42.0498C56.4393 41.967 57.5161 41.9859 58.5905 42.0167C59.6721 42.0474 60.7607 42.0829 61.8304 42.2841C62.2967 42.3717 62.7629 42.4616 63.1912 42.6793C64.0243 43.103 64.4077 43.8106 64.3083 44.7359C64.2728 45.0554 64.2917 45.0791 64.5426 45.0483C65.6786 44.5821 66.8074 44.1017 67.7801 43.3278C68.0286 43.1314 68.2605 42.9349 68.3836 42.6131C68.4688 42.3906 68.6558 42.206 68.8025 42.0096C69.8699 40.5659 70.3597 38.8975 70.7502 37.1769C70.9609 36.2492 70.9041 35.3523 70.7313 34.4411C70.4733 33.0803 70.1657 31.729 69.761 30.4036C69.2569 28.7446 68.3055 27.3294 67.2453 25.9828C66.5471 25.0929 65.8395 24.2102 65.0206 23.4268C64.7698 23.1878 64.5189 22.9512 64.2657 22.7145C63.8894 22.3453 63.4918 22.0021 63.0492 21.7134C60.9074 20.0497 58.4249 19.2568 55.7837 18.8545C54.7448 18.696 53.7058 18.5611 52.6574 18.5516C50.9771 18.535 49.3394 18.8474 47.704 19.1953C45.3848 19.6876 43.1246 20.3621 41.0136 21.4602C39.312 22.3453 37.75 23.4268 36.4389 24.8444C36.3774 24.9107 36.3206 24.9841 36.2614 25.0527C36.3253 25.3982 36.3537 25.7461 36.3656 26.0964C36.3679 26.2053 36.3797 26.3141 36.3608 26.423C36.0626 28.0962 35.9301 29.7836 35.9609 31.4828C35.9703 32.0437 36.065 32.588 36.2117 33.1276C36.2425 33.246 36.3135 33.3406 36.3727 33.4424V33.4353Z" fill="#FEFEFE"/>
<path d="M64.5426 45.0464C64.4148 45.0583 64.3391 45.0441 64.3746 44.8737C64.4835 44.3459 64.4125 43.8442 64.1119 43.3851C63.7474 42.8265 63.2079 42.5236 62.5807 42.3651C61.8115 42.171 61.0306 42.0882 60.2401 42.0266C58.8391 41.9178 57.4357 41.9083 56.0322 41.932C55.1424 41.9462 54.2596 42.0787 53.3769 42.1757C51.9569 42.3319 50.5795 42.7153 49.1667 42.907C47.8272 43.0869 46.5208 42.8857 45.2286 42.5449C44.3009 42.3012 43.3992 41.9911 42.5401 41.558C41.9082 41.2385 41.3592 40.8054 40.8196 40.3605C40.235 39.8777 39.7286 39.3192 39.2292 38.7512C39.3475 39.4423 39.4517 40.1333 39.5842 40.822C39.7735 41.8089 39.5676 42.6822 38.9026 43.4442C38.8435 43.5105 38.6873 43.5791 38.8506 43.6998C39.6268 44.211 40.306 44.8595 41.1178 45.3139C42.1449 45.889 43.2004 46.4072 44.3104 46.8096C44.4595 46.864 44.5352 46.8735 44.618 46.6889C45.4818 44.7459 46.9468 43.6075 49.0886 43.3993C50.7665 43.2383 52.2196 43.7448 53.4219 44.9257C54.0324 45.5245 54.4419 46.2558 54.6738 47.077C54.7424 47.3184 54.8205 47.3799 55.0951 47.3657C56.9789 47.264 58.8083 46.8474 60.6259 46.3978C61.9677 46.0665 63.2718 45.5908 64.5474 45.0488L64.5426 45.0464Z" fill="#C1DEFE"/>
<path d="M51.6684 53.4103C51.6944 53.2849 51.6684 53.2541 51.5382 53.3086C51.169 53.4648 50.7856 53.5831 50.3904 53.647C48.9539 53.8766 47.6215 53.6304 46.4192 52.7785C46.3814 52.7524 46.3411 52.7311 46.3033 52.7075C46.237 52.672 46.1897 52.6838 46.1613 52.7572C46.1707 53.0956 46.334 53.389 46.45 53.6943C46.6819 54.3002 46.9115 54.9037 47.2617 55.4575C47.6877 56.1272 48.2794 56.5651 49.032 56.8017C49.8319 57.0526 50.6507 57.1709 51.4862 57.1709C51.7867 57.1709 52.0897 57.1709 52.3902 57.1709C52.8943 57.1756 53.2919 57.3721 53.5522 57.817C53.6019 57.9022 53.6422 57.9992 53.7487 58.0347C53.8954 58.0395 54.0043 57.9424 54.1226 57.8833C55.0172 57.4478 55.933 57.0526 56.7827 56.5319C58.0914 55.732 59.1422 54.6694 59.909 53.337C60.0131 53.1547 60.103 52.9654 60.1622 52.7619C60.5929 51.2804 60.929 49.7776 61.2745 48.2771C61.4023 47.721 61.3834 47.7281 60.8367 47.8772C59.0665 48.3623 57.2773 48.7599 55.4384 48.8877C54.9225 48.9232 54.9201 48.9256 54.8491 49.4344C54.8349 49.5314 54.7805 49.6261 54.8255 49.7302C54.9533 49.7776 55.055 49.6971 55.1639 49.6616C55.6751 49.4865 56.1981 49.4107 56.7259 49.5433C57.6063 49.7634 58.1908 50.5515 58.2263 51.4744C58.2784 52.8092 57.7222 53.9002 56.8773 54.8706C56.2431 55.5995 55.4692 56.1438 54.532 56.416C53.8836 56.6029 53.2304 56.6195 52.615 56.2976C51.8672 55.9071 51.4601 54.9912 51.5927 54.0801C51.6258 53.8576 51.7276 53.6423 51.6708 53.4103H51.6684Z" fill="#FEFEFE"/>
<path d="M53.7224 48.4705C53.9637 45.7891 50.7877 43.962 48.2531 45.1027C47.5313 45.427 46.9017 45.8648 46.4379 46.5133C46.0095 47.1096 45.7729 47.7747 45.7894 48.5202C45.7894 48.6172 45.8273 48.7118 45.69 48.7947C45.5717 48.8657 45.6403 49.0479 45.6569 49.1804C45.7847 50.1839 46.2604 50.9838 47.0698 51.5873C48.9536 52.9907 51.893 52.7801 53.2443 50.3141C53.5496 49.7579 53.8383 49.1568 53.72 48.4705H53.7224Z" fill="#FEFEFE"/>
<path d="M53.7462 58.0366C53.4716 57.3644 52.9699 57.0686 52.2457 57.0923C51.2896 57.123 50.3453 57.0615 49.4034 56.839C48.1538 56.5456 47.3752 55.7646 46.8971 54.6192C46.6415 54.0086 46.4049 53.3909 46.1848 52.7661C46.1375 52.7117 46.1966 52.6572 46.1824 52.6028C45.3541 51.8904 44.779 51.0124 44.4714 49.9616C44.3601 49.5853 44.3388 49.1949 44.2726 48.8115C44.2252 48.8659 44.2205 48.9227 44.2418 48.9487C44.2442 48.8564 44.211 48.731 44.2631 48.6056C44.2655 48.544 44.2891 48.4801 44.2371 48.4233C44.1542 48.447 44.1684 48.5204 44.1661 48.5772C44.1187 49.7226 43.9507 50.8586 43.856 51.9993C43.714 53.7269 44.0501 55.3362 44.8145 56.8603C45.1884 57.6058 45.7399 58.2306 46.4214 58.73C46.9161 59.0921 47.4841 59.2341 48.0828 59.2838C49.7489 59.4234 51.3156 59.0163 52.8445 58.4152C53.1474 58.2945 53.4622 58.2022 53.7462 58.0342V58.0366Z" fill="#C1DEFE"/>
<path d="M51.6681 53.4096C51.4929 53.9492 51.4338 54.4983 51.5758 55.0544C51.8645 56.1975 52.946 56.8341 54.1956 56.5761C55.6061 56.2827 56.6403 55.4354 57.4332 54.2734C57.9562 53.509 58.297 52.6665 58.3064 51.7222C58.3254 50.0466 57.0237 49.0527 55.4097 49.5118C55.2085 49.5686 55.0168 49.6585 54.8228 49.7342C54.6192 49.9141 54.5577 50.1579 54.508 50.4087C54.4843 50.6809 54.5293 50.7235 54.7825 50.6241C55.1754 50.4679 55.5706 50.3401 55.9942 50.2999C56.6025 50.2407 57.0995 50.5318 57.2628 51.0643C57.3456 51.3293 57.3811 51.6039 57.3267 51.876C56.993 53.535 56.0321 54.6971 54.5056 55.4023C54.2287 55.5301 53.9282 55.5845 53.6276 55.5893C53.0573 55.5964 52.6431 55.2224 52.5153 54.6474C52.4135 54.1859 52.4798 53.7409 52.6005 53.2984C52.6265 53.2013 52.6715 53.109 52.6668 53.0073C52.662 52.9268 52.6242 52.8889 52.5413 52.9363C52.4325 52.9907 52.3141 53.0309 52.2124 53.0996C52.0325 53.2037 51.8527 53.3102 51.6728 53.4143L51.6681 53.4096Z" fill="#351E53"/>
<path d="M36.3726 33.4356C35.9798 32.2523 35.9987 31.0288 36.0602 29.8123C36.1194 28.6456 36.2661 27.4859 36.4436 26.3287C36.5052 25.9311 36.5525 25.4412 36.2614 25.0483C35.7053 25.7323 35.2343 26.473 34.7515 27.209C34.006 28.3474 33.5469 29.6041 33.2085 30.9128C33.199 30.9483 33.2014 30.9838 33.199 31.0217C33.2037 31.1613 33.2889 31.2228 33.4144 31.2489C34.3634 31.4737 35.1065 32.0228 35.7289 32.7469C35.9348 32.986 36.1052 33.2558 36.3726 33.438V33.4356Z" fill="#C1DEFE"/>
<path d="M52.5392 52.9318C52.6977 52.9839 52.5842 53.0833 52.5652 53.1496C52.4209 53.6323 52.3238 54.1128 52.4303 54.6192C52.5605 55.2464 52.9794 55.7481 53.8479 55.6298C54.894 55.4878 55.656 54.8961 56.3187 54.1222C56.8701 53.4809 57.2653 52.7662 57.3931 51.926C57.4736 51.4054 57.4073 50.9155 57.005 50.5131C56.7163 50.2268 56.3566 50.2078 55.9968 50.2244C55.559 50.2457 55.1401 50.3735 54.7449 50.5652C54.5721 50.648 54.4916 50.5983 54.5082 50.4043C54.2361 51.3202 53.5923 51.9568 52.9036 52.565C52.7758 52.6786 52.6622 52.8064 52.5416 52.9295L52.5392 52.9318Z" fill="#4E3A6A"/>
<path d="M70.6816 25.5307C70.2225 25.3461 69.7704 25.1402 69.2569 25.1568C69.2072 25.1568 69.1551 25.1237 69.1054 25.1071C69.0533 25.2302 69.1338 25.3154 69.1977 25.4029C70.7171 27.5116 71.5194 29.9113 72.0519 32.4223C72.0779 32.5454 72.085 32.6732 72.1536 32.7844C72.2507 32.6945 72.2152 32.5856 72.2033 32.4768C72.1489 31.9561 72.369 31.5633 72.7689 31.2532C73.0222 31.0592 73.3156 31.0923 73.6091 31.1041C73.699 31.1065 73.8552 31.1728 73.8032 30.9645C73.6896 30.2285 73.4553 29.5256 73.2044 28.8274C72.8352 28.5955 72.6009 28.2287 72.3146 27.9163C71.7702 27.3199 71.2874 26.6691 70.7857 26.0348C70.6626 25.881 70.6059 25.7224 70.6792 25.5307H70.6816Z" fill="#4E3A6A"/>
<path d="M73.8033 30.9672C73.7844 31.1115 73.6945 31.0358 73.6211 31.0287C72.6792 30.9175 72.3479 31.4168 72.1136 32.141C72.0449 32.354 72.1846 32.567 72.1562 32.7847C72.2485 33.348 72.3408 33.9136 72.4307 34.4769C72.4804 34.4437 72.4875 34.3869 72.5064 34.3372C72.6745 33.845 73.1762 33.6982 73.5951 34.013C73.6874 34.0816 73.7536 34.2307 73.9122 34.1455C73.9453 33.7219 74.0211 33.2959 74.0045 32.8723C73.9785 32.2357 74.0163 31.5872 73.8033 30.9672Z" fill="#48306B"/>
<path d="M73.9122 34.1433C73.6779 34.0912 73.5761 33.8404 73.3134 33.7954C72.8283 33.7149 72.4496 33.9776 72.4307 34.4746C72.5088 34.6142 72.4212 34.7752 72.4851 34.9195C72.4946 35.4307 72.5088 35.9396 72.6011 36.446C72.7076 36.1289 73.0152 35.9845 73.2258 35.7644C73.6092 35.3645 73.782 34.9053 73.8601 34.3847C73.8719 34.3042 73.8956 34.2261 73.9122 34.1457V34.1433Z" fill="#371A62"/>
<path d="M63.0493 21.7088C63.4374 22.0638 63.8445 22.3951 64.2657 22.7099C63.9344 22.2862 63.5439 21.9336 63.0493 21.7088Z" fill="#6581BA"/>
<path d="M44.2629 48.6084C44.1706 48.7291 44.2203 48.8616 44.218 49.006C44.289 48.9421 44.2535 48.8711 44.2748 48.8143C44.2724 48.7457 44.2677 48.677 44.2653 48.6084H44.2629Z" fill="#DBE9FA"/>
<path d="M52.2102 53.095C52.338 53.0784 52.4492 53.0264 52.5391 52.9317C52.4042 52.9341 52.2906 52.9814 52.2102 53.095Z" fill="#4E3A6A"/>
<path d="M72.4825 34.9172C72.4683 34.7681 72.5417 34.6096 72.4281 34.4723C72.4352 34.6214 72.4044 34.7752 72.4825 34.9172Z" fill="#48306B"/>
<path d="M33.4143 31.2464C33.3291 31.1848 33.2439 31.1209 33.1989 31.0192C33.1895 31.0712 33.18 31.1233 33.1705 31.1777C33.2392 31.2464 33.3244 31.2511 33.4119 31.2487L33.4143 31.2464Z" fill="#CCCFE0"/>
<path d="M46.1847 52.605C46.1137 52.6618 46.1113 52.7163 46.1871 52.7683C46.2107 52.721 46.2581 52.7163 46.303 52.7092C46.2628 52.6737 46.2249 52.6405 46.1847 52.605Z" fill="#DAEAFC"/>
<path d="M76.7071 23.7794C78.2194 23.8883 79.5352 23.5262 80.683 22.5866C81.128 22.2222 81.6107 21.9074 82.0699 21.5619C82.4509 21.2755 82.8769 21.3087 83.3076 21.3607C83.4875 21.382 83.6673 21.4152 83.8496 21.4246C85.7713 21.524 87.6906 21.6376 89.6099 21.7938C91.6074 21.9571 93.5811 21.7583 95.5194 21.2471C96.3146 21.0365 96.9181 20.5395 97.3961 19.8958C98.2599 18.7361 99.0575 17.5315 99.403 16.0997C99.6539 15.056 99.7154 13.9958 99.59 12.9213C99.4527 11.7546 99.3557 10.5831 99.0835 9.43293C98.6812 7.73133 97.744 6.41785 96.4021 5.32447C94.7668 3.99206 92.864 3.26078 90.8737 2.71645C89.1603 2.24786 87.4303 1.82187 85.6553 1.63017C83.5845 1.40771 81.5113 1.23731 79.4287 1.50238C78.5767 1.61124 77.7413 1.78164 76.9296 2.07746C75.8977 2.45376 75.1073 3.10458 74.4659 3.9897C73.2234 5.70313 72.4448 7.6059 72.1395 9.68379C71.9336 11.0919 71.9076 12.4977 72.3383 13.9082C72.8613 15.6217 73.8482 16.8878 75.4126 17.7493C76.2314 18.2013 77.0929 18.5515 77.9259 18.9633C78.2052 19.1006 78.475 19.2544 78.6927 19.4816C78.9933 19.7916 78.9814 20.0804 78.6548 20.3667C78.6122 20.4046 78.5791 20.4354 78.5673 20.4945C78.3282 21.6471 77.6656 22.5724 76.9485 23.467C76.8751 23.5569 76.8041 23.6492 76.7071 23.7747V23.7794Z" fill="#FEFEFE"/>
<path d="M22.1896 30.269C21.9221 29.8194 21.6452 29.4336 21.4606 28.9981C21.2405 28.4751 21.0204 27.9355 21.0086 27.3723C20.9944 26.693 21.0843 26.0115 21.6429 25.5097C22.6345 24.6199 23.3137 23.5478 23.6001 22.232C24.0663 20.0807 23.4486 18.256 21.9221 16.7343C20.7199 15.5368 19.2952 14.6375 17.7261 14.0008C15.7855 13.2128 13.7691 13.1631 11.722 13.5204C9.85235 13.847 8.20754 14.6919 6.58877 15.6291C4.79724 16.6657 3.46009 18.1117 2.56314 19.9482C1.82712 21.4557 1.47686 23.0745 1.69459 24.7571C1.87209 26.1393 2.52054 27.2965 3.64232 28.158C4.00441 28.4349 4.37834 28.6976 4.73334 28.9839C5.92138 29.9424 7.30585 30.4039 8.78973 30.6358C11.1635 31.0074 13.4425 30.6903 15.6482 29.7626C16.105 29.5709 16.5617 29.5141 17.0161 29.7768C17.0587 29.8028 17.1226 29.8123 17.1723 29.8028C17.9415 29.6797 18.7012 29.8217 19.4608 29.8904C20.3578 29.9708 21.2524 30.0892 22.1872 30.2666L22.1896 30.269Z" fill="#FEFEFE"/>
<path d="M32.8109 42.9657C33.1896 43.3231 33.6676 43.4603 34.1528 43.581C35.0403 43.8011 35.9349 43.8082 36.8223 43.6142C37.4211 43.484 37.866 43.0793 38.2849 42.6604C38.4198 42.5232 38.3891 42.3196 38.4246 42.1445C38.6943 40.7955 38.5121 39.4797 38.1074 38.1828C38.1027 38.1662 38.0838 38.1567 38.0719 38.1425C37.5158 36.6113 36.5644 35.3144 35.6438 33.9939C35.4497 33.7146 35.1799 33.5087 34.948 33.2673C34.5764 32.9928 34.2001 32.7277 33.7434 32.6094C33.5114 32.7017 33.457 32.8555 33.5682 33.0922C33.625 33.2129 33.7339 33.3052 33.7481 33.4472C33.7741 33.5655 33.812 33.6767 33.9469 33.717C33.9824 33.7099 34.0108 33.6554 34.0108 33.6554C34.1717 33.9276 34.4344 34.1027 34.6403 34.3346C34.6995 34.4009 34.7918 34.4459 34.7681 34.5595C34.78 34.6163 34.8202 34.6541 34.8604 34.6896C35.4118 35.1559 35.8118 35.7381 36.1313 36.3794C36.1857 36.4906 36.2189 36.6232 36.349 36.68C36.5218 36.8101 36.562 37.016 36.6354 37.1959C37.0708 38.2467 37.3761 39.3306 37.3927 40.476C37.3974 40.7411 37.3454 41.0014 37.2933 41.2618C37.2791 41.3375 37.2838 41.4322 37.1797 41.4606C37.0685 41.5836 36.9265 41.6806 36.8531 41.8392C36.8626 41.8629 36.8957 41.8794 36.8981 41.8913C36.9028 41.9268 36.9383 41.9007 36.9099 41.896C36.8484 41.8865 36.8555 41.8297 36.8626 41.7824C36.9596 40.9375 36.8531 40.1163 36.6117 39.3069C36.207 38.7082 35.781 38.1449 35.1349 37.7592C34.0818 37.1296 32.8512 37.4018 32.1033 38.2916C31.2655 39.288 31.1921 40.5376 31.9116 41.7232C32.1767 42.1611 32.4772 42.5729 32.8109 42.9634V42.9657Z" fill="#48306B"/>
<path d="M33.7836 33.4354C33.8664 33.2958 33.7292 33.2248 33.6747 33.1419C33.5351 32.9337 33.5304 32.7609 33.7457 32.6095C32.5506 32.1953 31.9424 32.1906 31.0076 33.0213C30.1934 33.7431 29.8716 34.6803 29.7296 35.7429C29.5213 37.3001 30.0325 38.6893 30.6076 40.0691C30.8514 40.6536 31.0786 41.2618 31.4998 41.7517C31.8903 42.2038 32.2832 42.6605 32.8133 42.9658C32.7518 42.6605 32.4985 42.483 32.3352 42.244C31.8572 41.5411 31.4265 40.8264 31.4974 39.9223C31.5992 38.6373 32.676 37.3498 34.1433 37.4942C34.9314 37.5723 35.5373 38.0267 36.0366 38.6207C36.2165 38.836 36.3727 39.068 36.5407 39.2928C36.6401 39.1863 36.581 39.0656 36.5573 38.9544C36.2899 37.7214 35.7242 36.6256 34.9977 35.6056C34.5528 34.9808 34.0368 34.4105 33.6085 33.7738C33.5635 33.7052 33.5067 33.6437 33.4665 33.5727C33.4262 33.4969 33.315 33.4188 33.3907 33.336C33.4688 33.2484 33.554 33.3502 33.6321 33.3904C33.6795 33.4165 33.7244 33.4496 33.786 33.4378L33.7836 33.4354Z" fill="#4E3A6A"/>
<path d="M34.9502 33.2676C34.9076 33.3007 34.9289 33.3315 34.9573 33.3575C35.7501 34.0556 36.2258 34.9881 36.8104 35.8401C37.2908 36.5406 37.6907 37.2837 37.9889 38.0789C38.0008 38.1073 37.996 38.1854 38.0718 38.1428C37.9676 37.7192 37.8114 37.3121 37.6292 36.9169C37.3476 36.3063 37.1346 35.6555 36.7204 35.1206C36.2708 34.5408 35.8022 33.9704 35.2721 33.4593C35.1821 33.3741 35.0804 33.2912 34.9478 33.2676H34.9502Z" fill="#4D3969"/>
<path d="M80.6642 44.9396C81.9729 44.142 82.7634 42.5375 82.1315 41.0417C81.7315 40.0927 80.9695 39.5295 79.9778 39.2786C78.1058 38.8029 75.9735 39.6928 75.0766 41.3234C74.3476 42.6463 74.7926 44.2225 76.0942 44.9372C76.79 45.3348 77.526 45.5738 78.3638 45.5596C78.3236 45.4129 78.2123 45.4082 78.1295 45.3774C77.6491 45.207 77.3343 44.8851 77.2846 44.3716C77.2349 43.858 77.4834 43.4794 77.9141 43.2119C77.9686 43.1788 78.023 43.1433 78.0822 43.122C78.5673 42.954 79.0028 42.7102 79.4264 42.4144C79.8287 42.1328 80.3068 42.173 80.7115 42.4594C81.1328 42.7576 81.2984 43.1883 81.2156 43.7042C81.1351 44.213 80.8062 44.5467 80.4157 44.8307C80.2618 44.9443 80.0867 45.0248 79.921 45.1218C79.8761 45.1478 79.8122 45.1857 79.8382 45.2449C79.8713 45.3253 79.9447 45.2875 80.0039 45.2685H79.9991C80.0796 45.2046 80.1861 45.1975 80.2784 45.1549C80.321 45.1549 80.3612 45.1549 80.3849 45.11C80.4583 45.02 80.5719 44.994 80.6665 44.9372L80.6642 44.9396Z" fill="#FEFEFE"/>
<path d="M80.0015 45.2709C79.966 45.2662 79.9305 45.2614 79.8192 45.2496C79.9589 45.1762 80.0464 45.136 80.1316 45.0863C80.676 44.7786 81.1351 44.4094 81.2795 43.7492C81.4593 42.9256 80.8061 42.1328 79.9683 42.1801C79.6559 42.1967 79.3862 42.2913 79.1566 42.5114C78.9152 42.7433 78.6075 42.8569 78.2951 42.9634C77.8928 43.1007 77.5378 43.309 77.339 43.7208C77.0077 44.4118 77.3154 45.1739 78.0395 45.4295C78.1224 45.4579 78.2076 45.4815 78.288 45.5241C77.7153 45.5194 77.1639 45.42 76.6409 45.181C76.461 45.0981 76.3001 44.968 76.0942 44.9419C76.6196 45.3419 77.2302 45.5076 77.8691 45.5667C78.6004 45.6377 79.3199 45.5904 80.0015 45.2709Z" fill="#F5F9FD"/>
<path d="M80.6641 44.9397C80.5411 44.9515 80.4322 44.9823 80.3825 45.1124C80.4866 45.0698 80.5884 45.0272 80.6641 44.9397Z" fill="#F5F9FD"/>
<path d="M80.2759 45.1578C80.1646 45.1507 80.0629 45.1696 79.9966 45.2737C80.1031 45.269 80.1954 45.2288 80.2759 45.1578Z" fill="#F5F9FD"/>
<path d="M70.6816 25.5313C70.4165 25.6804 70.5775 25.8579 70.6769 25.9951C70.9041 26.3123 71.1549 26.6128 71.3987 26.9181C71.8933 27.5334 72.3879 28.1488 72.9559 28.7026C73.0198 28.7641 73.0648 28.9037 73.2068 28.8304C72.9394 28.1748 72.6554 27.5311 72.272 26.9252C71.872 26.2957 71.3727 25.8153 70.684 25.5313H70.6816Z" fill="#BB96EE"/>
<path d="M39.3902 10.3681C39.3169 10.2593 39.2435 10.148 39.1725 10.0392C38.4649 9.09963 37.5608 8.42041 36.4603 8.00389C36.0249 7.83822 35.5729 7.74829 35.1137 7.68913C34.922 7.66309 34.7445 7.73172 34.5599 7.78852C34.2073 7.89502 33.8334 7.93289 33.4737 8.01809C32.217 8.31391 31.1236 8.90794 30.2716 9.88535C29.3486 10.9432 28.8303 12.1691 28.9226 13.6033C28.9794 14.5145 29.2611 15.3523 29.7462 16.1214C30.0018 16.4314 30.2598 16.7415 30.5154 17.0515C30.9011 17.3497 31.2987 17.6289 31.72 17.8727C32.3495 18.1401 32.9885 18.3555 33.6748 18.4383C34.7043 18.5638 35.6888 18.4123 36.6355 18.0147C37.878 17.4917 38.8317 16.6326 39.4731 15.4446C39.7192 14.9878 39.9038 14.5026 39.9961 13.9867C40.0671 13.5323 40.1239 13.0779 40.1026 12.6164C40.015 12.1762 39.9629 11.729 39.8304 11.3006C39.6837 10.9906 39.537 10.6805 39.3926 10.3705L39.3902 10.3681Z" fill="#FEE262"/>
<path d="M36.9312 61.9153C36.8555 61.7875 36.7798 61.6597 36.704 61.5319C36.5975 61.5437 36.5384 61.5982 36.5431 61.7094C36.5478 61.8064 36.6188 61.8443 36.6922 61.8822C36.7703 61.92 36.8507 61.9153 36.9312 61.9153Z" fill="#F29C4B"/>
<path d="M40.3701 64.5518C40.3346 64.5518 40.2967 64.5542 40.2612 64.5565C40.2612 64.5897 40.2612 64.6204 40.2612 64.6536C40.3228 64.6465 40.4387 64.6985 40.3677 64.5518H40.3701Z" fill="#FEEA8C"/>
<path d="M53.6609 41.1034C55.2395 41.0466 56.818 41.004 58.3965 40.9236C59.2154 40.881 60.0484 40.8644 60.8413 40.6561C61.4708 40.4905 62.1098 40.4337 62.7417 40.3248C63.8469 40.1308 64.8527 39.7024 65.7899 39.0965C65.9887 38.9664 66.1946 38.8528 66.4147 38.7605C67.3163 38.3866 67.9127 37.7239 68.3766 36.8672C69.0842 35.5632 69.2428 34.2 69.0487 32.7587C68.9256 31.8594 68.7079 30.9885 68.4168 30.1294C67.482 27.3865 65.9177 25.053 63.8398 23.0508C62.9925 22.2343 61.9157 21.8486 60.8271 21.4983C60.2875 21.3232 59.7337 21.2617 59.1586 21.2617C58.6924 21.2617 58.2285 21.1007 57.7599 21.025C55.3649 20.6392 52.9604 20.3671 50.5346 20.6676C47.4296 21.0534 44.5589 22.0639 42.0242 23.943C41.4373 24.3785 40.9403 24.8873 40.5546 25.5098C40.3581 25.8269 40.1428 26.1345 39.9061 26.4256C39.163 27.3368 38.789 28.3947 38.7393 29.5519C38.6684 31.2796 38.9855 32.9623 39.402 34.6355C39.8659 36.4933 40.919 37.8588 42.4762 38.9664C44.4027 40.3367 46.5421 40.8786 48.8401 41.0395C50.447 41.1508 52.0516 41.1626 53.6585 41.1058L53.6609 41.1034Z" fill="#351E53"/>
<path d="M50.1677 51.5168C50.7736 51.4363 51.4054 51.5381 51.9805 51.2422C52.4231 51.015 52.7568 50.4542 52.7 50.0211C52.629 49.4696 52.1935 49.0531 51.6303 48.9253C51.3226 48.8567 51.0292 48.9159 50.7404 48.949C50.1866 49.0105 49.6068 48.9135 49.0885 49.2069C48.698 49.4294 48.4448 49.7394 48.433 50.2033C48.4211 50.6885 48.627 51.0624 49.0554 51.3014C49.4009 51.4931 49.7772 51.5381 50.1677 51.5191V51.5168Z" fill="#C1DEFE"/>
<path d="M53.3081 53.3723C53.204 53.5403 53.0478 53.6776 52.9863 53.8716C52.7898 54.5082 53.1164 55.0384 53.8169 55.2111C54.6666 55.4218 55.8002 54.5177 55.7789 53.6894C55.767 53.2468 55.4831 52.9723 55.0239 52.9321C54.6666 52.9013 54.3187 53.0054 53.9637 52.9889C53.9542 53.1167 54.0749 53.1143 54.1412 53.164C54.3352 53.3084 54.411 53.5427 54.3305 53.7675C54.2524 53.9852 54.037 54.1296 53.8264 54.1059C53.604 54.0799 53.417 53.8929 53.3791 53.6539C53.3649 53.5569 53.3886 53.4504 53.3058 53.3723H53.3081Z" fill="#48306B"/>
<path d="M55.384 52.4657C55.7981 52.4563 56.1673 52.0705 56.1578 51.6587C56.1484 51.3156 55.8691 51.0126 55.5662 51.0221C55.1994 51.0339 54.771 51.5262 54.7852 51.9167C54.7994 52.2409 55.0503 52.4705 55.384 52.4634V52.4657Z" fill="#BB96EE"/>
<path d="M53.3083 53.372C53.2799 53.6892 53.3201 53.9779 53.6444 54.1317C53.926 54.2642 54.2502 54.1388 54.3756 53.8596C54.5176 53.5448 54.4135 53.2087 54.1295 53.0691C54.0727 53.0431 54.0183 53.0147 53.9639 52.9863C53.6562 52.965 53.4692 53.1448 53.3083 53.3697V53.372Z" fill="#371A62"/>
<path d="M94.3953 15.028C93.8818 14.2162 93.2593 13.5086 92.4263 13.0092C92.1115 12.8199 91.792 12.64 91.4181 12.6093C90.6821 12.5501 90.2727 13.1465 90.5945 13.8115C90.746 14.1239 90.9235 14.4221 90.9874 14.77C91.0134 14.9144 91.0323 15.0587 91.0205 15.2055C91.011 15.3404 90.9613 15.4658 90.8264 15.5108C90.6726 15.5628 90.6229 15.4161 90.5638 15.3214C90.2324 14.7771 89.9484 14.2044 89.5698 13.6861C88.9118 12.7844 88.0812 12.1383 86.9759 11.8851C86.1666 11.6981 85.5962 12.2235 85.7216 13.0495C85.7808 13.4376 85.8826 13.8163 85.9536 14.202C86.008 14.4931 85.9583 14.5452 85.6625 14.5381C85.3027 14.531 84.962 14.441 84.6259 14.3109C84.2236 14.1547 84.0082 13.8518 83.8757 13.4613C83.826 13.3145 83.8662 13.2506 83.9964 13.1891C84.2875 13.0542 84.5502 12.872 84.7703 12.6329C85.1016 12.2708 85.1773 11.8804 84.9785 11.5632C84.7561 11.213 84.2023 11.0331 83.7834 11.1822C83.2769 11.3621 83.0332 11.7668 82.9006 12.2543C82.8083 12.5856 82.8107 12.5856 82.4865 12.4838C82.0131 12.3324 81.6416 12.0224 81.2653 11.7171C81.0878 11.5727 80.8795 11.3692 80.6689 11.5609C80.4654 11.7478 80.6689 11.9679 80.7801 12.1454C81.2203 12.8436 81.793 13.369 82.6545 13.4707C82.7776 13.4849 82.8131 13.5512 82.8438 13.6601C83.2343 15.0706 84.5738 15.9178 86.0269 15.6788C86.8174 15.5486 87.2457 14.9451 87.099 14.1547C87.0327 13.7973 86.9428 13.4471 86.8529 13.0376C87.3806 13.1938 87.8114 13.4329 88.1877 13.7642C88.6894 14.2091 89.0941 14.7392 89.4656 15.293C89.6171 15.5202 89.7662 15.7498 89.9603 15.9462C90.2443 16.2326 90.5661 16.4408 90.985 16.287C91.4418 16.1213 91.7116 15.7806 91.7731 15.293C91.8157 14.9475 91.7542 14.602 91.7116 14.2138C92.2772 14.5925 92.7292 15.0303 93.1008 15.551C93.2854 15.8113 93.4392 16.0929 93.6262 16.3533C94.2107 17.1721 95.0319 17.326 95.8674 16.7651C96.0283 16.6562 96.1514 16.6396 96.3359 16.7106C96.7525 16.8692 97.1856 16.926 97.621 16.7745C97.8222 16.7059 97.9737 16.5852 97.9784 16.3438C97.9831 16.0598 97.7417 15.8941 97.498 16.0361C97.1785 16.2231 96.9039 16.048 96.6247 15.9438C96.5016 15.8965 96.5939 15.7805 96.6128 15.7025C96.8519 14.7298 96.4306 13.6932 95.6141 13.2506C95.607 13.2459 95.5976 13.2412 95.5905 13.2364C95.271 13.0873 94.9467 12.9359 94.613 13.1891C94.2699 13.4494 94.232 13.8186 94.3101 14.2044C94.4213 14.7653 94.7006 15.2552 95.0059 15.7309C95.0319 15.7853 95.1006 15.8302 95.0627 15.8965C95.0367 15.9438 94.9846 15.9249 94.942 15.9036C94.8828 15.8539 94.8237 15.7995 94.774 15.7356C94.6296 15.5084 94.5468 15.2433 94.3835 15.0232L94.3953 15.028Z" fill="#4E95E5"/>
<path d="M82.0179 7.25127C82.6048 7.26783 83.1515 7.05957 83.7147 6.96017C84.5123 6.81818 85.1749 7.0572 85.7406 7.60626C85.9701 7.82872 86.1831 8.06775 86.3985 8.30205C87.3475 9.32443 88.4811 9.74569 89.8585 9.36466C90.0241 9.3197 90.1448 9.35283 90.2892 9.44276C91.3424 10.1007 92.4689 10.5006 93.7184 10.1456C94.064 10.0463 94.2344 10.1244 94.445 10.3705C94.916 10.9195 95.5029 11.2887 96.2342 11.3905C96.4756 11.4236 96.7075 11.4094 96.9252 11.2887C97.0578 11.2154 97.124 11.097 97.0956 10.9456C97.0672 10.787 96.9418 10.7681 96.8045 10.7539C95.9715 10.6639 95.4295 10.1385 94.9562 9.51139C94.8544 9.37886 94.9893 9.31023 95.0438 9.23213C95.6496 8.37778 95.794 7.46663 95.3917 6.48685C95.1479 5.89519 94.7598 5.46683 94.0924 5.3627C93.5694 5.28224 93.0132 5.59936 92.8097 6.09399C92.6298 6.53181 92.6322 6.97911 92.7458 7.43586C92.8807 7.97072 93.0984 8.47245 93.3753 8.94577C93.4889 9.1422 93.5007 9.21083 93.2404 9.2416C92.4831 9.3339 91.8252 9.057 91.1767 8.72567C91.0607 8.66651 91.0891 8.59551 91.1246 8.50321C91.3779 7.79559 91.2808 7.11874 90.9187 6.47738C90.6513 6.00169 90.2466 5.79343 89.8206 5.87863C89.3733 5.96856 89.0373 6.38035 88.9734 6.90574C88.9166 7.3767 89.0491 7.80742 89.2384 8.23105C89.352 8.48665 89.3378 8.50795 89.0657 8.50085C88.6136 8.49138 88.2444 8.28785 87.9037 8.01095C87.5605 7.73406 87.2836 7.39327 86.9949 7.0643C86.3914 6.37562 85.6909 5.84076 84.7584 5.68693C84.1762 5.5899 83.6035 5.65853 83.0568 5.84549C81.6842 6.31645 80.3257 6.16262 78.9602 5.82893C78.8797 5.80999 78.7756 5.71296 78.7093 5.80763C78.6336 5.91886 78.7709 5.98039 78.8253 6.05139C79.0667 6.36142 79.3885 6.57205 79.7388 6.73298C80.4606 7.06194 81.2274 7.20867 82.0155 7.25363L82.0179 7.25127Z" fill="#4E95E5"/>
<path d="M74.4351 9.63919C74.4682 10.3847 74.6836 10.8651 74.9534 11.3242C75.19 11.7266 75.4693 12.0981 75.7675 12.4555C75.8787 12.588 75.997 12.7229 76.1343 12.8223C76.4869 13.0779 76.823 13.3122 77.3224 13.1063C77.9708 12.8412 78.6571 12.6685 79.2275 12.2306C79.902 11.7124 80.2546 10.6876 80.0203 9.93266C79.8262 9.31023 79.3245 9.01677 78.6855 9.1493C78.3589 9.21557 78.0489 9.3197 77.7815 9.5185C77.656 9.6108 77.6063 9.58713 77.5401 9.45933C77.3153 9.01204 76.9674 8.69018 76.5035 8.48901C75.6397 8.11509 74.3806 8.86531 74.4351 9.64156V9.63919Z" fill="#FE8A97"/>
<path d="M94.3951 15.028C94.5063 15.2765 94.5986 15.5345 94.7856 15.7428C94.6957 15.4824 94.6152 15.2174 94.3951 15.028Z" fill="#F2F7FC"/>
<path d="M94.9492 15.9084C95.0012 15.9723 95.1006 15.9889 95.1267 15.9368C95.1716 15.8493 95.0722 15.7925 95.0107 15.7357C94.9965 15.7948 95.0888 15.8942 94.9492 15.9108V15.9084Z" fill="#F2F7FC"/>
<path d="M94.7831 15.7399C94.8021 15.8322 94.8541 15.8914 94.9512 15.9103C94.9251 15.8251 94.866 15.7707 94.7831 15.7399Z" fill="#F2F7FC"/>
<path d="M14.5099 20.3313C13.7976 20.5609 13.2509 21.0461 12.671 21.536C12.5953 20.9774 12.4533 20.4686 12.1599 20.0095C11.0972 18.3528 8.86315 18.4664 7.739 19.4439C6.71662 20.3313 6.71188 21.6164 7.18994 22.6932C7.4834 23.3535 7.91649 23.9191 8.40875 24.4327C9.10691 25.164 9.79559 25.9071 10.5434 26.5934C10.8274 26.8538 11.1659 27.036 11.4925 27.2348C11.7504 27.391 11.9753 27.2774 12.2379 27.2111C12.6734 27.1023 13.1018 26.9792 13.5065 26.7946C14.7182 26.2479 15.8707 25.6042 16.8055 24.6362C17.2126 24.215 17.5794 23.7535 17.6883 23.1524C17.8326 22.3524 17.5439 21.659 17.0872 21.0319C16.5121 20.239 15.7122 20.0355 14.7844 20.2414C14.6992 20.2911 14.6164 20.3455 14.5099 20.329V20.3313Z" fill="#FE8A97"/>
<path d="M14.5097 20.3313C14.6446 20.4355 14.7132 20.3384 14.7842 20.2438C14.6848 20.2438 14.5925 20.2722 14.5097 20.3313Z" fill="#C195B8"/>
<path d="M33.3601 41.6169C33.3411 42.2204 33.6062 42.6132 34.0677 42.8404C34.5386 43.0747 35.0356 43.0487 35.4498 42.6961C35.8427 42.3624 35.987 41.9222 35.9018 41.3991C35.8214 40.9093 35.58 40.5353 35.1658 40.2797C34.8439 40.0809 34.4866 40.1259 34.2144 40.3886C34.1079 40.4927 33.9754 40.5519 33.8618 40.6395C33.5281 40.8998 33.3246 41.2311 33.3601 41.6145V41.6169Z" fill="#371A62"/>
<path d="M33.7835 33.4354C33.6368 33.3242 33.4711 33.0946 33.3007 33.2508C33.1445 33.3904 33.3788 33.5514 33.4664 33.6839C34.0155 34.5359 34.716 35.2719 35.2674 36.1239C35.8638 37.0445 36.2969 38.029 36.5217 39.1035C36.5359 39.165 36.5335 39.2289 36.5406 39.2928C36.7394 40.0312 36.853 40.7814 36.8199 41.5482C36.8152 41.6523 36.7797 41.7659 36.8649 41.8606C36.9832 41.7399 37.1749 41.6807 37.1962 41.4772C37.3264 41.276 37.3193 41.0465 37.3311 40.824C37.4092 39.4537 37.0968 38.1592 36.5383 36.9167C36.498 36.8268 36.4483 36.7392 36.375 36.6682C36.1525 36.3274 36.001 35.9488 35.7691 35.6103C35.4922 35.2033 35.1562 34.8554 34.7941 34.5264C34.5527 34.2164 34.2781 33.9395 33.9658 33.7005C33.8782 33.6318 33.8238 33.5395 33.7835 33.4378V33.4354Z" fill="#4E95E5"/>
<path d="M36.3726 36.6687C36.6471 37.3527 36.9334 38.0343 37.0873 38.7608C37.279 39.6625 37.2908 40.5689 37.1938 41.4801C37.2056 41.5227 37.208 41.5937 37.2293 41.6008C37.2813 41.6173 37.2932 41.5582 37.3074 41.5179C37.4091 41.2055 37.4541 40.8837 37.4707 40.5594C37.5109 39.7595 37.2908 39.0022 37.092 38.2425C36.9476 37.6982 36.7417 37.1775 36.4672 36.6853C36.4506 36.6569 36.4294 36.5173 36.3749 36.6711L36.3726 36.6687Z" fill="#372359"/>
<path d="M33.9658 33.7006C34.2 34.0177 34.484 34.2851 34.7941 34.5265C34.8272 34.5194 34.8887 34.5076 34.8509 34.4697C34.5787 34.1881 34.3018 33.9136 34.0226 33.6414C33.9847 33.6059 33.9729 33.6674 33.9658 33.7006Z" fill="#3A2960"/>
<path d="M36.8651 41.8629C36.8651 41.9126 36.7918 41.9812 36.8557 42.0025C36.9574 42.0333 36.9977 41.9244 37.0568 41.8582C36.9858 41.7919 36.9267 41.8937 36.8628 41.8629H36.8651Z" fill="#362257"/>
<path d="M29.8953 35.8802C29.8977 36.5452 30.1627 37.0825 30.6929 37.4824C30.9768 37.6954 31.0952 37.6457 31.1567 37.3002C31.2774 36.6352 31.5259 36.0246 31.9093 35.466C32.0892 35.2034 32.2383 34.917 32.3306 34.6093C32.4252 34.2898 32.456 33.968 32.1744 33.7218C31.8856 33.4686 31.5543 33.497 31.2253 33.6485C30.4325 34.0129 29.8977 34.9123 29.8929 35.8826L29.8953 35.8802Z" fill="#BB96EE"/>
<path d="M78.6737 45.4296C79.5564 45.3515 80.354 45.0533 80.9172 44.3528C81.5136 43.6144 81.2083 42.4737 80.212 42.2772C79.8523 42.2062 79.5328 42.3198 79.2677 42.5305C78.953 42.7789 78.6074 42.9399 78.2382 43.07C77.7649 43.2381 77.4123 43.5339 77.3129 44.0498C77.1519 44.8781 77.8335 45.3728 78.4299 45.4296C78.5104 45.4367 78.5932 45.4296 78.6761 45.4296H78.6737Z" fill="#C1DEFE"/>
<path d="M34.7848 8.60723C34.186 8.59303 33.6701 8.86756 33.1352 9.06163C32.1176 9.43082 31.4029 10.1976 30.7213 10.981C30.0989 11.698 30.4207 12.7559 31.2893 12.9713C31.791 13.0967 32.2454 12.9618 32.6264 12.6068C32.7589 12.4838 32.8986 12.3607 33.0122 12.2211C33.4382 11.7004 34.0038 11.4093 34.6262 11.194C35.0309 11.0543 35.3954 11.2224 35.7788 11.2744C36.1409 11.3241 36.5077 11.3809 36.8201 11.1064C37.2413 10.7372 37.2579 10.0958 36.8106 9.58702C36.2781 8.98116 35.6036 8.63327 34.7848 8.60723Z" fill="#FEF7D4"/>
<path d="M36.7585 13.8779C36.6402 14.5571 36.1692 14.9239 35.374 14.9736C35.0498 14.9949 34.7232 15.0209 34.4108 15.1393C33.9375 15.3168 33.5801 15.8043 33.5801 16.2871C33.5801 16.7864 33.9446 17.255 34.4345 17.4444C34.8392 17.6006 35.2415 17.5319 35.6462 17.4893C36.4035 17.4112 37.1277 17.2314 37.7714 16.7864C38.24 16.4622 38.5311 16.0031 38.7961 15.5274C39.0778 15.0186 39.4091 14.5216 39.4683 13.9252C39.5464 13.1489 38.9807 12.4602 38.1524 12.5218C37.982 12.5336 37.8116 12.5596 37.6389 12.562C37.6176 12.6496 37.6933 12.6638 37.743 12.6969C38.1169 12.9407 38.2329 13.3383 38.0294 13.6791C37.8164 14.0388 37.3691 14.1547 36.981 13.9512C36.9123 13.9157 36.8531 13.84 36.7609 13.8779H36.7585Z" fill="#FEC23C"/>
<path d="M30.5673 15.7311C30.5673 16.3488 30.9933 16.7724 31.6086 16.7819C32.089 16.789 32.6286 16.3961 32.6404 15.7311C32.6499 15.2246 32.0867 14.6874 31.5944 14.7016C31.0335 14.7182 30.5673 15.1868 30.5649 15.7311H30.5673Z" fill="#FEC23C"/>
<path d="M36.7584 13.8776C37.2436 14.2515 37.769 14.1971 38.0695 13.745C38.3393 13.338 38.1784 12.8102 37.7264 12.6161C37.6956 12.6019 37.6672 12.5783 37.6388 12.5593C37.0637 12.4694 36.6803 12.7203 36.5762 13.248C36.5289 13.4918 36.6283 13.6882 36.7608 13.8752L36.7584 13.8776Z" fill="#F78922"/>
<path d="M65.5769 26.6996C64.8645 25.5849 64.0788 24.5342 63.1037 23.6277C62.7582 23.3059 62.4079 23.0479 61.9394 22.9178C61.1513 22.7 60.3821 22.4089 59.5988 22.1723C58.7113 21.9048 57.7978 21.7534 56.8771 21.6516C55.7648 21.5309 54.6478 21.5096 53.5307 21.4765C53.2136 21.467 52.8965 21.4339 52.5794 21.4339C52.4918 21.4339 52.3948 21.4079 52.319 21.4836C52.3451 21.5167 52.3829 21.512 52.4184 21.5144C52.1936 21.5002 51.9711 21.557 51.7439 21.5428C51.2848 21.6066 50.821 21.6209 50.3666 21.7226C50.0068 21.7226 49.6637 21.8551 49.3063 21.8693H49.3087C49.2117 21.9569 49.0933 21.9261 48.9821 21.9261C47.5692 22.3214 46.1587 22.7332 44.85 23.4006C43.7779 23.9472 42.7389 24.6004 41.9508 25.5092C41.1841 26.392 40.4173 27.3149 40.1049 28.5006C39.8966 29.2887 39.8943 30.0815 40.0102 30.8791C40.1948 32.1476 40.4741 33.3948 40.8669 34.616C41.274 35.8845 41.8988 36.9992 43.0513 37.7518C43.6075 38.1139 44.1376 38.5138 44.7056 38.8593C45.5647 39.3824 46.5113 39.619 47.484 39.7776C48.4875 39.9409 49.5004 40.0048 50.518 40.0687C51.7368 40.1444 52.9557 40.1917 54.1768 40.1562C55.2181 40.1255 56.2595 39.993 57.3008 39.9551C59.2627 39.8841 61.1584 39.3989 63.073 39.0558C64.0433 38.8806 64.9521 38.4972 65.8159 38.005C66.2939 37.7328 66.772 37.463 67.0749 36.9897C67.3613 36.5424 67.508 36.0289 67.7187 35.5461C68.0452 34.8006 68.0216 34.0291 67.9506 33.241C67.792 31.4944 67.1743 29.8851 66.5377 28.2782C66.5211 28.2379 66.488 28.2048 66.462 28.1669C66.3744 28.1409 66.3673 28.051 66.3223 27.9894C66.3034 27.9208 66.249 27.8735 66.2182 27.8096C66.1709 27.7149 66.1046 27.6321 66.0502 27.5421C65.965 27.4285 65.9035 27.3007 65.8301 27.1824C65.7993 27.1185 65.7591 27.0594 65.7165 27.0049C65.6692 26.9032 65.565 26.8251 65.5769 26.6973V26.6996Z" fill="#4E3A6A"/>
<path d="M50.3477 21.759C50.821 21.6904 51.292 21.6241 51.77 21.5981C51.7535 21.4632 51.6659 21.5318 51.602 21.5389C51.1784 21.5531 50.7571 21.5768 50.3477 21.7093C50.3287 21.7212 50.3216 21.7306 50.3287 21.7425C50.3358 21.7543 50.3406 21.759 50.3477 21.759Z" fill="#7A6B8E"/>
<path d="M50.3477 21.7585C50.3477 21.7419 50.3477 21.7254 50.3477 21.7088C49.9903 21.7088 49.6424 21.7538 49.304 21.8744C49.5596 21.988 49.7868 21.8058 50.0305 21.8058C50.137 21.8058 50.2412 21.7751 50.3477 21.7585Z" fill="#7A6C8F"/>
<path d="M51.6018 21.5388C51.661 21.5506 51.7296 21.5317 51.7698 21.5979C52.0302 21.6263 52.2763 21.4962 52.5698 21.5601C52.4727 21.4559 52.3875 21.508 52.3165 21.4843C52.0775 21.5127 51.8337 21.4346 51.5994 21.5364L51.6018 21.5388Z" fill="#67567E"/>
<path d="M65.7922 27.1996C65.8395 27.3416 65.9247 27.4599 66.017 27.5735C66.0714 27.583 66.1022 27.5688 66.0833 27.5049C66.0052 27.3818 65.9294 27.2588 65.8513 27.1357C65.7993 27.1262 65.7709 27.1381 65.7922 27.1996Z" fill="#ADA4B9"/>
<path d="M66.0832 27.5051C66.0619 27.5288 66.0406 27.5501 66.0169 27.5737C66.0737 27.6637 66.1305 27.7536 66.1873 27.8412C66.2394 27.853 66.2678 27.8412 66.2465 27.7796C66.192 27.6873 66.1376 27.595 66.0808 27.5027L66.0832 27.5051Z" fill="#9E93AD"/>
<path d="M48.9821 21.9291C49.1099 22.0096 49.2283 22.0474 49.3087 21.87C49.1951 21.87 49.0839 21.8652 48.9821 21.9291Z" fill="#78698D"/>
<path d="M65.5769 26.7004C65.513 26.8424 65.6242 26.9252 65.6834 27.0246C65.7213 27.0246 65.7284 26.9891 65.7449 26.9678C65.6881 26.8779 65.6313 26.7903 65.5745 26.7004H65.5769Z" fill="#685880"/>
<path d="M65.7473 26.9673C65.726 26.9862 65.7047 27.0052 65.6858 27.0241C65.7213 27.0809 65.7568 27.1401 65.7923 27.1969C65.8112 27.1756 65.8325 27.1543 65.8514 27.133C65.8159 27.0762 65.7828 27.0217 65.7473 26.9649V26.9673Z" fill="#998CA8"/>
<path d="M66.2465 27.7819C66.2275 27.8032 66.2062 27.8222 66.1873 27.8435C66.2228 27.9003 66.2583 27.9547 66.2938 28.0115C66.3175 28.0352 66.3411 28.0352 66.3648 28.0115C66.3411 27.9263 66.3104 27.8482 66.2465 27.7843V27.7819Z" fill="#877999"/>
<path d="M66.365 28.0086C66.3413 28.0086 66.3177 28.0086 66.294 28.0086C66.3484 28.063 66.32 28.205 66.462 28.1719C66.4289 28.1175 66.3981 28.063 66.365 28.0086Z" fill="#6E5D84"/>
<path d="M95.1833 13.8237C95.0484 13.8071 95.0602 13.8923 95.0768 13.9609C95.1904 14.4295 95.427 14.8366 95.711 15.22C95.7536 15.2791 95.7962 15.3217 95.8341 15.2081C95.9714 14.7916 95.685 14.0769 95.2969 13.8757C95.2566 13.8544 95.214 13.8379 95.1856 13.8213L95.1833 13.8237Z" fill="#FBFCFE"/>
<path d="M83.8282 12.3418C84.0246 12.2732 84.1879 12.1691 84.3347 12.0318C84.3796 11.9892 84.4388 11.9442 84.4151 11.8732C84.3867 11.7904 84.3039 11.7857 84.2329 11.7762C84.0033 11.7478 83.8377 11.9774 83.8282 12.3442V12.3418Z" fill="#F7FAFD"/>
<path d="M94.3289 8.59801C94.9537 7.89276 94.7454 6.90588 94.3999 6.41599C94.2721 6.23612 94.0946 6.12726 93.8556 6.19826C93.6189 6.26689 93.6094 6.47279 93.5976 6.66212C93.581 6.92954 93.6591 7.18514 93.7514 7.43363C93.8982 7.83596 94.0875 8.21935 94.3289 8.59801Z" fill="#FDFEFE"/>
<path d="M90.4146 7.97576C90.4454 7.5474 90.391 7.15691 90.0857 6.81612C89.9508 7.14508 90.1235 7.74857 90.4146 7.97576Z" fill="#F6F9FD"/>
<path d="M75.4055 9.75264C75.4836 10.2828 75.6327 10.6046 75.8126 10.9099C76.0753 11.3596 76.416 11.7524 76.7284 12.169C76.7758 12.2305 76.816 12.311 76.9249 12.2589C77.4313 12.0104 78.0017 11.9134 78.4774 11.5915C78.9034 11.3051 79.1187 10.9028 79.114 10.3916C79.114 10.1195 79.0359 10.0721 78.7779 10.1266C78.3851 10.207 78.0703 10.4058 77.8171 10.7111C77.7035 10.8507 77.5757 10.9667 77.3745 10.9099C77.1757 10.8531 77.1213 10.678 77.0953 10.5076C77.0148 9.9751 76.674 9.66034 76.2267 9.42604C75.9356 9.27221 75.3582 9.51597 75.4031 9.75264H75.4055Z" fill="#FEFEFE"/>
<path d="M46.3407 31.9424C46.6957 31.9234 47.0389 31.8785 47.3702 31.7673C48.2364 31.4762 49.015 31.0289 49.725 30.4585C49.9333 30.2905 50.1084 30.0917 50.2244 29.8503C50.4374 29.4101 50.196 29.0291 49.7085 29.0291C49.5333 29.0291 49.3653 29.0693 49.202 29.1356C48.7642 29.3154 48.3192 29.4811 47.8885 29.6823C47.3182 29.9497 46.7241 30.0964 46.097 30.1414C45.7728 30.165 45.4651 30.2455 45.2024 30.4443C44.8095 30.7425 44.7859 31.2135 45.1503 31.5519C45.4888 31.8667 45.9148 31.914 46.3384 31.9424H46.3407Z" fill="#FEE262"/>
<path d="M64.8219 29.2042C64.5687 29.1072 64.3013 29.1308 64.041 29.1095C63.0659 29.0291 62.1074 28.8823 61.2176 28.435C60.8153 28.2315 60.3987 28.3285 60.1905 28.6433C59.9704 28.9746 60.0437 29.3959 60.3751 29.7036C60.5384 29.855 60.7301 29.9615 60.9359 30.0349C61.982 30.3993 63.047 30.6029 64.1593 30.4206C64.4599 30.3709 64.7462 30.2881 64.9758 30.0728C65.1817 29.7485 65.1296 29.4574 64.8219 29.2018V29.2042Z" fill="#FEE262"/>
<path d="M52.9202 32.8838C52.9841 33.7949 53.1095 34.6848 53.8266 35.3569C54.9342 36.3935 56.676 36.0503 57.2913 34.6753C57.3907 34.4529 57.4996 34.2304 57.5327 33.9819C57.4735 33.9417 57.4096 33.9488 57.3505 33.9701C57.1351 34.0482 56.9221 34.0955 56.6949 34.0198C56.6523 34.0056 56.6074 34.034 56.5719 34.06C56.4796 34.1405 56.4299 34.2493 56.3825 34.3582C56.1198 34.9617 55.6205 35.0564 55.0028 34.8931C54.6478 34.8008 54.3875 34.557 54.2123 34.2209C54.0396 33.8849 53.9875 33.5086 53.8384 33.1654C53.7911 33.0921 53.7153 33.0282 53.6396 33.04C53.3769 33.0779 53.1616 32.9193 52.9178 32.8862L52.9202 32.8838Z" fill="#F19543"/>
<path d="M57.9161 31.502C57.9232 31.4358 57.9066 31.3742 57.8664 31.3222C57.7977 31.2346 57.8096 31.1825 57.9208 31.1518C58.0675 31.1092 58.1574 31.0145 58.1527 30.8559C58.1503 30.7021 58.0533 30.6027 57.9255 30.5412C57.4901 30.3306 57.0286 30.1862 56.5647 30.0537C55.7056 29.8075 54.8394 29.5922 53.9472 29.4999C53.2751 29.4289 53.0171 29.649 52.9296 30.3258C52.9201 30.4063 52.9225 30.4891 52.9201 30.5696C52.887 30.7021 52.8917 30.8346 52.9343 31.0524C53.1331 30.7258 53.4289 30.7021 53.7035 30.6264C53.8431 30.3874 54.0348 30.3968 54.2786 30.4607C55.2134 30.7045 56.134 30.9979 57.0854 31.1683C57.2203 31.192 57.2487 31.237 57.1777 31.3648C57.0759 31.5446 56.9741 31.7363 57.0664 31.9588C57.2936 32.0369 57.509 32.1505 57.7338 32.2333C57.8593 32.2783 57.9515 32.2665 57.9397 32.0984C57.9279 31.8996 57.9634 31.7008 57.9184 31.5044L57.9161 31.502Z" fill="#FEC06B"/>
<path d="M52.8634 31.0121C52.79 31.3813 52.8113 31.7481 52.8681 32.1173C52.9983 32.3824 53.0977 32.4321 53.3414 32.309C53.4574 32.2498 53.4787 32.3185 53.5331 32.3753C53.5852 32.4273 53.5994 32.5599 53.7248 32.4747C53.7745 32.3682 53.7651 32.2569 53.7461 32.1457C53.6822 31.9422 53.7154 31.7316 53.7059 31.5257C53.6941 31.2204 53.4479 31.0239 53.1805 31.1494C52.9817 31.2417 52.9367 31.1328 52.8634 31.0145V31.0121Z" fill="#F6A854"/>
<path d="M57.6392 33.5967C57.7291 33.3482 57.7812 33.0926 57.8001 32.8299C57.6676 32.5861 57.4191 32.5246 57.1824 32.456C57.0925 32.4299 57.0073 32.4725 56.9481 32.5506C56.8511 32.8062 56.7777 33.0665 56.7777 33.3411C56.9765 33.4641 57.1848 33.5635 57.4096 33.6322C57.4901 33.6558 57.5705 33.6653 57.6392 33.599V33.5967Z" fill="#F6A753"/>
<path d="M53.6916 32.501C53.6443 32.4277 53.6064 32.3472 53.5496 32.2809C53.4833 32.2052 53.4455 32.1058 53.3058 32.262C53.1307 32.4561 53.0029 32.2147 52.868 32.1176C52.8727 32.1934 52.8751 32.2667 52.8798 32.3425C52.9177 32.5034 52.8751 32.6714 52.9153 32.8324C52.9082 32.8513 52.9106 32.8679 52.9201 32.8844C53.1141 32.9602 53.2467 33.2087 53.5236 33.0761C53.5875 33.0454 53.7058 33.1282 53.8004 33.1613C53.8951 33.0548 53.8217 32.9365 53.8241 32.8229C53.8099 32.7046 53.8099 32.5791 53.6916 32.5034V32.501Z" fill="#F4A14E"/>
<path d="M57.6392 33.5964C57.4475 33.5988 57.2747 33.5349 57.1161 33.4331C57.0238 33.374 56.9292 33.3266 56.8156 33.3787C56.7801 33.4024 56.7564 33.4355 56.7398 33.4734C56.6759 33.6745 56.5174 33.8544 56.5955 34.0911C56.9221 34.1762 57.2321 34.1123 57.5327 33.9822C57.5966 33.8615 57.6344 33.7337 57.6368 33.5988L57.6392 33.5964Z" fill="#F49D4A"/>
<path d="M56.9813 32.555C57.2156 32.4225 57.3812 32.6165 57.5706 32.6852C57.6534 32.7159 57.722 32.7798 57.7978 32.8272C57.9255 32.3917 58.051 31.9586 57.9161 31.5019C57.9161 31.6107 57.9113 31.7196 57.9113 31.8285C57.9113 32.2686 57.8901 32.2876 57.5209 32.0675C57.3789 31.9823 57.2511 31.9255 57.0901 31.9515C56.9268 32.129 56.9008 32.3325 56.9836 32.555H56.9813Z" fill="#F9B05B"/>
<path d="M52.8633 31.0121C52.8633 31.076 52.8681 31.1375 52.8704 31.2014C52.8752 31.3458 52.958 31.4026 53.0527 31.2937C53.2444 31.0642 53.4195 31.2464 53.597 31.289C53.6751 31.3079 53.6278 31.3979 53.6349 31.457C53.6633 31.6771 53.5804 31.9067 53.6869 32.1197C53.739 32.0771 53.7627 32.0156 53.765 31.9517C53.7863 31.5517 53.7863 31.1541 53.765 30.7541C53.7627 30.6902 53.7414 30.6287 53.6893 30.5837C53.4858 30.5506 53.3154 30.6879 53.1213 30.6997C52.9864 30.7068 53.0763 30.8867 52.9367 30.9293C52.9296 30.8062 52.9225 30.6879 52.9178 30.5695C52.8539 30.7115 52.8681 30.863 52.8633 31.0145V31.0121Z" fill="#FBB661"/>
<path d="M64.8218 29.204C64.9922 29.4738 65.1129 29.7507 64.9756 30.0749C65.1673 29.9471 65.243 29.7602 65.191 29.5424C65.146 29.3602 65.03 29.2229 64.8218 29.204Z" fill="#E99647"/>
<path d="M63.7287 34.6354C63.5796 34.6448 63.4139 34.607 63.3216 34.7821C63.4565 34.7324 63.5914 34.6851 63.7287 34.6354Z" fill="#5D4A76"/>
<path d="M52.9178 32.83C52.9486 32.6643 52.9391 32.501 52.8823 32.3401C52.8823 32.5034 52.8539 32.6714 52.9178 32.83Z" fill="#F19543"/>
<path d="M56.5956 34.0889C56.6666 33.8853 56.74 33.6842 56.811 33.4807C56.5435 32.6074 55.1851 31.9139 54.3071 32.3376C54.0704 32.4512 53.8645 32.5837 53.7486 32.8275C53.7651 32.9363 53.7841 33.0476 53.8006 33.1564C53.8929 33.5753 54.0042 33.9847 54.2124 34.3634C54.5556 34.9882 55.5448 35.2438 56.1199 34.8415C56.3779 34.6616 56.4512 34.3492 56.5956 34.0889Z" fill="#FEC23C"/>
<path d="M53.7484 32.8297C54.1223 32.4416 54.5696 32.2073 55.1139 32.2901C55.7695 32.3919 56.3091 32.709 56.6641 33.2936C56.7067 33.3622 56.7232 33.4498 56.8108 33.4829C56.8108 33.4474 56.8132 33.4119 56.8155 33.3788C56.87 33.1043 56.9268 32.8321 56.9812 32.5576C57.0167 32.3564 57.0522 32.1552 57.0877 31.9541C57.0806 31.6582 57.1824 31.4074 57.4119 31.1707C56.9883 31.0761 56.5789 30.9909 56.1718 30.8891C55.4973 30.7187 54.8205 30.5483 54.1507 30.3542C53.8999 30.2832 53.7366 30.2903 53.6892 30.5838C53.6892 31.095 53.6869 31.6062 53.6845 32.1174C53.6845 32.2452 53.6845 32.373 53.6869 32.5008C53.7058 32.6096 53.7247 32.7185 53.7437 32.8297H53.7484Z" fill="#FEE262"/>
</svg>
