<svg width="150" height="170" viewBox="0 0 150 170" fill="none" xmlns="http://www.w3.org/2000/svg">
<g clip-path="url(#clip0_134_3965)">
<path d="M32.5954 125.404L27.6239 122.401L23.948 123.902L23.424 129.665L16.2875 130.843L15.3005 134.218L21.4622 137.216L28.0219 144.404L36.8684 144.035L42.2014 139.495L43.5296 132.401L40.1462 126.832L32.5954 125.404Z" fill="white"/>
<path d="M74.7602 33.9327L44.6424 38.5138L23.4239 49.9947L15.3126 63.584L11.3362 87.9865L15.1217 107.177L32.835 115.74L50.3289 125.735L49.2484 145.144L47.8796 159.373L57.8106 167.507L75.9219 162.574L93.6514 147.961L101.292 136.796L99.2281 126.917L127.494 108.5L135.439 77.2259L127.729 58.9058L109.939 44.5881L74.7602 33.9327Z" fill="white"/>
<path d="M44.0332 144.78C44.0575 144.655 44.0819 144.529 44.1063 144.404C44.1225 144.323 44.1388 144.246 44.155 144.165C44.1794 144.04 44.2038 143.914 44.2281 143.789C44.2444 143.708 44.2606 143.627 44.2769 143.55C44.3012 143.425 44.3256 143.299 44.35 143.178C44.3662 143.097 44.3825 143.016 44.3987 142.939C44.4231 142.813 44.4475 142.692 44.4718 142.567C44.4881 142.486 44.5043 142.405 44.5206 142.324C44.5449 142.198 44.5693 142.077 44.5937 141.952C44.6099 141.871 44.6262 141.79 44.6465 141.713C44.6709 141.587 44.6952 141.462 44.7237 141.34C44.7399 141.259 44.7562 141.183 44.7724 141.102C44.7886 141.017 44.8049 140.936 44.8211 140.851C44.8496 140.729 44.8739 140.612 44.9024 140.491C44.9227 140.406 44.9389 140.321 44.9592 140.236C44.9795 140.155 44.9958 140.074 45.0161 139.997C45.0364 139.912 45.0567 139.831 45.073 139.746C45.0933 139.665 45.1136 139.584 45.1339 139.503C45.1542 139.418 45.1705 139.337 45.1908 139.252C45.2111 139.171 45.2354 139.09 45.2557 139.009C45.2761 138.924 45.2964 138.844 45.3167 138.759C45.337 138.678 45.3614 138.597 45.3817 138.52C45.402 138.435 45.4263 138.354 45.4466 138.269C45.467 138.188 45.4913 138.111 45.5116 138.03C45.536 137.945 45.5604 137.86 45.5847 137.775C45.6416 137.573 45.6985 137.37 45.7553 137.168C45.7797 137.083 45.8 136.998 45.8244 136.917C45.8447 136.84 45.865 136.759 45.8853 136.683C45.9909 136.27 46.0925 135.857 46.1981 135.444C46.2143 135.363 46.2346 135.286 46.2509 135.205C46.3159 134.918 46.3768 134.627 46.4418 134.339C46.458 134.258 46.4743 134.178 46.4905 134.097C46.5636 133.688 46.6367 133.279 46.7099 132.866C46.718 132.785 46.7261 132.704 46.7342 132.619C46.7626 132.373 46.7951 132.126 46.8236 131.879C46.8317 131.798 46.8398 131.717 46.8479 131.636C46.8845 131.146 46.9211 130.657 46.9576 130.167C46.9617 130.046 46.9698 129.92 46.9739 129.799C47.0104 129.39 47.047 128.981 47.0795 128.573C47.0835 128.492 47.0876 128.407 47.0957 128.326C47.1769 127.35 47.2419 126.371 47.3435 125.4C47.3841 125.011 47.2988 124.845 46.8804 124.728C39.6709 122.705 32.5831 120.358 25.7878 117.181C21.7951 115.315 18.4808 112.616 15.5238 109.411C14.4921 108.294 13.5092 107.153 12.8309 105.781C12.7943 105.7 12.7537 105.623 12.7172 105.542L12.709 105.534C12.5588 105.356 12.4085 105.178 12.2622 104.996C11.8114 103.733 11.3565 102.466 10.9056 101.204C10.9665 100.977 11.1209 100.734 11.0803 100.528C10.7025 98.5733 10.2923 96.6268 9.89425 94.6762C9.84957 94.0206 9.80489 93.3651 9.76021 92.7095C9.75209 92.5516 9.74803 92.3938 9.7399 92.236C9.70741 91.1676 9.67898 90.1033 9.64648 89.0349C9.67492 88.8771 9.72366 88.7233 9.72772 88.5655C9.78458 86.708 9.78865 84.8505 9.89425 82.997C9.98767 81.3297 10.138 79.6624 10.3492 78.0073C10.6335 75.7855 11.0112 73.5719 11.3321 71.3542C11.3687 71.1114 11.2874 70.8484 11.2631 70.5975C11.4215 69.7072 11.5839 68.8169 11.7423 67.9306C11.9048 67.3033 12.0917 66.6801 12.2216 66.0488C12.8349 63.0623 13.5986 60.1161 14.748 57.2793C16.1778 53.7464 18.5295 50.9419 21.5636 48.6757C23.3345 47.3524 25.0648 45.9603 26.9129 44.7462C28.9316 43.4229 31.0803 42.2979 33.1477 41.0474C39.6587 37.0936 46.8642 35.139 54.2728 33.8157C58.2452 33.1075 62.2379 32.4438 66.2468 32.0108C70.7553 31.5211 75.2923 31.3957 79.8252 31.8044C84.7968 32.2495 89.7196 32.982 94.5734 34.1313C97.506 34.8233 100.264 35.9929 102.969 37.2838C105.597 38.5424 108.233 39.7848 110.792 41.1728C115.577 43.7669 120.219 46.632 124.033 50.5534C127.112 53.7181 130.199 56.907 132.758 60.533C134.651 63.216 135.914 66.2188 137.039 69.2742C137.644 70.9212 138.131 72.6128 138.668 74.2842C136.913 74.5108 135.158 74.7415 133.4 74.9681C131.82 71.4797 130.288 67.9711 128.639 64.5151C128.095 63.3739 127.262 62.3662 126.56 61.2978C125.191 59.4201 123.932 57.4452 122.417 55.6929C120.95 53.9973 119.362 52.3381 117.571 51.0067C115.812 49.6996 113.765 48.7566 111.787 47.7733C108.7 46.2435 105.556 44.8352 102.453 43.3379C98.9032 41.622 95.3289 40.0195 91.4174 39.2344C87.2094 38.3886 82.9771 37.7047 78.7042 37.4255C75.8244 37.2393 72.9202 37.3324 70.0324 37.4133C68.1924 37.4659 66.3484 37.6602 64.5246 37.9232C61.3605 38.3765 58.2005 38.8702 55.0567 39.4529C48.4767 40.671 42.0388 42.3302 36.2306 45.8389C33.1802 47.6802 30.0486 49.4001 27.0307 51.294C23.4848 53.5198 20.9869 56.6966 19.4515 60.5573C18.298 63.4588 17.2541 66.4171 16.3362 69.4037C14.9227 74.009 14.0778 78.7438 13.8301 83.5555C13.6879 86.3074 13.757 89.0713 13.8138 91.8313C13.891 95.7689 15.0405 99.4394 16.7992 102.932C17.3597 104.045 18.0218 105.101 19.1306 105.805C23.3873 108.516 27.6644 111.183 32.3029 113.215C33.0665 113.551 33.8544 113.834 34.6343 114.142C34.7683 114.231 34.8943 114.344 35.0445 114.401C40.5807 116.517 46.1899 118.415 51.9089 119.981C55.7025 121.021 59.5449 121.835 63.4483 122.336C66.8358 122.769 70.2273 123.166 73.6229 123.542C75.1258 123.708 76.6408 123.83 78.1518 123.886C79.8211 123.947 81.4621 124.032 83.0827 123.247C84.4637 122.575 85.9584 122.79 87.3232 123.619C87.6359 123.809 88.0502 123.911 88.4158 123.911C89.3784 123.919 90.341 123.854 91.3037 123.809C94.7602 123.648 98.2208 123.502 101.677 123.308C104.565 123.146 107.331 122.417 110.016 121.357C113.071 120.151 115.808 118.362 118.521 116.578C120.418 115.327 122.027 113.644 123.753 112.134C123.887 112.017 123.915 111.782 123.997 111.604C124.785 112.337 125.564 113.077 126.361 113.798C126.564 113.984 126.815 114.117 127.047 114.279C125.682 116.477 124.013 118.423 122.112 120.179C121.978 120.301 121.811 120.39 121.661 120.495C121.568 120.572 121.474 120.645 121.381 120.722C121.145 120.892 120.91 121.062 120.674 121.232C120.581 121.3 120.487 121.369 120.394 121.438C119.996 121.697 119.602 121.956 119.204 122.219C119.106 122.288 119.013 122.357 118.915 122.421C118.895 122.454 118.867 122.466 118.83 122.462C118.737 122.531 118.639 122.599 118.546 122.664C118.525 122.697 118.497 122.709 118.46 122.705C118.367 122.773 118.27 122.842 118.176 122.911C117.408 123.417 116.645 123.919 115.877 124.425C115.78 124.489 115.682 124.558 115.589 124.623C115.483 124.68 115.378 124.736 115.272 124.797C115.175 124.862 115.073 124.926 114.975 124.991C114.785 125.088 114.598 125.185 114.407 125.287C114.062 125.465 113.716 125.643 113.375 125.821C113.111 125.93 112.847 126.039 112.583 126.149C112.396 126.242 112.209 126.339 112.023 126.432C111.925 126.46 111.824 126.489 111.726 126.517C111.62 126.573 111.515 126.63 111.409 126.687C111.312 126.711 111.21 126.739 111.113 126.764C111.007 126.82 110.902 126.877 110.796 126.93C110.694 126.954 110.597 126.982 110.495 127.007C110.39 127.059 110.284 127.116 110.179 127.168C110.077 127.197 109.975 127.221 109.874 127.249C109.525 127.379 109.171 127.504 108.822 127.634C108.737 127.658 108.655 127.682 108.57 127.703C108.367 127.763 108.164 127.82 107.961 127.881C107.876 127.901 107.794 127.925 107.709 127.945C107.628 127.966 107.547 127.99 107.469 128.01C107.384 128.03 107.303 128.051 107.218 128.067C107.136 128.087 107.055 128.107 106.974 128.127C106.889 128.144 106.803 128.164 106.718 128.18C106.596 128.208 106.478 128.233 106.356 128.261C106.271 128.277 106.186 128.293 106.105 128.306C105.983 128.33 105.865 128.354 105.743 128.378C105.658 128.395 105.573 128.407 105.487 128.423C105.325 128.451 105.166 128.48 105.004 128.504C104.878 128.52 104.752 128.54 104.63 128.556C104.468 128.581 104.305 128.605 104.143 128.629C104.017 128.645 103.891 128.658 103.765 128.674C103.562 128.698 103.359 128.722 103.156 128.751C102.989 128.767 102.823 128.783 102.656 128.799C102.413 128.824 102.169 128.848 101.925 128.868C101.718 128.884 101.507 128.9 101.3 128.917C101.097 128.953 100.889 128.994 100.686 129.03C100.658 129.083 100.629 129.135 100.601 129.188C100.601 129.269 100.605 129.354 100.609 129.435C100.682 129.548 100.759 129.657 100.833 129.771C100.906 129.864 100.983 129.957 101.056 130.054C101.231 130.321 101.405 130.588 101.58 130.855C101.645 130.956 101.71 131.053 101.775 131.155C101.917 131.462 102.059 131.766 102.197 132.073C102.295 132.3 102.396 132.526 102.494 132.753C102.547 132.919 102.599 133.085 102.648 133.251C102.672 133.332 102.697 133.413 102.725 133.49C102.746 133.57 102.762 133.655 102.782 133.736C102.802 133.817 102.827 133.898 102.847 133.979C102.863 134.064 102.88 134.145 102.896 134.23C102.92 134.352 102.941 134.473 102.965 134.59C102.985 134.756 103.006 134.922 103.026 135.088C103.05 135.371 103.071 135.659 103.095 135.942C103.095 136.229 103.095 136.517 103.095 136.8C103.071 137.083 103.05 137.37 103.026 137.654C103.006 137.82 102.985 137.986 102.965 138.152C102.945 138.273 102.92 138.394 102.9 138.516C102.876 138.641 102.851 138.767 102.827 138.888C102.807 138.969 102.79 139.046 102.77 139.127C102.713 139.333 102.656 139.544 102.599 139.75C102.51 139.977 102.417 140.207 102.323 140.434C102.299 140.531 102.27 140.632 102.246 140.729C102.189 140.835 102.132 140.94 102.075 141.045C101.454 142.045 100.828 143.048 100.207 144.048C100.126 144.137 100.049 144.226 99.9674 144.315C99.7237 144.554 99.484 144.796 99.2403 145.035C99.151 145.116 99.0616 145.193 98.9722 145.274C98.103 145.873 97.2216 146.46 96.3646 147.079C96.0478 147.31 95.7228 147.577 95.5157 147.904C93.7691 150.64 92.0957 153.449 89.8618 155.82C88.5701 157.192 86.9779 158.281 85.4995 159.47C84.3865 160.369 83.2452 161.227 82.116 162.101C82.0226 162.174 81.9333 162.25 81.8398 162.323C81.7708 162.372 81.7017 162.425 81.6327 162.473C81.5393 162.546 81.4418 162.623 81.3484 162.696C81.2793 162.744 81.2062 162.793 81.1371 162.841C81.0437 162.91 80.9503 162.979 80.8569 163.052C80.8406 163.084 80.8122 163.096 80.7757 163.092C80.6782 163.161 80.5847 163.234 80.4873 163.303C80.471 163.331 80.4426 163.343 80.4101 163.339C80.3126 163.408 80.2151 163.477 80.1176 163.55C80.0973 163.578 80.073 163.59 80.0364 163.586C79.9389 163.655 79.8414 163.72 79.748 163.788C79.6424 163.845 79.5368 163.902 79.4312 163.958C79.3297 164.023 79.2322 164.092 79.1306 164.157C78.9398 164.254 78.7529 164.351 78.562 164.448C78.2168 164.626 77.8715 164.804 77.5263 164.986C77.2622 165.095 76.9982 165.205 76.7342 165.314C76.4661 165.448 76.194 165.581 75.9259 165.715C75.8244 165.747 75.7269 165.775 75.6254 165.808C75.4385 165.901 75.2517 165.998 75.0608 166.091C74.9592 166.119 74.8618 166.148 74.7602 166.176C74.4475 166.314 74.1388 166.451 73.826 166.593C73.7245 166.617 73.627 166.645 73.5254 166.67C73.4198 166.722 73.3142 166.779 73.2086 166.832C73.1071 166.86 73.0096 166.884 72.9081 166.912C72.4735 167.095 72.0429 167.273 71.6083 167.455C71.5068 167.479 71.4093 167.503 71.3077 167.528C70.2679 167.851 69.2241 168.163 68.1883 168.499C67.7212 168.649 67.2663 168.847 66.8033 169.021C66.718 169.045 66.6367 169.065 66.5514 169.09C65.6904 169.312 64.8293 169.539 63.9682 169.761C63.8829 169.778 63.7935 169.794 63.7082 169.81C63.5498 169.838 63.3873 169.867 63.2289 169.895C63.103 169.911 62.9771 169.927 62.8512 169.944C62.6075 169.968 62.3638 169.996 62.1201 170.02C61.5433 170.02 60.9706 170.02 60.3938 170.02C60.1501 169.996 59.9064 169.968 59.6627 169.944C59.4962 169.919 59.3297 169.899 59.1631 169.875C59.0413 169.855 58.9235 169.834 58.8016 169.814C58.6757 169.794 58.5498 169.77 58.4239 169.749C58.3061 169.725 58.1843 169.705 58.0665 169.681C57.9812 169.664 57.8959 169.648 57.8106 169.628C57.7293 169.612 57.6481 169.591 57.5669 169.571C57.4816 169.555 57.4003 169.535 57.315 169.519C57.0713 169.454 56.8276 169.389 56.5839 169.32C56.3768 169.26 56.1696 169.195 55.9625 169.134C55.735 169.045 55.5076 168.956 55.2801 168.867C55.1786 168.843 55.077 168.814 54.9795 168.79C54.8739 168.734 54.7683 168.681 54.6627 168.624C54.5653 168.596 54.4637 168.572 54.3662 168.543C54.2606 168.487 54.155 168.434 54.0535 168.377C53.7895 168.272 53.5254 168.167 53.2574 168.058C53.1518 168.001 53.0502 167.94 52.9446 167.884C52.311 167.576 51.6733 167.269 51.0397 166.961C50.9422 166.9 50.8406 166.836 50.7432 166.775C50.4304 166.597 50.1217 166.415 49.809 166.237C49.7155 166.168 49.6181 166.103 49.5246 166.034C49.4881 166.034 49.4596 166.022 49.4393 165.994C49.3459 165.925 49.2525 165.856 49.1591 165.787C48.0908 165.112 47.1688 164.286 46.4702 163.226C46.4012 163.133 46.3321 163.044 46.2631 162.951C46.2306 162.93 46.2184 162.902 46.2224 162.866C46.1575 162.773 46.0884 162.675 46.0234 162.582C45.9665 162.473 45.9097 162.368 45.8488 162.259C45.67 161.915 45.4873 161.575 45.3086 161.231C45.2801 161.134 45.2517 161.032 45.2233 160.935C45.1704 160.83 45.1136 160.725 45.0608 160.62C44.9227 160.207 44.7886 159.798 44.6505 159.385C44.5896 159.183 44.5287 158.981 44.4678 158.778C44.4434 158.693 44.4231 158.612 44.3987 158.527C44.3419 158.325 44.285 158.123 44.2281 157.92C44.2078 157.835 44.1834 157.75 44.1631 157.665C44.1428 157.589 44.1225 157.508 44.1022 157.431C44.0819 157.346 44.0616 157.261 44.0413 157.176C44.0129 157.058 43.9844 156.937 43.956 156.82C43.9397 156.735 43.9235 156.654 43.9072 156.569C43.8829 156.447 43.8585 156.326 43.8341 156.205C43.822 156.12 43.8057 156.035 43.7935 155.95C43.7732 155.828 43.7529 155.711 43.7367 155.589C43.7123 155.423 43.6879 155.258 43.6635 155.092C43.6432 154.93 43.6229 154.768 43.6026 154.606C43.5823 154.4 43.562 154.193 43.5417 153.987C43.5214 153.663 43.497 153.335 43.4767 153.012C43.4767 152.109 43.4767 151.211 43.4808 150.308C43.5011 149.819 43.5254 149.333 43.5458 148.843C43.5661 148.552 43.5864 148.265 43.6067 147.973C43.627 147.73 43.6473 147.488 43.6676 147.245C43.6839 147.079 43.7042 146.913 43.7204 146.747C43.7407 146.585 43.7651 146.423 43.7854 146.261C43.8098 146.095 43.8341 145.93 43.8626 145.764C43.8829 145.646 43.9032 145.525 43.9276 145.408C43.9438 145.323 43.96 145.238 43.9763 145.153C44.0007 145.031 44.021 144.914 44.0453 144.792L44.0332 144.78ZM57.5588 164.039C58.2411 164.161 58.9154 164.347 59.6018 164.395C61.06 164.497 62.4897 164.278 63.9235 163.962C65.4751 163.622 67.0795 163.541 68.6392 163.246C71.4621 162.704 74.1347 161.704 76.6895 160.393C78.696 159.361 80.5847 158.159 82.311 156.71C83.2858 155.893 84.2484 155.055 85.2111 154.217C85.9016 153.619 86.5758 152.999 87.2582 152.392C87.441 152.263 87.6562 152.166 87.7943 152.004C88.5701 151.081 89.3297 150.146 90.0852 149.208C90.2436 149.013 90.3654 148.787 90.5279 148.536C89.5287 148.422 88.6067 148.378 87.7131 148.2C83.5782 147.378 80.6863 145.092 79.3865 141.013C79.2566 140.608 79.021 140.547 78.6798 140.483C77.3475 140.244 76.0193 140.001 74.6952 139.734C72.315 139.248 69.9267 136.112 71.7058 133.664C71.718 133.647 71.7099 133.623 71.7139 133.603C73.7204 130.851 76.6327 130.867 79.6221 131.074C79.4596 130.483 79.2647 129.92 79.1631 129.346C79.1022 128.994 78.9601 128.925 78.6432 128.917C77.9487 128.9 77.2541 128.844 76.5596 128.799C73.4158 128.597 70.2679 128.399 67.1241 128.192C65.3248 128.075 63.5092 128.079 61.7383 127.796C58.1233 127.221 54.5368 126.484 50.9341 125.821C50.7472 125.784 50.5523 125.772 50.341 125.744C50.5157 127.363 50.6782 128.896 50.8447 130.434C51.0153 133.287 50.7107 136.1 50.2598 138.912C49.5693 143.206 48.7123 147.475 48.7773 151.866C48.8098 154.064 49.1185 156.176 49.748 158.264C50.1339 159.539 50.8081 160.599 51.8926 161.397C53.6107 162.663 55.5035 163.541 57.575 164.047L57.5588 164.039ZM89.7805 145.513C93.6067 145.209 96.6327 143.497 98.562 140.054C99.2728 138.783 99.6546 137.379 99.5165 135.926C99.1794 132.417 97.2419 130.07 93.9641 128.884C92.575 128.382 91.129 127.925 89.5856 128.407C89.0332 128.581 88.4605 128.31 88.2127 127.808C87.6156 126.59 86.5149 126.088 85.3735 125.61C84.1347 125.092 83.0746 125.651 82.2054 126.387C81.4174 127.055 81.3687 128.083 81.6977 129.058C81.8276 129.443 82.0307 129.803 82.2176 130.163C82.9568 131.6 82.2501 132.866 80.6416 132.988C79.744 133.057 78.8301 133.069 77.9487 133.239C76.8276 133.457 75.7147 133.749 74.6424 134.133C74.0047 134.364 73.5661 134.987 73.5986 135.671C73.6311 136.395 74.1022 136.958 74.7968 137.253C75.0933 137.383 75.4182 137.484 75.7391 137.516C77.0226 137.646 78.3061 137.759 79.5937 137.848C80.406 137.905 80.9341 138.257 81.1128 138.86C81.2915 139.459 81.4499 140.082 81.7464 140.624C83.4686 143.744 86.2224 145.217 89.7846 145.513H89.7805Z" fill="#4F96E5"/>
<path d="M133.4 74.9559C135.154 74.7293 136.909 74.4986 138.668 74.272C138.871 74.4177 139.07 74.5714 139.281 74.7009C139.362 74.7495 139.48 74.7616 139.582 74.7616C141.653 74.79 143.03 76.0323 144.375 77.4002C146.312 79.375 147.6 81.7384 148.534 84.2839C149.366 86.5542 149.943 88.9094 149.951 91.3578C149.959 93.3205 150.073 95.2953 149.931 97.25C149.813 98.8525 149.407 100.439 149.094 102.025C148.647 104.283 147.738 106.372 146.657 108.387C146.056 109.508 145.435 110.649 144.61 111.604C144.005 112.304 143.115 112.834 142.25 113.215C140.382 114.036 138.501 114.979 136.523 115.388C133.57 115.995 130.561 115.922 127.774 114.417C127.567 114.303 127.291 114.311 127.047 114.263C126.816 114.105 126.564 113.968 126.361 113.781C125.565 113.057 124.781 112.32 123.997 111.588C123.509 110.791 122.831 110.054 122.567 109.188C121.795 106.659 121.133 104.089 120.548 101.511C120.272 100.289 120.26 99.0104 120.13 97.7558C120.138 97.5333 120.134 97.3107 120.15 97.0881C120.362 94.231 120.999 91.4549 121.775 88.703C121.799 88.6504 121.824 88.5978 121.848 88.5412C121.856 88.5007 121.864 88.4602 121.872 88.4157C121.905 88.3914 121.95 88.3752 121.962 88.3469C122.998 86.0847 123.916 83.7618 125.085 81.5725C126.791 78.3876 129.529 76.3601 132.961 75.2432C133.119 75.1906 133.249 75.053 133.392 74.9559H133.4ZM135.162 111.75C136.848 111.936 138.217 111.078 139.634 110.418C140.353 110.083 140.772 109.427 141.219 108.788C141.958 107.723 142.815 106.74 143.546 105.671C144.513 104.255 145.292 102.733 145.609 101.026C145.902 99.4515 146.263 97.8732 146.369 96.2828C146.519 94.0368 146.085 91.8272 145.508 89.6581C145.297 88.8649 145.024 88.0798 144.679 87.3352C144.354 86.6391 143.911 85.9957 143.497 85.3482C142.559 83.8792 141.678 82.3697 140.272 81.269C139.31 80.5122 138.128 80.1439 137.007 80.0509C135.577 79.9335 134.111 80.0994 132.738 80.8279C131.556 81.4551 130.447 82.131 129.716 83.2479C128.883 84.5186 128.063 85.8095 127.388 87.1693C126.645 88.6747 125.975 90.2368 125.467 91.8353C125.033 93.2193 124.817 94.6843 124.61 96.129C124.468 97.1286 124.464 98.1524 124.476 99.1641C124.484 99.8723 124.59 100.581 124.712 101.281C124.907 102.389 125.037 103.531 125.41 104.583C125.902 105.975 126.499 107.335 127.486 108.504C128.225 109.378 128.822 110.281 130.033 110.698C131.71 111.272 133.4 111.665 135.154 111.758L135.162 111.75Z" fill="#362055"/>
<path d="M22.2419 129.082C22.0794 128.394 21.9129 127.828 21.8154 127.245C21.3686 124.594 22.5384 122.563 24.9876 121.478C27.1322 120.527 29.09 120.632 30.869 122.231C31.1696 122.502 31.4621 122.818 31.6489 123.17C31.8398 123.538 32.0754 123.688 32.4653 123.651C32.9771 123.603 33.4848 123.562 33.9966 123.518C39.3378 123.057 44.7399 126.804 45.6375 132.385C46.4011 137.136 44.7399 141.049 40.8853 143.882C36.8032 146.884 32.2785 147.232 27.64 145.322C24.8374 144.169 23.0136 141.996 22.0876 139.11C21.9576 138.71 21.7951 138.54 21.3483 138.471C20.012 138.269 18.6635 138.066 17.3678 137.69C16.592 137.463 15.7919 137.038 15.2029 136.484C12.6034 134.044 13.8747 131.292 16.1371 129.952C17.7902 128.973 19.6627 128.803 21.5677 129.005C21.7667 129.026 21.9617 129.046 22.246 129.078L22.2419 129.082ZM33.1802 143.441C35.4629 143.335 37.9446 142.137 39.9348 139.936C43.4848 136.01 42.7984 130.422 38.3751 127.714C36.5352 126.589 34.5165 125.922 32.2825 126.411C31.6855 126.541 31.129 126.298 30.869 125.764C30.272 124.542 29.1631 124.028 28.0055 123.599C26.3361 122.984 24.4556 124.105 24.2606 125.853C24.1997 126.407 24.4353 127.002 24.5937 127.565C24.679 127.872 24.9064 128.139 25.0323 128.439C25.5035 129.556 24.9227 130.705 23.7488 130.895C22.9202 131.029 22.0673 131 21.2427 131.158C19.9592 131.401 18.6757 131.668 17.4328 132.065C16.7545 132.283 16.2387 132.919 16.2874 133.663C16.3402 134.452 16.8479 135.051 17.6562 135.314C17.8106 135.363 17.969 135.428 18.1314 135.444C19.4759 135.573 20.8203 135.719 22.1647 135.804C23.2167 135.869 23.692 136.253 23.8301 137.285C23.8463 137.407 23.8788 137.524 23.9235 137.637C25.337 141.097 28.7854 143.436 33.1761 143.436L33.1802 143.441Z" fill="#5298E6"/>
<path d="M138.737 32.3545C137.66 33.9651 136.214 35.2034 134.622 36.2678C129.894 39.4284 124.72 40.2822 119.208 39.056C112.222 37.498 106.978 33.6211 103.867 27.13C103.123 25.58 102.733 23.8601 102.209 22.209C102.116 21.9136 102.149 21.5817 102.12 21.2661C102.291 21.1892 102.551 21.1568 102.62 21.0273C103.131 20.0966 103.57 19.1253 104.106 18.2107C104.309 17.8667 104.399 17.3164 104.996 17.3366C104.76 19.2143 104.825 21.0718 105.329 22.9051C106.694 27.8665 109.724 31.5168 114.257 33.8963C117.648 35.6729 121.267 36.2678 125.085 35.6445C130.158 34.8149 134.118 32.3261 136.917 28.0162C137.1 27.9596 137.283 27.9029 137.502 27.8341C137.681 28.2186 137.863 28.6071 137.977 28.8499C138.201 28.7163 138.355 28.6233 138.513 28.5302C138.603 28.6961 138.773 28.858 138.773 29.0239C138.773 29.72 138.708 30.416 138.692 31.1161C138.684 31.5289 138.72 31.9417 138.737 32.3545Z" fill="#F19745"/>
<path d="M110.041 3.6744C110.504 3.37493 110.946 3.03904 111.43 2.78409C115.069 0.869933 118.944 -0.145827 123.071 0.0160474C127.482 0.190062 131.45 1.67526 134.931 4.3826C138.164 6.89974 140.43 10.121 141.803 13.9696C141.893 14.2164 141.933 14.4835 141.994 14.7385C141.17 15.0096 140.341 15.2686 139.525 15.56C139.419 15.5964 139.362 15.7826 139.285 15.904C138.984 16.3775 138.684 16.8509 138.383 17.3285C138.31 17.2071 138.221 17.0938 138.164 16.9683C137.685 15.8271 137.295 14.6414 136.722 13.5528C134.943 10.1736 132.185 7.74958 128.826 6.02157C125.609 4.36641 122.157 3.67845 118.521 3.93744C116.503 4.08313 114.647 4.72253 112.908 5.70592C112.006 6.21582 111.166 6.82285 110.296 7.38536C110.365 6.79452 110.365 6.1794 110.532 5.61689C110.662 5.16769 110.707 4.81156 110.422 4.41902C110.26 4.1924 110.166 3.92126 110.041 3.67035V3.6744Z" fill="#FEC16C"/>
<path d="M11.7344 67.9222C11.576 68.8125 11.4135 69.7029 11.2551 70.5891C11.0358 70.7631 10.8327 70.9695 10.593 71.1071C9.30952 71.8315 8.11131 72.6692 7.14461 73.7861C6.56785 74.4498 6.09262 75.2025 5.57272 75.9148C4.56541 76.975 4.06988 78.2417 4.02926 79.6945C3.9724 79.7471 3.87085 79.7957 3.86679 79.8524C3.68807 81.463 3.46874 83.0696 3.3672 84.6843C3.28596 86.0036 3.34689 87.335 3.34689 88.6623C3.31846 88.7392 3.26159 88.8161 3.26971 88.893C3.40375 90.6615 3.72057 92.3976 4.3542 94.0608C4.85379 95.3639 5.49555 96.5416 6.64502 97.4521C8.12755 98.6216 9.48824 99.945 10.9017 101.204C11.3526 102.466 11.8075 103.733 12.2583 104.995C11.6856 104.85 11.0886 104.761 10.5443 104.546C7.65233 103.421 5.21529 101.568 2.89197 99.5807C1.65314 98.5245 1.07638 97.0231 0.645832 95.4894C0.101559 93.559 -0.0568492 91.5882 0.0243856 89.5931C0.170608 86.0521 0.357448 82.5111 1.38913 79.0956C1.76687 77.837 2.30302 76.5865 2.98539 75.4656C4.47199 73.0132 6.33227 70.836 8.70026 69.193C9.58166 68.5819 10.723 68.335 11.7425 67.9222H11.7344Z" fill="#372256"/>
<path d="M104.992 17.3324C104.395 17.3122 104.305 17.8625 104.102 18.2065C103.566 19.1211 103.128 20.0923 102.616 21.0231C102.543 21.1526 102.287 21.185 102.116 21.2619C101.686 18.9552 101.868 16.6728 102.421 14.4106C103.148 11.4361 104.553 8.81783 106.621 6.55159C106.759 6.40186 106.917 6.27236 107.067 6.13477C107.128 6.45042 107.234 6.77012 107.242 7.08578C107.25 7.46618 107.283 7.76969 107.721 7.87896C107.851 7.91133 108.014 7.97608 108.083 8.07725C108.318 8.42123 108.501 8.27555 108.83 8.17033C109.24 8.03678 109.415 7.45809 109.943 7.62805C109.285 8.401 108.595 9.14967 107.969 9.95094C106.279 12.1241 105.329 14.6048 104.996 17.3243L104.992 17.3324Z" fill="#F8AC58"/>
<path d="M138.737 32.3544C138.721 31.9416 138.684 31.5289 138.692 31.1161C138.708 30.42 138.773 29.7199 138.773 29.0239C138.773 28.862 138.603 28.6961 138.513 28.5301C138.355 28.6232 138.201 28.7163 137.977 28.8498C137.864 28.607 137.681 28.2185 137.502 27.8341C137.283 27.9029 137.1 27.9595 136.913 28.0162C137.238 27.3606 137.563 26.705 137.892 26.0494C138.156 26.0332 138.436 26.5189 138.672 26.0494C138.928 25.5476 139.143 25.0215 139.37 24.5035C139.667 23.8237 139.923 23.1236 140.272 22.472C140.386 22.2575 140.739 22.1685 140.983 22.0269C141.064 22.2575 141.158 22.4841 141.219 22.7189C141.413 23.4473 141.332 24.3336 142.336 24.5764C141.791 27.4699 140.638 30.0841 138.733 32.3544H138.737Z" fill="#F5A350"/>
<path d="M142.336 24.5764C141.332 24.3336 141.413 23.4433 141.219 22.7189C141.154 22.4842 141.06 22.2576 140.983 22.0269C140.739 22.1726 140.386 22.2616 140.272 22.4721C139.923 23.1236 139.667 23.8237 139.37 24.5036C139.143 25.0216 138.928 25.5436 138.672 26.0495C138.432 26.5149 138.152 26.0293 137.892 26.0495C138.574 24.0584 138.895 22.0188 138.761 19.9145C138.887 19.8659 139.046 19.8457 139.131 19.7566C139.675 19.1618 139.809 19.1739 140.431 19.611C140.609 19.7364 140.999 19.6879 141.219 19.5745C141.397 19.4815 141.462 19.1779 141.58 18.9635C141.824 18.5143 142.043 18.0286 142.689 18.0732C142.989 20.1654 142.815 22.2374 142.449 24.3013C142.433 24.3984 142.376 24.4874 142.34 24.5764H142.336Z" fill="#F8AC58"/>
<path d="M142.689 18.0691C142.043 18.0245 141.824 18.5102 141.58 18.9594C141.466 19.1698 141.397 19.4774 141.219 19.5704C140.999 19.6838 140.609 19.7283 140.431 19.6069C139.805 19.1698 139.675 19.1617 139.131 19.7526C139.05 19.8416 138.887 19.8578 138.761 19.9104C138.635 19.0524 138.509 18.1905 138.383 17.3325C138.684 16.8591 138.985 16.3815 139.285 15.908C139.362 15.7866 139.419 15.6045 139.525 15.5641C140.341 15.2727 141.17 15.0137 141.994 14.7426C142.226 15.8514 142.453 16.9602 142.685 18.0691H142.689Z" fill="#FCBD6A"/>
<path d="M109.939 7.63641C109.411 7.46644 109.241 8.04514 108.826 8.17868C108.497 8.2839 108.314 8.42959 108.079 8.08561C108.01 7.98444 107.851 7.91969 107.717 7.88731C107.279 7.77805 107.246 7.47453 107.238 7.09413C107.234 6.77443 107.124 6.45877 107.063 6.14312C108.055 5.32161 109.05 4.5001 110.041 3.67859C110.167 3.92949 110.26 4.20468 110.423 4.42726C110.703 4.8198 110.662 5.17592 110.532 5.62512C110.37 6.19168 110.37 6.80276 110.297 7.3936C110.175 7.47453 110.057 7.55547 109.935 7.64045L109.939 7.63641Z" fill="#FAB460"/>
<path d="M66.8032 169C67.2663 168.826 67.7171 168.632 68.1883 168.478C69.224 168.142 70.2679 167.831 71.3077 167.507C71.0356 167.637 70.7756 167.798 70.4913 167.887C69.2646 168.268 68.0339 168.628 66.8032 168.996V169Z" fill="#579BE6"/>
<path d="M113.375 125.804C113.72 125.626 114.066 125.448 114.407 125.27C114.062 125.448 113.716 125.626 113.375 125.804Z" fill="#579BE6"/>
<path d="M77.5222 164.97C77.8675 164.792 78.2127 164.614 78.558 164.432C78.2127 164.61 77.8675 164.788 77.5222 164.97Z" fill="#579BE6"/>
<path d="M108.818 127.622C109.167 127.492 109.517 127.367 109.87 127.237C109.521 127.367 109.171 127.492 108.818 127.622Z" fill="#579BE6"/>
<path d="M73.8262 166.572C74.1389 166.435 74.4476 166.297 74.7604 166.155C74.4476 166.293 74.1389 166.431 73.8262 166.572Z" fill="#579BE6"/>
<path d="M101.921 128.86C102.165 128.836 102.409 128.811 102.652 128.791C102.409 128.815 102.165 128.84 101.921 128.86Z" fill="#579BE6"/>
<path d="M103.152 128.742C103.355 128.718 103.558 128.694 103.761 128.665C103.558 128.69 103.355 128.714 103.152 128.742Z" fill="#579BE6"/>
<path d="M75.0568 166.071C75.2436 165.978 75.4304 165.88 75.6213 165.787C75.4345 165.88 75.2477 165.978 75.0568 166.071Z" fill="#579BE6"/>
<path d="M105 128.496C105.162 128.468 105.321 128.439 105.483 128.415C105.321 128.443 105.162 128.472 105 128.496Z" fill="#579BE6"/>
<path d="M43.7288 155.573C43.7491 155.694 43.7694 155.812 43.7856 155.933C43.7653 155.812 43.745 155.694 43.7288 155.573Z" fill="#579BE6"/>
<path d="M43.9155 145.395C43.8951 145.513 43.8748 145.634 43.8505 145.751C43.8708 145.634 43.8911 145.513 43.9155 145.395Z" fill="#579BE6"/>
<path d="M102.957 134.582C102.933 134.461 102.912 134.339 102.888 134.222C102.912 134.343 102.933 134.465 102.957 134.582Z" fill="#579BE6"/>
<path d="M45.0122 139.989C44.9919 140.069 44.9756 140.15 44.9553 140.227C44.9756 140.146 44.9919 140.065 45.0122 139.989Z" fill="#579BE6"/>
<path d="M115.597 124.607C115.695 124.542 115.792 124.473 115.885 124.408C115.788 124.473 115.69 124.542 115.597 124.607Z" fill="#579BE6"/>
<path d="M44.6426 141.709C44.6264 141.79 44.6061 141.87 44.5898 141.947C44.6061 141.866 44.6223 141.786 44.6426 141.709Z" fill="#579BE6"/>
<path d="M44.3947 142.935C44.3784 143.016 44.3622 143.097 44.3459 143.173C44.3622 143.093 44.3784 143.012 44.3947 142.935Z" fill="#579BE6"/>
<path d="M44.2729 143.55C44.2566 143.631 44.2404 143.712 44.2241 143.789C44.2404 143.708 44.2566 143.627 44.2729 143.55Z" fill="#579BE6"/>
<path d="M118.554 122.644C118.647 122.575 118.745 122.506 118.838 122.442C118.745 122.51 118.647 122.579 118.554 122.644Z" fill="#579BE6"/>
<path d="M118.924 122.401C119.021 122.332 119.115 122.263 119.212 122.199C119.115 122.268 119.021 122.336 118.924 122.401Z" fill="#579BE6"/>
<path d="M45.3818 138.516C45.3615 138.597 45.3371 138.677 45.3168 138.754C45.3371 138.673 45.3615 138.593 45.3818 138.516Z" fill="#579BE6"/>
<path d="M101.048 130.041C100.975 129.948 100.898 129.855 100.824 129.758C100.898 129.851 100.975 129.944 101.048 130.041Z" fill="#579BE6"/>
<path d="M110.788 126.918C110.894 126.861 110.999 126.804 111.105 126.751C110.999 126.808 110.894 126.865 110.788 126.918Z" fill="#579BE6"/>
<path d="M80.8488 163.04C80.9422 162.971 81.0356 162.902 81.129 162.829C81.0356 162.898 80.9422 162.967 80.8488 163.04Z" fill="#579BE6"/>
<path d="M80.1096 163.533C80.2071 163.464 80.3046 163.396 80.4021 163.323C80.3046 163.392 80.2071 163.46 80.1096 163.533Z" fill="#579BE6"/>
<path d="M79.74 163.772C79.8375 163.703 79.935 163.638 80.0284 163.57C79.9309 163.638 79.8334 163.703 79.74 163.772Z" fill="#579BE6"/>
<path d="M102.717 133.477C102.693 133.396 102.669 133.315 102.64 133.239C102.665 133.319 102.689 133.4 102.717 133.477Z" fill="#579BE6"/>
<path d="M46.7304 132.619C46.7223 132.7 46.7142 132.781 46.7061 132.866C46.7142 132.785 46.7223 132.704 46.7304 132.619Z" fill="#579BE6"/>
<path d="M50.7352 166.767C50.8327 166.831 50.9343 166.892 51.0317 166.953C50.9343 166.888 50.8327 166.827 50.7352 166.767Z" fill="#579BE6"/>
<path d="M100.601 129.426C100.601 129.345 100.597 129.26 100.593 129.179C100.593 129.26 100.597 129.345 100.601 129.426Z" fill="#579BE6"/>
<path d="M54.0454 168.365C54.151 168.422 54.2566 168.475 54.3582 168.532C54.2526 168.475 54.147 168.422 54.0454 168.365Z" fill="#579BE6"/>
<path d="M107.461 128.002C107.543 127.982 107.624 127.957 107.701 127.937C107.62 127.957 107.538 127.982 107.461 128.002Z" fill="#579BE6"/>
<path d="M12.7055 105.53L12.7137 105.534L12.6848 105.538L12.7055 105.53Z" fill="#579BE6"/>
<path d="M12.8272 105.772V105.776H12.8066L12.8272 105.772Z" fill="#579BE6"/>
<path d="M34.6385 114.125C35.203 113.631 35.9098 113.53 36.519 113.814C40.0365 115.428 43.8139 116.051 47.567 116.752C50.6295 117.322 53.7286 117.731 56.8196 118.123C59.2851 118.439 61.7668 118.658 64.2445 118.86C66.32 119.03 68.4037 119.163 70.4833 119.228C74.2688 119.346 78.0584 119.439 81.848 119.455C84.013 119.467 86.186 119.362 88.3468 119.208C90.8082 119.03 93.2534 118.641 95.7189 118.52C100.252 118.301 104.594 117.217 108.903 115.918C111.511 115.133 113.493 113.567 114.976 111.321C116.43 109.115 117.892 106.902 118.603 104.336C119.184 102.244 119.565 100.095 120.037 97.9701C120.053 97.8932 120.097 97.8244 120.13 97.7516C120.26 99.0061 120.268 100.289 120.548 101.507C121.133 104.085 121.795 106.655 122.567 109.184C122.831 110.05 123.509 110.786 123.997 111.584C123.92 111.762 123.887 111.996 123.753 112.114C122.027 113.619 120.422 115.307 118.521 116.557C115.812 118.342 113.075 120.131 110.016 121.337C107.331 122.397 104.565 123.125 101.677 123.287C98.2209 123.481 94.7603 123.627 91.3038 123.789C90.3411 123.834 89.3785 123.898 88.4159 123.89C88.0463 123.89 87.636 123.785 87.3233 123.599C85.9585 122.769 84.4638 122.555 83.0828 123.226C81.4622 124.012 79.8212 123.927 78.1519 123.866C76.6409 123.813 75.1259 123.692 73.623 123.522C70.2274 123.146 66.8359 122.749 63.4484 122.316C59.545 121.814 55.7026 121.001 51.909 119.961C46.19 118.395 40.5808 116.493 35.0446 114.38C34.8984 114.323 34.7725 114.21 34.6344 114.121L34.6385 114.125Z" fill="#C1DEFE"/>
<path d="M57.5588 164.039C58.3021 162.874 58.9195 161.603 59.8131 160.567C61.8602 158.204 64.0617 155.974 66.7546 154.298C70.2436 152.125 73.9723 150.539 78.0422 149.827C80.0731 149.471 82.112 149.418 84.0861 150.167C85.3249 150.636 86.45 151.296 87.2623 152.384C86.58 152.991 85.9057 153.61 85.2152 154.209C84.2526 155.047 83.294 155.885 82.3151 156.702C80.5889 158.151 78.6961 159.353 76.6937 160.385C74.1389 161.7 71.4703 162.7 68.6433 163.238C67.0836 163.537 65.4752 163.618 63.9276 163.954C62.4938 164.27 61.0641 164.488 59.606 164.387C58.9195 164.339 58.2453 164.157 57.5629 164.031L57.5588 164.039Z" fill="#C1DEFE"/>
<path d="M121.876 88.4154C122.015 87.3673 122.161 86.3232 122.291 85.275C122.449 83.9841 122.612 82.6972 122.738 81.4022C122.912 79.6216 123.115 77.845 123.205 76.0604C123.298 74.13 123.27 72.1956 122.953 70.2693C122.644 68.3875 122.372 66.4896 122.275 64.5916C122.169 62.5115 124.013 61.0142 126.097 61.3056C126.247 61.3258 126.405 61.2894 126.564 61.2813C127.266 62.3496 128.099 63.3573 128.643 64.4985C130.288 67.9545 131.824 71.4632 133.404 74.9515C133.262 75.0487 133.132 75.1863 132.973 75.2389C129.541 76.3558 126.803 78.3833 125.097 81.5681C123.924 83.7575 123.006 86.0804 121.974 88.3426C121.962 88.3749 121.913 88.3911 121.885 88.4114L121.876 88.4154Z" fill="#C1DEFE"/>
<path d="M71.7058 133.599C69.1631 133.437 66.6205 133.295 64.0778 133.109C60.8406 132.874 57.6522 132.312 54.5124 131.502C53.4483 131.227 52.4125 130.839 51.3605 130.511C51.1899 130.458 51.0072 130.45 50.8284 130.418C50.666 128.884 50.4995 127.346 50.3289 125.728C50.5441 125.756 50.735 125.768 50.9219 125.804C54.5206 126.472 58.1111 127.205 61.7261 127.779C63.497 128.063 65.3167 128.059 67.112 128.176C70.2557 128.382 73.4036 128.585 76.5474 128.783C77.2419 128.827 77.9365 128.884 78.6311 128.9C78.9479 128.908 79.09 128.977 79.151 129.329C79.2525 129.908 79.4475 130.466 79.6099 131.057C76.6205 130.851 73.7082 130.839 71.7017 133.587L71.7058 133.599Z" fill="#C1DEFE"/>
<path d="M3.34676 88.6622C3.34676 87.3349 3.28584 86.0075 3.36707 84.6842C3.46861 83.0695 3.68795 81.4629 3.86667 79.8522C3.87479 79.7956 3.97227 79.747 4.02913 79.6944C4.19567 80.176 4.33377 80.6697 4.53685 81.1351C4.67495 81.4588 4.91053 81.6774 5.31264 81.4224C6.54335 80.6454 7.32727 79.5649 7.53035 78.1202C7.73344 76.6633 7.03888 75.9025 5.5726 75.9146C6.0925 75.2024 6.56772 74.4497 7.14449 73.786C8.11118 72.6691 9.30939 71.8314 10.5929 71.107C10.8366 70.9694 11.0356 70.763 11.255 70.589C11.2793 70.8399 11.3606 71.1029 11.324 71.3458C11.0031 73.5634 10.6254 75.7771 10.3411 77.9988C10.1299 79.6539 9.97958 81.3212 9.88616 82.9885C9.78056 84.842 9.77649 86.7035 9.71963 88.557C9.71557 88.7148 9.66683 88.8727 9.6384 89.0264C8.84636 88.3951 7.95277 88.472 7.04294 88.6541C7.01045 88.5813 6.99827 88.4842 6.94546 88.4437C6.08844 87.8367 4.76837 87.8245 3.87885 88.4275C3.72044 88.5327 3.52548 88.5813 3.34676 88.6541V88.6622Z" fill="#4E3A6A"/>
<path d="M3.34682 88.6623C3.52554 88.5895 3.72456 88.5409 3.87891 88.4357C4.76843 87.8287 6.0885 87.8408 6.94552 88.4519C7.00239 88.4924 7.01457 88.5895 7.043 88.6623C6.58403 89.0872 5.94634 89.4272 5.70669 89.9492C5.07306 91.3332 5.02432 92.8144 5.82042 94.166C6.72619 95.7038 8.80986 95.9993 9.88622 94.68C10.2843 96.6306 10.6945 98.5771 11.0722 100.532C11.1129 100.738 10.9585 100.981 10.8976 101.208C9.48411 99.949 8.12343 98.6257 6.64089 97.4561C5.48736 96.5456 4.8456 95.3679 4.35007 94.0649C3.71644 92.4016 3.39962 90.6696 3.26559 88.897C3.26153 88.8242 3.31839 88.7433 3.34276 88.6664L3.34682 88.6623Z" fill="#48306B"/>
<path d="M9.88614 94.676C8.80978 95.9953 6.72611 95.6999 5.82034 94.1621C5.02424 92.8145 5.07298 91.3293 5.70661 89.9453C5.94626 89.4232 6.58801 89.0833 7.04293 88.6584C7.95275 88.4763 8.84634 88.3994 9.63838 89.0307C9.67087 90.099 9.6993 91.1634 9.7318 92.2317C9.73992 92.3896 9.74398 92.5474 9.75211 92.7052C9.79678 93.3608 9.84146 94.0164 9.88614 94.672V94.676Z" fill="#371A62"/>
<path d="M135.162 111.75C133.404 111.657 131.718 111.268 130.041 110.689C128.834 110.277 128.233 109.37 127.494 108.496C126.507 107.331 125.914 105.967 125.418 104.575C125.045 103.522 124.915 102.381 124.72 101.272C124.598 100.572 124.492 99.8641 124.484 99.1559C124.472 98.1442 124.472 97.1203 124.618 96.1207C124.825 94.676 125.036 93.2151 125.475 91.827C125.979 90.2285 126.653 88.6705 127.396 87.161C128.067 85.8013 128.891 84.5103 129.724 83.2396C130.455 82.1186 131.564 81.4469 132.746 80.8196C134.119 80.0912 135.585 79.9252 137.015 80.0426C138.136 80.1357 139.318 80.5039 140.28 81.2607C141.686 82.3655 142.571 83.875 143.505 85.3399C143.92 85.9915 144.362 86.6309 144.687 87.3269C145.032 88.0715 145.305 88.8566 145.516 89.6498C146.088 91.8189 146.527 94.0326 146.377 96.2745C146.271 97.8649 145.91 99.4432 145.617 101.017C145.301 102.725 144.521 104.247 143.554 105.663C142.823 106.732 141.962 107.715 141.227 108.779C140.784 109.419 140.361 110.078 139.642 110.41C138.225 111.07 136.852 111.928 135.171 111.742L135.162 111.75ZM128.286 102.66C128.286 102.843 128.306 103.033 128.274 103.211C127.965 104.777 128.326 106.189 129.224 107.496C129.415 107.776 129.59 108.112 129.626 108.435C129.789 109.9 131.243 111.029 132.851 110.782C133.574 110.673 134.305 110.556 135.036 110.523C137.104 110.434 139.131 108.848 139.728 106.889C139.939 106.201 140.313 105.558 140.634 104.906C140.885 104.397 141.324 103.935 141.422 103.405C141.844 101.123 141.649 98.9373 140.073 97.0556C139.058 95.8415 137.835 95.02 136.182 95.0524C135.024 95.0766 133.993 95.4854 133.038 96.1329C132.766 96.319 132.421 96.3959 132.108 96.5214C131.97 96.404 131.824 96.2907 131.69 96.1652C130.857 95.3963 129.094 95.4004 128.233 96.1369C127.088 97.1122 126.702 98.4477 126.592 99.8317C126.491 101.09 127.201 102.025 128.286 102.66ZM141.966 90.5239C141.937 90.3176 141.921 89.925 141.832 89.5486C141.292 87.3674 140.171 85.607 137.953 84.8422C135.857 84.1218 133.98 85.5706 134.208 87.6466C134.297 88.4843 134.797 89.1075 135.402 89.6579C136.868 90.9934 138.331 92.3329 139.797 93.6683C140.264 94.0973 140.573 94.0811 140.991 93.5995C141.714 92.7659 141.954 91.7704 141.966 90.5199V90.5239Z" fill="#4E3A6A"/>
<path d="M121.779 88.6994C121.803 88.6466 121.828 88.5938 121.852 88.537C121.828 88.5898 121.803 88.6425 121.779 88.6994Z" fill="#C1DEFE"/>
<path d="M109.939 7.63642C110.061 7.55548 110.179 7.47454 110.301 7.38956C111.17 6.82705 112.011 6.21597 112.912 5.71012C114.651 4.72673 116.507 4.08733 118.526 3.94164C122.157 3.6786 125.613 4.37061 128.83 6.02577C132.189 7.74973 134.947 10.1738 136.726 13.557C137.299 14.6456 137.689 15.8353 138.168 16.9725C138.221 17.102 138.314 17.2153 138.388 17.3327C138.513 18.1906 138.639 19.0526 138.765 19.9105C138.899 22.0149 138.578 24.0545 137.896 26.0455C137.571 26.7011 137.246 27.3567 136.917 28.0123C134.123 32.3222 130.158 34.811 125.085 35.6406C121.267 36.2638 117.648 35.6689 114.257 33.8924C109.724 31.5169 106.694 27.8666 105.329 22.9011C104.825 21.0679 104.76 19.2104 104.996 17.3327C105.329 14.6091 106.275 12.1325 107.969 9.95931C108.595 9.15803 109.281 8.40937 109.943 7.63642H109.939ZM121.02 24.5765C120.349 24.7789 119.679 24.9974 119.005 25.1836C117.721 25.5397 116.308 25.5882 115.394 26.7821C115.301 26.9035 115.122 26.9561 114.976 27.033C113.842 27.6238 113.274 28.8824 113.57 30.1288C113.907 31.5492 114.838 32.5043 116.166 32.8968C117.742 33.3582 119.37 33.7224 121.003 33.8762C123.83 34.1433 126.527 33.5686 129.021 32.136C132.327 30.234 134.594 27.5712 135.264 23.7469C135.544 22.1686 135.183 20.6996 133.932 19.6313C132.392 18.3161 130.569 18.049 128.696 18.7572C127.725 19.1254 126.856 19.7648 125.942 20.2828C125.077 19.9672 124.18 19.8781 123.302 20.129C121.357 20.6875 120.451 22.4964 121.02 24.5806V24.5765ZM125.796 14.2409C125.804 14.2206 125.816 14.1964 125.825 14.1761C126.109 14.1437 126.401 14.1478 126.673 14.0709C127.766 13.7553 128.404 12.9944 128.591 11.9018C128.782 10.7889 128.314 9.8379 127.441 9.23088C125.492 7.87518 123.286 7.20745 120.906 7.30053C119.789 7.34504 118.672 7.55143 117.575 7.77401C115.536 8.18679 113.647 8.92332 112.181 10.4854C110.886 11.8654 111.097 14.0143 112.656 14.9248C113.838 15.6128 115.004 15.3821 116.028 14.5768C116.893 13.8969 117.86 13.5327 118.912 13.298C120.743 12.8933 122.51 12.8771 124.22 13.8079C124.687 14.0628 125.268 14.1033 125.796 14.2449V14.2409ZM112.197 24.7586C112.803 24.6737 113.42 24.6453 114.009 24.4956C115.207 24.1921 116.174 23.063 116.182 21.7559C116.19 20.3678 115.634 19.1457 114.387 18.397C111.852 16.8794 109.143 19.2509 108.952 21.5859C108.83 23.0751 110.211 24.9448 112.197 24.7586Z" fill="#FEE262"/>
<path d="M5.57276 75.919C7.03905 75.9068 7.7336 76.6676 7.53052 78.1245C7.32743 79.5692 6.54351 80.6497 5.31281 81.4267C4.91069 81.6817 4.67511 81.4631 4.53701 81.1394C4.33393 80.674 4.19583 80.1803 4.0293 79.6987C4.07398 78.2459 4.56545 76.9792 5.57276 75.919Z" fill="#BA95EC"/>
<path d="M72.6157 117.079C66.2225 116.974 59.7684 116.432 53.4321 115.105C48.5255 114.077 43.5864 113.008 39.0373 110.734C38.2128 110.321 37.3273 110.038 36.4703 109.698C32.0186 107.913 28.3102 105.182 25.5279 101.252C24.7846 100.2 23.8708 99.2571 23.229 98.1523C21.1088 94.5222 20.1786 90.5766 20.4792 86.3759C20.8773 80.8156 21.5068 75.2835 23.3184 69.9741C24.6181 66.17 26.3444 62.5643 28.6067 59.2094C30.0446 57.0808 31.6368 55.1383 33.7042 53.6046C35.6132 52.1922 37.7416 51.2857 40.0812 50.8203C43.6433 50.1081 47.1851 49.2906 50.7554 48.631C52.6888 48.2749 54.6709 48.198 56.6165 47.9187C64.216 46.8382 71.7952 47.1579 79.3988 47.9552C84.943 48.5379 90.333 49.7358 95.6701 51.2372C97.2623 51.6864 98.8098 52.3177 100.357 52.9126C101.698 53.4265 103.002 54.0295 104.338 54.5596C108.773 56.3281 112.478 59.0314 115.268 62.9285C116.182 64.2073 117.266 65.4011 117.973 66.7851C118.806 68.412 119.358 70.1845 119.947 71.9246C120.617 73.8995 120.528 75.9755 120.597 78.0273C120.69 80.8075 120.954 83.5877 120.41 86.3517C120.219 87.3148 120.036 88.2861 119.712 89.2087C118.42 92.8711 117.145 96.5457 115.715 100.155C115.191 101.483 114.342 102.709 113.493 103.875C112.486 105.263 111.348 106.562 110.223 107.861C107.498 111.013 104.102 112.944 99.943 113.652C96.385 114.255 92.8959 115.327 89.3257 115.792C83.8179 116.509 78.298 117.31 72.6197 117.092L72.6157 117.079ZM37.6035 55.3852C37.5101 55.3852 37.4167 55.3852 37.3232 55.3852C35.9097 56.1986 34.4597 56.9554 33.1031 57.8538C32.4979 58.2544 32.0511 58.9221 31.6043 59.5211C31.1169 60.1645 30.6985 60.8646 30.2761 61.5526C30.1502 61.759 30.1096 62.018 30.0446 62.2608C29.9552 62.5967 29.9796 63.1147 29.7725 63.232C29.2526 63.5315 29.1307 63.9969 28.9114 64.4623C27.4288 67.5621 26.1616 70.7389 25.4508 74.1099C25.0202 76.1576 24.6547 78.2175 24.2972 80.2773C24.0251 81.8354 23.7286 83.3975 23.6027 84.9717C23.4605 86.7159 23.3509 88.4884 23.489 90.2285C23.6352 92.0496 24.1754 93.8302 24.9349 95.5097C25.3533 96.4364 25.7676 97.4198 26.4296 98.1685C27.9284 99.8641 29.5328 101.471 31.1819 103.025C32.0511 103.842 33.034 104.595 34.0779 105.161C35.8529 106.125 37.705 106.966 39.5612 107.776C41.19 108.484 42.8431 109.148 44.5288 109.702C46.389 110.317 48.294 110.807 50.1908 111.309C51.8074 111.733 53.4321 112.158 55.073 112.462C57.0552 112.83 59.0576 113.101 61.056 113.36C63.4605 113.668 65.8691 113.963 68.2818 114.178C69.7075 114.307 71.1453 114.307 72.5791 114.307C74.1348 114.307 75.6945 114.279 77.2461 114.19C79.4028 114.064 81.5637 113.911 83.7123 113.692C85.6376 113.498 87.5629 113.271 89.4678 112.931C93.4565 112.227 97.3679 111.175 101.17 109.799C103.018 109.127 104.748 108.103 106.466 107.128C107.323 106.643 108.209 106.027 108.769 105.246C109.837 103.761 110.784 102.171 111.592 100.532C112.835 98.0106 114.098 95.4773 114.752 92.7174C115.349 90.1881 115.958 87.6547 116.446 85.1012C116.864 82.8876 117.209 80.6537 117.409 78.4158C117.547 76.8618 117.502 75.2633 117.323 73.7093C117.177 72.4305 116.73 71.18 116.377 69.9296C115.816 67.9264 114.789 66.1781 113.314 64.7091C112.254 63.6569 111.162 62.6371 110.085 61.6052C108.643 60.2252 107.039 59.0597 105.231 58.2099C103.493 57.3884 101.738 56.5911 99.9512 55.891C97.9162 55.0938 95.8569 54.3532 93.7733 53.6976C91.9333 53.1189 90.0568 52.6212 88.1721 52.2044C86.1656 51.7592 84.1307 51.4274 82.1039 51.0955C81.1413 50.9377 80.1583 50.9053 79.1835 50.792C77.242 50.5694 75.3045 50.2214 73.3549 50.1324C70.3045 49.9907 67.2461 50.011 64.1916 49.9907C63.1924 49.9826 62.1851 50.0312 61.19 50.1283C59.5084 50.2942 57.8309 50.5087 56.1535 50.7192C54.6384 50.9094 53.1153 51.0712 51.6124 51.3302C50.004 51.6095 48.4037 51.9292 46.8236 52.3339C44.8902 52.8235 42.9812 53.4184 41.06 53.9688C40.9747 54.0335 40.8935 54.0942 40.8082 54.159H40.8163C39.744 54.5272 38.6717 54.8955 37.5994 55.2719C37.5872 55.2719 37.5994 55.3447 37.6035 55.3852Z" fill="#372256"/>
<path d="M68.8505 142.149C68.7165 145.784 67.2583 149.353 64.0617 152.072C63.1966 152.809 62.108 153.384 61.0276 153.748C58.6677 154.541 56.3728 153.525 55.1949 151.332C54.2445 149.559 54.0292 147.645 54.1876 145.674C54.4557 142.36 55.597 139.385 57.766 136.84C58.6962 135.751 59.7847 134.849 61.2388 134.537C61.7587 134.424 62.238 134.327 62.6767 133.963C62.9204 133.76 63.3875 133.696 63.7205 133.76C65.6742 134.137 67.1446 135.165 67.9529 137.038C68.5865 138.507 68.8505 140.049 68.8546 142.149H68.8505ZM61.7506 150.049C61.844 149.984 61.9537 149.932 62.0349 149.851C63.2412 148.677 63.952 147.2 64.5857 145.678C64.8172 144.922 65.0934 144.177 65.2721 143.412C65.6011 141.984 65.7758 140.539 65.4102 139.082C65.0974 138.463 64.8213 137.823 64.4557 137.237C64.3014 136.986 63.9805 136.791 63.6921 136.678C63.2534 136.504 62.7823 136.427 62.2258 136.282C60.1015 137.544 58.5418 139.495 57.5223 141.838C56.7871 143.529 56.1901 145.306 56.5719 147.224C56.7018 147.961 56.7384 148.726 56.978 149.422C57.2745 150.272 57.7579 151.081 58.7611 151.263C59.9959 151.49 60.9788 151.012 61.7465 150.049H61.7506Z" fill="#372256"/>
<path d="M93.2615 142.817C91.6084 142.842 90.4833 142.117 89.8618 140.725C89.2404 139.333 89.6181 138.03 90.5483 136.905C91.7871 135.407 93.5133 135.104 95.2924 135.375C97.1405 135.658 98.2128 137.844 97.5629 139.689C96.9739 141.352 94.87 142.935 93.2656 142.813L93.2615 142.817Z" fill="#C2DFFE"/>
<path d="M132.108 96.5214C132.421 96.396 132.766 96.3191 133.038 96.1329C133.993 95.4854 135.024 95.0767 136.182 95.0524C137.835 95.0201 139.058 95.8416 140.073 97.0556C141.649 98.9374 141.844 101.123 141.422 103.405C141.324 103.935 140.885 104.397 140.634 104.907C140.309 105.558 139.939 106.202 139.728 106.889C139.131 108.848 137.104 110.43 135.037 110.524C134.305 110.556 133.578 110.673 132.851 110.783C131.243 111.029 129.789 109.9 129.626 108.435C129.59 108.112 129.415 107.776 129.224 107.496C128.327 106.189 127.965 104.777 128.274 103.211C128.31 103.033 128.286 102.843 128.286 102.661C130.979 104.036 133.615 101.479 133.294 99.3502C133.148 98.3709 132.518 97.4603 132.108 96.5214Z" fill="#48306B"/>
<path d="M141.966 90.5241C141.954 91.7746 141.714 92.7701 140.991 93.6037C140.573 94.0853 140.268 94.0974 139.797 93.6725C138.331 92.3371 136.868 90.9976 135.402 89.6621C134.797 89.1117 134.301 88.4885 134.208 87.6508C133.981 85.5748 135.857 84.122 137.953 84.8464C140.171 85.6112 141.292 87.3716 141.832 89.5528C141.925 89.9251 141.937 90.3177 141.966 90.5281V90.5241Z" fill="#BA95EC"/>
<path d="M132.108 96.5214C132.518 97.4643 133.148 98.3708 133.294 99.3502C133.615 101.483 130.979 104.04 128.286 102.66C127.201 102.025 126.495 101.086 126.592 99.8317C126.702 98.4477 127.088 97.1122 128.233 96.137C129.098 95.4004 130.857 95.3964 131.69 96.1653C131.824 96.2907 131.97 96.404 132.108 96.5214Z" fill="#371A62"/>
<path d="M33.2292 142.279C31.1699 142.4 29.464 140.167 30.256 138.078C30.8815 136.423 31.9985 135.205 33.6922 134.545C35.5282 133.829 37.295 135.322 37.7296 136.759C38.3551 138.823 36.6533 141.312 34.7077 141.943C34.2284 142.097 33.7207 142.17 33.2292 142.279Z" fill="#C2DFFE"/>
<path d="M125.946 20.2788C126.86 19.7608 127.729 19.1254 128.7 18.7531C130.573 18.0409 132.396 18.308 133.936 19.6272C135.187 20.6956 135.548 22.1646 135.268 23.7429C134.594 27.5671 132.331 30.234 129.025 32.132C126.531 33.5646 123.834 34.1352 121.007 33.8721C119.374 33.7183 117.746 33.3582 116.17 32.8928C114.842 32.5002 113.907 31.5452 113.574 30.1248C113.278 28.8743 113.846 27.6198 114.98 27.0289C115.126 26.952 115.305 26.8994 115.398 26.778C116.312 25.5842 117.725 25.5356 119.009 25.1795C119.683 24.9933 120.353 24.7748 121.023 24.5725C121.706 26.0212 123.022 26.7335 124.573 26.5514C125.946 26.3895 127.344 25.2119 127.644 23.8521C127.969 22.3831 127.331 21.0396 125.946 20.2747V20.2788Z" fill="#FEC23C"/>
<path d="M125.796 14.2409C125.268 14.1033 124.687 14.0588 124.22 13.8038C122.51 12.873 120.739 12.8892 118.912 13.2939C117.86 13.5246 116.893 13.8928 116.028 14.5727C115 15.378 113.838 15.6087 112.656 14.9207C111.093 14.0142 110.886 11.8613 112.181 10.4813C113.648 8.91926 115.54 8.18274 117.575 7.76996C118.672 7.54738 119.789 7.33695 120.906 7.29648C123.286 7.2034 125.496 7.87518 127.441 9.22682C128.319 9.83385 128.786 10.7849 128.591 11.8977C128.404 12.9904 127.766 13.7512 126.674 14.0669C126.401 14.1437 126.109 14.1397 125.825 14.1721C125.816 14.1923 125.804 14.2166 125.796 14.2368V14.2409Z" fill="#FEF7D2"/>
<path d="M112.197 24.7587C110.215 24.9489 108.83 23.0752 108.952 21.586C109.143 19.2509 111.852 16.8795 114.387 18.397C115.63 19.1417 116.186 20.3679 116.182 21.7559C116.174 23.0631 115.207 24.1921 114.009 24.4956C113.42 24.6454 112.803 24.6737 112.197 24.7587Z" fill="#FEC23C"/>
<path d="M125.946 20.2788C127.331 21.0436 127.969 22.3872 127.644 23.8562C127.344 25.2119 125.946 26.3895 124.574 26.5554C123.022 26.7416 121.706 26.0253 121.024 24.5765C120.455 22.4964 121.365 20.6834 123.306 20.125C124.188 19.8741 125.081 19.9591 125.946 20.2788Z" fill="#F78A22"/>
<path d="M41.052 53.9729C42.9732 53.4226 44.8822 52.8317 46.8156 52.338C48.3956 51.9374 50 51.6136 51.6044 51.3344C53.1072 51.0754 54.6304 50.9135 56.1454 50.7233C57.8229 50.5129 59.5004 50.2984 61.182 50.1325C62.1771 50.0354 63.1844 49.9868 64.1836 49.9949C67.238 50.0151 70.2965 49.9949 73.3469 50.1365C75.2965 50.2256 77.2299 50.5776 79.1755 50.7962C80.1462 50.9054 81.1292 50.9418 82.0959 51.0997C84.1267 51.4315 86.1576 51.7634 88.1641 52.2085C90.0487 52.6253 91.9253 53.1231 93.7652 53.7018C95.8489 54.3574 97.9123 55.098 99.9431 55.8952C101.73 56.5953 103.489 57.3925 105.223 58.214C107.027 59.0679 108.631 60.2294 110.077 61.6093C111.158 62.6413 112.25 63.6611 113.306 64.7133C114.785 66.1823 115.808 67.9305 116.369 69.9337C116.718 71.1842 117.165 72.4347 117.315 73.7135C117.494 75.2675 117.539 76.8619 117.4 78.42C117.201 80.6619 116.856 82.8958 116.438 85.1053C115.955 87.6589 115.345 90.1922 114.744 92.7215C114.09 95.4815 112.827 98.0148 111.584 100.536C110.776 102.175 109.829 103.769 108.761 105.251C108.201 106.032 107.315 106.647 106.458 107.132C104.74 108.108 103.01 109.131 101.162 109.803C97.3599 111.183 93.4484 112.231 89.4598 112.936C87.5548 113.271 85.6296 113.498 83.7043 113.696C81.5556 113.915 79.3948 114.069 77.238 114.194C75.6864 114.283 74.1267 114.311 72.5711 114.311C71.1373 114.311 69.6994 114.311 68.2738 114.182C65.8611 113.963 63.4525 113.672 61.0479 113.364C59.0495 113.105 57.0471 112.834 55.065 112.466C53.424 112.163 51.7993 111.738 50.1828 111.313C48.2859 110.815 46.385 110.321 44.5207 109.706C42.8351 109.152 41.1779 108.488 39.5532 107.78C37.697 106.97 35.8489 106.129 34.0699 105.166C33.0219 104.595 32.039 103.846 31.1738 103.029C29.5248 101.475 27.9204 99.8642 26.4216 98.1726C25.7636 97.428 25.3493 96.4406 24.9269 95.5138C24.1673 93.8344 23.6271 92.0538 23.4809 90.2327C23.3428 88.4926 23.4484 86.7241 23.5946 84.9758C23.7246 83.4016 24.0211 81.8395 24.2892 80.2815C24.6466 78.2217 25.0122 76.1578 25.4427 74.1141C26.1535 70.7431 27.4208 67.5663 28.9033 64.4664C29.1267 64.001 29.2445 63.5316 29.7644 63.2362C29.9716 63.1148 29.9472 62.5968 30.0365 62.2649C30.1015 62.0262 30.1422 61.7631 30.2681 61.5567C30.6905 60.8647 31.1088 60.1687 31.5963 59.5252C32.0471 58.9263 32.4939 58.2626 33.095 57.8579C34.4517 56.9555 35.9017 56.2028 37.3152 55.3893C37.4086 55.3893 37.502 55.3893 37.5954 55.3893L37.5873 55.3934C38.6596 54.9806 39.7279 54.5719 40.8002 54.1591L40.792 54.1631C40.8773 54.0984 40.9586 54.0377 41.0439 53.9729H41.052ZM60.6052 105.744C61.2713 107.031 62.2786 107.958 63.5987 108.553C64.0861 108.755 64.5532 109.026 65.0609 109.156C67.9082 109.888 70.792 109.617 73.5906 109.055C77.2543 108.314 78.6393 106.096 79.5329 102.304L79.606 102.049L79.6872 101.677C79.7807 100.613 79.8782 99.5485 79.9716 98.4883C79.9838 97.9946 79.9959 97.5049 80.0081 97.0112C79.931 95.7486 79.8863 94.4819 79.7563 93.2274C79.7197 92.8793 79.4882 92.4989 79.2364 92.2399C78.5418 91.5358 77.7742 91.8636 77.0146 92.1752C70.792 94.7449 64.3664 96.3394 57.5792 96.1856C57.3152 96.1816 57.0471 96.2139 56.7872 96.2625C56.2713 96.3677 55.9098 96.6712 55.8936 97.2095C55.8773 97.7194 56.1941 98.0674 56.6897 98.1686C57.3924 98.3102 58.1032 98.4033 58.8099 98.4964C59.2242 98.553 59.6385 98.5733 60.1015 98.6178C59.5776 99.929 59.6141 101.228 59.7116 102.507C59.7766 103.385 60.0894 104.247 60.2884 105.117L60.6093 105.748L60.6052 105.744ZM88.0544 86.6998C87.6929 88.7839 87.7254 90.8357 88.091 92.8874C88.4119 94.6883 89.3867 96.0844 90.9911 96.8574C93.485 98.0512 96.1535 98.6663 98.9399 98.2293C101.925 97.7598 103.94 96.2018 104.651 93.0979C105.102 91.123 105.199 89.1441 105.207 87.1004C105.357 87.1004 105.5 87.1004 105.638 87.1004C106.336 87.0843 107.035 87.1004 107.729 87.0478C108.497 86.9952 109.017 86.4894 109.054 85.8338C109.086 85.2227 108.627 84.6642 107.908 84.5064C107.612 84.4417 107.299 84.4417 106.994 84.4578C106.401 84.4862 105.808 84.6076 105.215 84.5874C102.323 84.474 99.4314 84.3041 96.5394 84.1948C94.0374 84.0977 91.5313 84.0289 89.0293 84.0086C88.3672 84.0046 87.6767 84.1462 87.0552 84.3769C86.7506 84.4902 86.4866 84.9435 86.3851 85.2915C86.2551 85.7569 86.5922 86.1049 87.0065 86.3113C87.3152 86.4651 87.6523 86.5582 88.0504 86.7038L88.0544 86.6998ZM48.5256 84.5388C49.3379 84.5954 50.134 84.733 50.9098 84.6723C51.2835 84.64 51.7425 84.3041 51.9578 83.9722C52.2299 83.5514 52.0024 83.0981 51.6572 82.7015C50.9951 81.9407 50.0528 81.9933 49.2201 81.9205C47.1974 81.7384 45.1665 81.6858 43.1357 81.617C39.5451 81.4915 35.9586 81.3782 32.368 81.2973C31.7831 81.2851 31.182 81.4065 30.6133 81.5522C30.0894 81.6858 29.6954 82.0176 29.6913 82.6327C29.6913 83.2155 30.069 83.5109 30.5483 83.7092C30.8083 83.8185 31.0804 83.8913 31.3404 83.9803C31.2713 84.7654 31.1738 85.5141 31.1495 86.2668C31.1251 87.0397 31.1332 87.8208 31.2063 88.5937C31.3282 89.8766 31.5028 91.1432 32.2177 92.2845C32.8107 93.2274 33.6921 93.883 34.6263 94.2957C37.0715 95.3722 39.6588 95.9792 42.3558 95.5219C45.3127 95.0201 47.2868 93.4459 47.9813 90.3743C48.424 88.4157 48.5215 86.461 48.5296 84.5469L48.5256 84.5388ZM35.2559 60.974C35.2599 62.6251 36.2104 63.6692 37.5345 63.5802C38.3672 63.5235 39.2323 63.2726 39.9837 62.9003C41.2266 62.2811 42.4858 61.7672 43.8465 61.5203C48.7774 60.6341 53.7612 60.2415 58.753 59.9218C60.7311 59.7964 62.7214 59.5738 64.6507 59.1529C66.1129 58.8332 67.5102 58.1695 68.9033 57.5868C69.4476 57.3602 69.4435 56.9393 68.9683 56.6034C68.4159 56.2149 67.8595 55.8264 67.2624 55.5107C64.9878 54.3088 62.4858 54.2077 60.0081 54.2319C57.6117 54.2562 55.2112 54.4221 52.827 54.665C49.5045 55.0049 46.1901 55.4258 42.8879 55.9154C40.8936 56.2108 38.9602 56.8179 37.2705 57.9712C36.1089 58.7644 35.3087 59.8206 35.2518 60.974H35.2559ZM86.5597 111.167C87.0268 111.114 87.4939 111.062 87.9569 111.009C89.4557 110.839 90.9667 110.754 92.4452 110.479C96.1535 109.783 99.7807 108.792 103.063 106.857C103.818 106.412 104.574 105.841 105.097 105.153C106.202 103.697 105.613 101.556 103.716 101.119C102.583 100.856 101.564 101.256 100.54 101.75C99.0374 102.478 97.5264 103.247 95.9342 103.733C93.8749 104.36 91.7466 104.773 89.6263 105.186C88.5703 105.392 87.4777 105.38 86.4013 105.477C85.6214 105.55 84.8091 105.534 84.078 105.765C83.0666 106.084 82.4777 106.922 82.3517 107.954C82.2299 108.97 82.6523 109.807 83.5012 110.435C84.4273 111.118 85.5199 110.985 86.5597 111.163V111.167ZM50.3006 72.0502C50.0731 71.5363 49.9188 70.9697 49.6019 70.5205C47.567 67.6189 42.5508 66.9957 39.8538 69.3105C39.4801 69.6302 39.1836 70.0794 38.9521 70.5205C38.684 71.0345 38.8099 71.5727 39.208 71.9976C39.5979 72.4185 40.1097 72.463 40.6296 72.3092C41.0398 72.1878 41.4419 72.0219 41.844 71.8722C43.2372 71.3582 44.541 71.5039 45.7555 72.374C46.1048 72.6249 46.4663 72.8677 46.844 73.0619C47.2949 73.2966 47.7579 73.5516 48.2453 73.6689C49.3907 73.9441 50.1828 73.2724 50.2965 72.0502H50.3006ZM94.8294 73.6649C94.7319 73.677 94.4923 73.6609 94.2892 73.7378C92.2543 74.5309 90.2031 75.2917 88.2047 76.174C87.7457 76.3763 87.4005 76.9712 87.1487 77.4568C86.8359 78.0557 87.1893 78.6344 87.8717 78.6951C88.4322 78.7437 89.0293 78.768 89.5695 78.6344C90.9789 78.2905 92.3842 77.8979 93.7612 77.4366C94.5288 77.1776 95.2762 76.8093 95.9545 76.3682C96.6247 75.9311 96.7831 75.2391 96.5394 74.5916C96.3079 73.9846 95.7514 73.6568 94.8335 73.6649H94.8294ZM80.7352 57.1092C80.7352 56.0125 79.866 55.1627 78.7327 55.1546C77.6158 55.1465 76.7019 56.0166 76.6937 57.0931C76.6856 58.1493 77.6117 59.0436 78.7206 59.0517C79.8375 59.0639 80.7352 58.1979 80.7392 57.1052L80.7352 57.1092Z" fill="#4E3A6A"/>
<path d="M40.8082 54.1589C39.7359 54.5717 38.6677 54.9804 37.5954 55.3932C37.5954 55.3528 37.5791 55.284 37.5913 55.2799C38.6636 54.9036 39.7359 54.5312 40.8082 54.1589Z" fill="#BA95EC"/>
<path d="M56.576 147.228C56.1983 145.314 56.7913 143.534 57.5265 141.842C58.5419 139.499 60.1057 137.548 62.2299 136.286C62.7864 136.431 63.2616 136.508 63.6962 136.682C63.9846 136.796 64.3014 136.99 64.4598 137.241C64.8254 137.828 65.1016 138.467 65.4143 139.086C65.4022 139.228 65.3819 139.365 65.3859 139.507C65.455 141.502 64.9879 143.4 64.342 145.27C64.2039 145.193 64.0699 145.12 63.9318 145.043C63.5338 144.829 63.1357 144.614 62.7377 144.4C62.4493 144.149 62.1568 143.894 61.8685 143.643C62.1406 143.145 62.5061 142.68 62.6645 142.15C63.022 140.948 62.2909 139.624 61.1739 139.293C60.0935 138.969 58.9481 139.564 58.5135 140.705C58.0464 141.939 58.2657 143.024 59.2933 143.906C59.1918 144.031 59.1105 144.185 58.9806 144.274C58.0829 144.869 57.5183 145.715 57.0878 146.678C56.9903 146.897 56.7507 147.05 56.5801 147.232L56.576 147.228Z" fill="#4E3A6A"/>
<path d="M62.7376 144.4C63.1356 144.614 63.5337 144.829 63.9317 145.043C64.0698 145.116 64.2039 145.193 64.342 145.27C64.4232 145.407 64.5044 145.545 64.5897 145.682C63.952 147.204 63.2453 148.681 62.039 149.855C61.9577 149.936 61.8521 149.988 61.7546 150.053C60.5808 149.944 59.7766 149.333 59.3745 148.244C58.9398 147.07 59.3013 146.083 60.1462 145.193C60.8773 144.424 61.7831 144.359 62.7416 144.404L62.7376 144.4Z" fill="#371A62"/>
<path d="M62.7376 144.4C61.779 144.359 60.8733 144.42 60.1421 145.189C59.2973 146.079 58.9358 147.067 59.3704 148.24C59.7725 149.329 60.5808 149.94 61.7506 150.049C60.9829 151.012 59.9959 151.49 58.7652 151.263C57.762 151.081 57.2786 150.272 56.9821 149.422C56.7384 148.726 56.7018 147.961 56.5759 147.224C56.7506 147.042 56.9862 146.885 57.0836 146.67C57.5142 145.707 58.0788 144.865 58.9764 144.266C59.1064 144.181 59.1876 144.023 59.2892 143.898C60.2031 144.335 61.056 144.193 61.8684 143.635C62.1568 143.886 62.4492 144.141 62.7376 144.392V144.4Z" fill="#48306B"/>
<path d="M64.5857 145.683C64.5044 145.545 64.4232 145.407 64.3379 145.27C64.9837 143.404 65.4508 141.502 65.3818 139.507C65.3777 139.365 65.4021 139.228 65.4102 139.086C65.7757 140.543 65.6011 141.988 65.2721 143.416C65.0934 144.185 64.8172 144.93 64.5857 145.683Z" fill="#BA95EC"/>
<path d="M88.0543 86.6999C87.6603 86.5542 87.3192 86.4571 87.0105 86.3074C86.6002 86.105 86.259 85.753 86.389 85.2876C86.4865 84.9355 86.7546 84.4863 87.0592 84.373C87.6766 84.1383 88.3711 83.9966 89.0332 84.0047C91.5352 84.025 94.0413 84.0978 96.5434 84.1909C99.4353 84.3001 102.327 84.4701 105.219 84.5834C105.808 84.6077 106.401 84.4863 106.998 84.4539C107.303 84.4377 107.62 84.4377 107.912 84.5025C108.631 84.6563 109.09 85.2188 109.058 85.8299C109.021 86.4854 108.501 86.9872 107.733 87.0439C107.039 87.0925 106.34 87.0803 105.642 87.0965C105.504 87.0965 105.361 87.0965 105.211 87.0965C105.203 89.1442 105.11 91.1191 104.655 93.0939C103.944 96.1979 101.929 97.76 98.9438 98.2253C96.1575 98.6624 93.4889 98.0473 90.995 96.8535C89.3906 96.0846 88.4158 94.6884 88.0949 92.8835C87.7294 90.8318 87.6928 88.78 88.0584 86.6959L88.0543 86.6999Z" fill="#FDE162"/>
<path d="M48.5256 84.5387C48.5216 86.4528 48.4241 88.4075 47.9773 90.3661C47.2827 93.4377 45.3087 95.0119 42.3518 95.5137C39.6548 95.971 37.0675 95.368 34.6223 94.2875C33.6881 93.8747 32.8067 93.2192 32.2137 92.2762C31.4988 91.135 31.3242 89.8684 31.2023 88.5855C31.1292 87.8166 31.1211 87.0356 31.1455 86.2586C31.1698 85.5059 31.2673 84.7572 31.3364 83.9721C31.0764 83.8831 30.8043 83.8102 30.5443 83.701C30.065 83.4986 29.6832 83.2073 29.6873 82.6245C29.6873 82.0094 30.0853 81.6775 30.6093 81.544C31.182 81.3983 31.7791 81.2769 32.364 81.289C35.9546 81.37 39.5451 81.4833 43.1316 81.6088C45.1625 81.6775 47.1974 81.7342 49.2161 81.9123C50.0488 81.9851 50.987 81.9365 51.6532 82.6933C51.9984 83.0899 52.2259 83.5431 51.9537 83.964C51.7385 84.2959 51.2836 84.6317 50.9058 84.6641C50.13 84.7289 49.3339 84.5872 48.5216 84.5306L48.5256 84.5387Z" fill="#FDE162"/>
<path d="M35.2559 60.9739C35.3127 59.8205 36.1129 58.7643 37.2745 57.9711C38.9683 56.8178 40.8976 56.2107 42.8919 55.9153C46.1941 55.4256 49.5085 55.0048 52.831 54.6648C55.2152 54.418 57.6157 54.2561 60.0122 54.2318C62.4898 54.2075 64.9918 54.3087 67.2664 55.5106C67.8635 55.8263 68.42 56.2148 68.9724 56.6033C69.4476 56.9392 69.4516 57.36 68.9074 57.5867C67.5142 58.1694 66.1169 58.8331 64.6547 59.1528C62.7213 59.5737 60.7311 59.7962 58.7571 59.9217C53.7611 60.2414 48.7814 60.6339 43.8505 61.5202C42.4858 61.7671 41.2266 62.281 39.9878 62.9002C39.2404 63.2725 38.3712 63.5234 37.5386 63.58C36.2185 63.6691 35.264 62.625 35.2599 60.9739H35.2559Z" fill="#BA95EC"/>
<path d="M86.5598 111.167C85.52 110.989 84.4273 111.122 83.5013 110.438C82.6524 109.811 82.2259 108.969 82.3518 107.958C82.4777 106.926 83.0667 106.088 84.078 105.768C84.8092 105.538 85.6215 105.558 86.4014 105.481C87.4777 105.38 88.5744 105.392 89.6264 105.19C91.7425 104.777 93.875 104.364 95.9343 103.737C97.5224 103.251 99.0334 102.482 100.54 101.754C101.564 101.256 102.583 100.859 103.717 101.122C105.613 101.56 106.202 103.7 105.098 105.157C104.574 105.845 103.818 106.416 103.063 106.861C99.7807 108.795 96.1577 109.787 92.4452 110.483C90.9668 110.758 89.4558 110.843 87.957 111.013C87.4899 111.066 87.0269 111.118 86.5598 111.171V111.167Z" fill="#48306B"/>
<path d="M60.2843 105.113C60.0812 104.243 59.7725 103.381 59.7075 102.503C59.6101 101.228 59.5735 99.9248 60.0975 98.6136C59.6385 98.5732 59.2201 98.5489 58.8058 98.4922C58.095 98.3951 57.3842 98.302 56.6856 98.1645C56.1901 98.0633 55.8773 97.7153 55.8895 97.2053C55.9058 96.6671 56.2672 96.3636 56.7831 96.2584C57.043 96.2058 57.3111 96.1734 57.5751 96.1815C64.3623 96.3353 70.788 94.7408 77.0105 92.1711C77.766 91.8595 78.5378 91.5317 79.2323 92.2358C79.4841 92.4908 79.7157 92.8752 79.7522 93.2233C79.8822 94.4778 79.9269 95.7444 80.004 97.0071C79.7441 97.0678 79.5126 97.0192 79.2079 97.2053C78.5174 97.6343 77.6767 97.8286 76.9009 98.1159C76.9456 97.1487 76.9862 96.1815 77.0349 95.0808C76.1901 95.3964 75.4833 95.6918 74.7563 95.9265C74.3135 96.0682 74.2851 96.307 74.3582 96.7035C74.541 97.7031 74.675 98.7067 74.8294 99.7103C74.0008 99.9167 73.1722 100.123 72.3436 100.33C72.2461 99.164 72.1446 97.9985 72.043 96.7723C71.4094 96.918 70.6864 97.1082 69.9512 97.2499C69.5451 97.3268 69.4801 97.4805 69.5654 97.8771C69.7847 98.9334 69.9431 100.002 70.1259 101.066C69.4232 101.272 68.7205 101.479 68.0179 101.685C67.8554 100.39 67.697 99.0912 67.5345 97.784C66.6531 97.9257 65.8286 98.0552 64.9959 98.1887C65.2356 99.4554 65.4711 100.69 65.7067 101.92C65.4874 101.993 65.2559 102.049 65.0447 102.147C64.7197 102.3 64.407 102.486 64.0901 102.656C63.7611 101.236 63.4321 99.8156 63.095 98.3547C62.5792 98.4073 62.0593 98.4639 61.5678 98.5165C62.0105 100.334 62.4411 102.11 62.8716 103.883C62.0105 104.291 61.1495 104.7 60.2843 105.109V105.113Z" fill="#FCBD6A"/>
<path d="M79.5328 102.3C78.6392 106.092 77.2542 108.31 73.5905 109.05C70.792 109.613 67.9081 109.884 65.0609 109.151C64.5572 109.022 64.086 108.755 63.5986 108.548C63.6514 108.472 63.6839 108.358 63.757 108.322C64.74 107.848 65.731 107.391 66.7099 106.909C66.8115 106.861 66.8561 106.695 66.9252 106.582H69.3257C69.1754 106.092 69.0617 105.728 68.952 105.368C69.5085 105.161 70.0649 104.951 70.6173 104.744C70.7107 105.258 70.8082 105.772 70.9341 106.452C71.8724 106.165 72.7579 105.914 73.623 105.61C73.757 105.566 73.8098 105.291 73.8992 105.121C74.4435 104.894 74.9999 104.688 75.528 104.425C75.6742 104.352 75.8082 104.117 75.8163 103.951C75.8407 103.389 76.1332 103.199 76.6409 103.453C76.7587 103.51 76.9496 103.611 77.0105 103.563C77.6929 103.045 78.7327 103.174 79.2363 102.332C79.2648 102.28 79.4272 102.308 79.5288 102.3H79.5328Z" fill="#F19745"/>
<path d="M50.3005 72.05C50.1868 73.2721 49.3988 73.9439 48.2493 73.6687C47.7619 73.5514 47.2989 73.2964 46.848 73.0617C46.4662 72.8634 46.1088 72.6206 45.7595 72.3737C44.545 71.5036 43.2412 71.358 41.848 71.8719C41.4459 72.0216 41.0438 72.1876 40.6336 72.309C40.1096 72.4627 39.6019 72.4142 39.212 71.9974C38.818 71.5724 38.688 71.0342 38.9561 70.5203C39.1876 70.0792 39.4841 69.63 39.8578 69.3103C42.5507 66.9995 47.571 67.6227 49.606 70.5203C49.9228 70.9735 50.0731 71.536 50.3046 72.05H50.3005Z" fill="#FBDF62"/>
<path d="M94.8293 73.6646C95.7473 73.6565 96.3037 73.9843 96.5352 74.5913C96.779 75.2348 96.6246 75.9268 95.9504 76.3679C95.272 76.809 94.5247 77.1813 93.757 77.4362C92.3801 77.8976 90.9788 78.2901 89.5653 78.6341C89.0251 78.7677 88.428 78.7434 87.8675 78.6948C87.1892 78.6341 86.8358 78.0554 87.1445 77.4565C87.3963 76.9668 87.7416 76.376 88.2006 76.1736C90.1989 75.2914 92.2501 74.5266 94.285 73.7374C94.4881 73.6565 94.7278 73.6767 94.8253 73.6646H94.8293Z" fill="#FBDF62"/>
<path d="M79.5329 102.3C79.4314 102.308 79.273 102.284 79.2405 102.333C78.7368 103.174 77.697 103.045 77.0147 103.563C76.9537 103.607 76.7628 103.51 76.645 103.454C76.1333 103.199 75.8449 103.389 75.8205 103.951C75.8124 104.117 75.6743 104.356 75.5321 104.425C75.0041 104.688 74.4476 104.894 73.9034 105.121C73.6109 104.348 73.3144 103.571 73.022 102.798C73.7368 102.393 74.3664 101.774 75.2925 101.92C75.3534 102.308 75.4143 102.693 75.4753 103.081C75.5321 103.089 75.589 103.097 75.6459 103.106C75.9342 102.26 76.2226 101.41 76.5151 100.564C76.9984 100.374 77.7377 100.313 77.9082 99.9692C78.3632 99.0587 79.5451 99.3096 79.9675 98.48C79.8741 99.5443 79.7766 100.609 79.6832 101.669C79.5492 101.697 79.4111 101.722 79.0943 101.782C79.3786 101.924 79.4883 101.981 79.602 102.037L79.5289 102.292L79.5329 102.3Z" fill="#F5A350"/>
<path d="M80.7352 57.1093C80.7352 58.1979 79.8335 59.064 78.7166 59.0559C77.6077 59.0437 76.6816 58.1494 76.6898 57.0972C76.6979 56.0207 77.6118 55.1507 78.7287 55.1587C79.862 55.1668 80.7352 56.0167 80.7312 57.1134L80.7352 57.1093Z" fill="#BA95EC"/>
<path d="M66.9253 106.586C66.8562 106.699 66.8116 106.865 66.71 106.913C65.7311 107.391 64.7401 107.848 63.7571 108.326C63.684 108.362 63.6515 108.476 63.5987 108.552C62.2787 107.958 61.2713 107.031 60.6052 105.744C61.1414 105.57 61.4216 105.93 61.6369 106.298C62.1121 107.104 62.5873 107.363 63.2291 107.051C63.4687 106.934 63.68 106.748 63.8952 106.582C64.1755 106.367 64.4476 106.141 64.7198 105.918C65.0366 106.039 65.1056 105.906 65.0285 105.623C65.4631 105.493 65.8977 105.359 66.3323 105.23C66.3851 105.623 66.4379 106.019 66.4947 106.428C66.6247 106.476 66.775 106.533 66.9253 106.59V106.586Z" fill="#F5A350"/>
<path d="M64.7196 105.914C64.4434 106.137 64.1753 106.363 63.8951 106.578C63.6798 106.744 63.4686 106.93 63.2289 107.047C62.5872 107.359 62.1079 107.1 61.6367 106.295C61.4215 105.926 61.1412 105.57 60.6051 105.74C60.4995 105.53 60.3898 105.319 60.2842 105.109C61.1453 104.7 62.0064 104.291 62.8715 103.883C63.2858 104.741 63.9154 105.408 64.7237 105.914H64.7196Z" fill="#FAB460"/>
<path d="M79.9715 98.4842C79.5491 99.3138 78.3671 99.0629 77.9122 99.9734C77.7416 100.317 76.9983 100.378 76.519 100.568C76.649 99.7508 76.779 98.9334 76.9049 98.1159C77.6848 97.8286 78.5215 97.6343 79.212 97.2054C79.5125 97.0192 79.7441 97.0678 80.0081 97.0071C79.9959 97.5008 79.9837 97.9905 79.9715 98.4842Z" fill="#FAB460"/>
<path d="M79.602 102.045C79.4923 101.989 79.3786 101.932 79.0942 101.79C79.4111 101.73 79.5451 101.701 79.6832 101.677C79.6548 101.802 79.6304 101.924 79.602 102.049V102.045Z" fill="#F19745"/>
<path d="M61.8684 143.643C61.056 144.201 60.203 144.339 59.2892 143.906C58.2615 143.024 58.0422 141.939 58.5093 140.705C58.9439 139.564 60.0893 138.973 61.1697 139.293C62.2867 139.624 63.0178 140.948 62.6604 142.15C62.502 142.68 62.1364 143.149 61.8643 143.643H61.8684Z" fill="#BA95EC"/>
<path d="M68.9561 105.368C68.6433 104.137 68.3306 102.911 68.0178 101.681C68.7205 101.475 69.4232 101.268 70.1259 101.062C70.2843 102.065 70.4467 103.069 70.593 104.073C70.6255 104.295 70.6133 104.522 70.6214 104.744C70.0649 104.951 69.5085 105.161 68.9561 105.368Z" fill="#FAB460"/>
<path d="M74.8334 99.7061C74.9878 100.443 75.1421 101.183 75.2965 101.92C74.3704 101.778 73.7368 102.393 73.026 102.798C72.7985 101.972 72.5711 101.147 72.3477 100.321C73.1763 100.115 74.0048 99.9084 74.8334 99.702V99.7061Z" fill="#F8AC58"/>
<path d="M65.0283 105.619C64.7155 104.631 64.3987 103.644 64.0859 102.656C64.4028 102.486 64.7155 102.3 65.0404 102.146C65.2476 102.049 65.4791 101.993 65.7025 101.92C65.9137 103.021 66.1249 104.125 66.3361 105.226C65.9015 105.356 65.4669 105.489 65.0323 105.619H65.0283Z" fill="#FAB460"/>
</g>
<defs>
<clipPath id="clip0_134_3965">
<rect width="150" height="170" fill="white"/>
</clipPath>
</defs>
</svg>
